<?xml version="1.0" encoding="UTF-8" standalone="no"?>
<svg width="1289px" height="181px" viewBox="0 0 1289 181" version="1.1" xmlns="http://www.w3.org/2000/svg" xmlns:xlink="http://www.w3.org/1999/xlink">
    <!-- Generator: Sketch 3.6.1 (26313) - http://www.bohemiancoding.com/sketch -->
    <title>phenomic-text-white</title>
    <desc>Created with Sketch.</desc>
    <defs></defs>
    <g id="Phenomic" stroke="none" stroke-width="1" fill="none" fill-rule="evenodd">
        <g id="logo-with-text-on-background" transform="translate(-382.000000, -163.000000)">
            <g id="logo-with-text" transform="translate(341.000000, 163.000000)">
                <g id="stroked" transform="translate(45.000000, 5.000000)" stroke-opacity="0.25" stroke="#000000" stroke-width="8">
                    <path d="M64.9998419,46.8335363 L0.499972642,86.6667889 L0.499972642,102.833423 L64.4998429,142.666675 L73.666491,129.166703 L16.4999402,94.8334391 L73.666491,60.333509 L64.9998419,46.8335363 Z" id="&lt;"></path>
                    <path d="M179.533477,12.5062967 L148.386731,12.5062967 L148.386731,158 L155.853417,158 L155.853417,99.1198503 L178.466808,99.1198503 C209.613554,99.1198503 231.586943,87.1731532 231.586943,54.959738 C231.586943,25.0929953 212.600228,12.5062967 179.533477,12.5062967 L179.533477,12.5062967 Z M179.106809,92.2931662 L155.853417,92.2931662 L155.853417,19.1196468 L179.533477,19.1196468 C207.906883,19.1196468 223.693589,28.5063373 223.693589,55.1730718 C223.693589,83.5464773 205.133542,92.2931662 179.106809,92.2931662 L179.106809,92.2931662 Z M313.933819,44.7197119 C296.867109,44.7197119 284.28041,54.1064025 274.467052,67.7597705 L274.467052,0.132931857 L267.2137,1.41293511 L267.2137,158 L274.467052,158 L274.467052,76.5064594 C284.707078,61.5730881 296.227107,51.1197282 313.293817,51.1197282 C328.86719,51.1197282 336.760544,60.7197526 336.760544,79.9198014 L336.760544,158 L344.013895,158 L344.013895,78.8531321 C344.013895,57.7330783 333.773869,44.7197119 313.933819,44.7197119 L313.933819,44.7197119 Z M466.46754,97.6265131 C466.46754,65.8397656 452.814172,44.7197119 424.867434,44.7197119 C398.840701,44.7197119 381.773991,67.1197689 381.773991,103.386528 C381.773991,139.226619 399.480703,160.133339 427.427441,160.133339 C441.720811,160.133339 452.17417,155.22666 461.987529,146.906638 L458.147519,141.786625 C448.334161,149.253311 440.227473,153.519989 427.427441,153.519989 C406.307387,153.519989 390.734014,139.013285 389.454011,106.159868 L466.040872,106.159868 C466.254206,104.239863 466.46754,100.826521 466.46754,97.6265131 L466.46754,97.6265131 Z M459.214188,99.9731858 L389.454011,99.9731858 C390.307346,66.0530995 406.307387,51.3330621 425.294102,51.3330621 C448.760828,51.3330621 459.214188,69.2531076 459.214188,95.0665066 L459.214188,99.9731858 Z M551.161089,44.7197119 C533.881045,44.7197119 521.081012,54.1064025 511.480988,67.7597705 L510.627652,47.0663845 L504.44097,47.0663845 L504.44097,158 L511.694322,158 L511.694322,76.5064594 C521.934348,61.5730881 533.454377,51.1197282 550.521087,51.1197282 C566.09446,51.1197282 573.987814,60.2930849 573.987814,79.9198014 L573.987814,158 L581.241165,158 L581.241165,78.8531321 C581.241165,57.3064106 571.214473,44.7197119 551.161089,44.7197119 L551.161089,44.7197119 Z M664.441377,44.7197119 C636.921307,44.7197119 619.001261,66.0530995 619.001261,102.746526 C619.001261,138.586617 636.067971,160.133339 664.228043,160.133339 C691.748113,160.133339 709.454825,138.799951 709.454825,102.106525 C709.454825,64.9864301 692.174781,44.7197119 664.441377,44.7197119 L664.441377,44.7197119 Z M664.441377,51.3330621 C687.908103,51.3330621 701.988139,69.0397738 701.988139,102.106525 C701.988139,135.813277 687.268102,153.519989 664.228043,153.519989 C640.761317,153.519989 626.681281,135.386609 626.681281,102.746526 C626.681281,68.8264399 641.401318,51.3330621 664.441377,51.3330621 L664.441377,51.3330621 Z M854.308526,44.7197119 C839.801823,44.7197119 827.00179,54.5330702 818.041768,68.613106 C815.268427,53.4664008 805.668403,44.7197119 790.948365,44.7197119 C776.86833,44.7197119 764.281631,54.1064025 755.534942,67.5464366 L754.681606,47.0663845 L748.494924,47.0663845 L748.494924,158 L755.748276,158 L755.748276,76.5064594 C764.708299,61.5730881 776.228328,51.1197282 790.521698,51.1197282 C804.175066,51.1197282 811.641751,60.7197526 811.641751,79.9198014 L811.641751,158 L818.895103,158 L818.895103,76.5064594 C828.06846,61.5730881 839.375155,51.1197282 853.881859,51.1197282 C867.321893,51.1197282 875.001912,60.7197526 875.001912,79.9198014 L875.001912,158 L882.255264,158 L882.255264,78.8531321 C882.255264,57.7330783 872.015238,44.7197119 854.308526,44.7197119 L854.308526,44.7197119 Z M933.242061,1.41293511 C929.615385,1.41293511 927.268712,4.1862755 927.268712,7.17294976 C927.268712,10.3729579 929.615385,13.1462983 933.242061,13.1462983 C937.295404,13.1462983 939.428743,10.3729579 939.428743,7.17294976 C939.428743,4.1862755 937.295404,1.41293511 933.242061,1.41293511 L933.242061,1.41293511 Z M937.08207,47.0663845 L929.828719,47.0663845 L929.828719,158 L937.08207,158 L937.08207,47.0663845 Z M1021.77562,44.7197119 C994.255549,44.7197119 975.908836,67.1197689 975.908836,103.173194 C975.908836,139.439953 994.468883,160.133339 1022.20229,160.133339 C1034.36232,160.133339 1044.60234,155.653327 1052.4957,148.613309 L1048.44235,143.493296 C1041.189,149.679979 1032.86898,153.519989 1021.77562,153.519989 C999.80223,153.519989 983.588855,136.666612 983.588855,103.173194 C983.588855,68.8264399 1000.01556,51.5463959 1021.98895,51.5463959 C1032.86898,51.5463959 1040.549,54.5330702 1047.37568,60.5064187 L1051.42903,55.5997396 C1042.469,47.9197201 1033.93565,44.7197119 1021.77562,44.7197119 L1021.77562,44.7197119 Z" id="Phenomic"></path>
                    <path d="M1116.16662,170.666631 L1186.66648,24.5002604 L1171.99984,17.6669409 L1101.33332,163.999978 L1116.16662,170.666631 Z M1216.16642,52.8335363 L1207.49977,66.6668416 L1264.49965,100.833439 L1207.49977,135.333369 L1216.66642,148.666675 L1280.66629,108.833423 L1280.66629,92.6667889 L1216.16642,52.8335363 Z" id="/&gt;"></path>
                </g>
                <g id="overlay" transform="translate(45.000000, 5.000000)" fill="#FFFFFF">
                    <path d="M64.9998419,46.8335363 L0.499972642,86.6667889 L0.499972642,102.833423 L64.4998429,142.666675 L73.666491,129.166703 L16.4999402,94.8334391 L73.666491,60.333509 L64.9998419,46.8335363 Z" id="&lt;-copy"></path>
                    <path d="M179.533477,12.5062967 L148.386731,12.5062967 L148.386731,158 L155.853417,158 L155.853417,99.1198503 L178.466808,99.1198503 C209.613554,99.1198503 231.586943,87.1731532 231.586943,54.959738 C231.586943,25.0929953 212.600228,12.5062967 179.533477,12.5062967 L179.533477,12.5062967 Z M179.106809,92.2931662 L155.853417,92.2931662 L155.853417,19.1196468 L179.533477,19.1196468 C207.906883,19.1196468 223.693589,28.5063373 223.693589,55.1730718 C223.693589,83.5464773 205.133542,92.2931662 179.106809,92.2931662 L179.106809,92.2931662 Z M313.933819,44.7197119 C296.867109,44.7197119 284.28041,54.1064025 274.467052,67.7597705 L274.467052,0.132931857 L267.2137,1.41293511 L267.2137,158 L274.467052,158 L274.467052,76.5064594 C284.707078,61.5730881 296.227107,51.1197282 313.293817,51.1197282 C328.86719,51.1197282 336.760544,60.7197526 336.760544,79.9198014 L336.760544,158 L344.013895,158 L344.013895,78.8531321 C344.013895,57.7330783 333.773869,44.7197119 313.933819,44.7197119 L313.933819,44.7197119 Z M466.46754,97.6265131 C466.46754,65.8397656 452.814172,44.7197119 424.867434,44.7197119 C398.840701,44.7197119 381.773991,67.1197689 381.773991,103.386528 C381.773991,139.226619 399.480703,160.133339 427.427441,160.133339 C441.720811,160.133339 452.17417,155.22666 461.987529,146.906638 L458.147519,141.786625 C448.334161,149.253311 440.227473,153.519989 427.427441,153.519989 C406.307387,153.519989 390.734014,139.013285 389.454011,106.159868 L466.040872,106.159868 C466.254206,104.239863 466.46754,100.826521 466.46754,97.6265131 L466.46754,97.6265131 Z M459.214188,99.9731858 L389.454011,99.9731858 C390.307346,66.0530995 406.307387,51.3330621 425.294102,51.3330621 C448.760828,51.3330621 459.214188,69.2531076 459.214188,95.0665066 L459.214188,99.9731858 Z M551.161089,44.7197119 C533.881045,44.7197119 521.081012,54.1064025 511.480988,67.7597705 L510.627652,47.0663845 L504.44097,47.0663845 L504.44097,158 L511.694322,158 L511.694322,76.5064594 C521.934348,61.5730881 533.454377,51.1197282 550.521087,51.1197282 C566.09446,51.1197282 573.987814,60.2930849 573.987814,79.9198014 L573.987814,158 L581.241165,158 L581.241165,78.8531321 C581.241165,57.3064106 571.214473,44.7197119 551.161089,44.7197119 L551.161089,44.7197119 Z M664.441377,44.7197119 C636.921307,44.7197119 619.001261,66.0530995 619.001261,102.746526 C619.001261,138.586617 636.067971,160.133339 664.228043,160.133339 C691.748113,160.133339 709.454825,138.799951 709.454825,102.106525 C709.454825,64.9864301 692.174781,44.7197119 664.441377,44.7197119 L664.441377,44.7197119 Z M664.441377,51.3330621 C687.908103,51.3330621 701.988139,69.0397738 701.988139,102.106525 C701.988139,135.813277 687.268102,153.519989 664.228043,153.519989 C640.761317,153.519989 626.681281,135.386609 626.681281,102.746526 C626.681281,68.8264399 641.401318,51.3330621 664.441377,51.3330621 L664.441377,51.3330621 Z M854.308526,44.7197119 C839.801823,44.7197119 827.00179,54.5330702 818.041768,68.613106 C815.268427,53.4664008 805.668403,44.7197119 790.948365,44.7197119 C776.86833,44.7197119 764.281631,54.1064025 755.534942,67.5464366 L754.681606,47.0663845 L748.494924,47.0663845 L748.494924,158 L755.748276,158 L755.748276,76.5064594 C764.708299,61.5730881 776.228328,51.1197282 790.521698,51.1197282 C804.175066,51.1197282 811.641751,60.7197526 811.641751,79.9198014 L811.641751,158 L818.895103,158 L818.895103,76.5064594 C828.06846,61.5730881 839.375155,51.1197282 853.881859,51.1197282 C867.321893,51.1197282 875.001912,60.7197526 875.001912,79.9198014 L875.001912,158 L882.255264,158 L882.255264,78.8531321 C882.255264,57.7330783 872.015238,44.7197119 854.308526,44.7197119 L854.308526,44.7197119 Z M933.242061,1.41293511 C929.615385,1.41293511 927.268712,4.1862755 927.268712,7.17294976 C927.268712,10.3729579 929.615385,13.1462983 933.242061,13.1462983 C937.295404,13.1462983 939.428743,10.3729579 939.428743,7.17294976 C939.428743,4.1862755 937.295404,1.41293511 933.242061,1.41293511 L933.242061,1.41293511 Z M937.08207,47.0663845 L929.828719,47.0663845 L929.828719,158 L937.08207,158 L937.08207,47.0663845 Z M1021.77562,44.7197119 C994.255549,44.7197119 975.908836,67.1197689 975.908836,103.173194 C975.908836,139.439953 994.468883,160.133339 1022.20229,160.133339 C1034.36232,160.133339 1044.60234,155.653327 1052.4957,148.613309 L1048.44235,143.493296 C1041.189,149.679979 1032.86898,153.519989 1021.77562,153.519989 C999.80223,153.519989 983.588855,136.666612 983.588855,103.173194 C983.588855,68.8264399 1000.01556,51.5463959 1021.98895,51.5463959 C1032.86898,51.5463959 1040.549,54.5330702 1047.37568,60.5064187 L1051.42903,55.5997396 C1042.469,47.9197201 1033.93565,44.7197119 1021.77562,44.7197119 L1021.77562,44.7197119 Z" id="Phenomic-Copy"></path>
                    <path d="M1116.16662,170.666631 L1186.66648,24.5002604 L1171.99984,17.6669409 L1101.33332,163.999978 L1116.16662,170.666631 Z M1216.16642,52.8335363 L1207.49977,66.6668416 L1264.49965,100.833439 L1207.49977,135.333369 L1216.66642,148.666675 L1280.66629,108.833423 L1280.66629,92.6667889 L1216.16642,52.8335363 Z" id="/&gt;-copy"></path>
                </g>
            </g>
        </g>
    </g>
</svg>