<?xml version="1.0" encoding="UTF-8" standalone="no"?>
<svg width="1281px" height="173px" viewBox="0 0 1281 173" version="1.1" xmlns="http://www.w3.org/2000/svg" xmlns:xlink="http://www.w3.org/1999/xlink">
    <!-- Generator: Sketch 3.6.1 (26313) - http://www.bohemiancoding.com/sketch -->
    <title>phenomic-text-color</title>
    <desc>Created with Sketch.</desc>
    <defs>
        <linearGradient x1="50%" y1="-12.2523981%" x2="53.2484382%" y2="115.6224%" id="linearGradient-1">
            <stop stop-color="#006BF6" offset="0%"></stop>
            <stop stop-color="#10E951" offset="100%"></stop>
        </linearGradient>
    </defs>
    <g id="Phenomic" stroke="none" stroke-width="1" fill="none" fill-rule="evenodd">
        <g id="logo-with-text-on-white" transform="translate(-43.000000, -10.000000)" fill="url(#linearGradient-1)">
            <path d="M107.999842,56.8335363 L43.4999726,96.6667889 L43.4999726,112.833423 L107.499843,152.666675 L116.666491,139.166703 L59.4999402,104.833439 L116.666491,70.333509 L107.999842,56.8335363 Z" id="&lt;"></path>
            <path d="M222.533477,22.5062967 L191.386731,22.5062967 L191.386731,168 L198.853417,168 L198.853417,109.11985 L221.466808,109.11985 C252.613554,109.11985 274.586943,97.1731532 274.586943,64.959738 C274.586943,35.0929953 255.600228,22.5062967 222.533477,22.5062967 L222.533477,22.5062967 Z M222.106809,102.293166 L198.853417,102.293166 L198.853417,29.1196468 L222.533477,29.1196468 C250.906883,29.1196468 266.693589,38.5063373 266.693589,65.1730718 C266.693589,93.5464773 248.133542,102.293166 222.106809,102.293166 L222.106809,102.293166 Z M356.933819,54.7197119 C339.867109,54.7197119 327.28041,64.1064025 317.467052,77.7597705 L317.467052,10.1329319 L310.2137,11.4129351 L310.2137,168 L317.467052,168 L317.467052,86.5064594 C327.707078,71.5730881 339.227107,61.1197282 356.293817,61.1197282 C371.86719,61.1197282 379.760544,70.7197526 379.760544,89.9198014 L379.760544,168 L387.013895,168 L387.013895,88.8531321 C387.013895,67.7330783 376.773869,54.7197119 356.933819,54.7197119 L356.933819,54.7197119 Z M509.46754,107.626513 C509.46754,75.8397656 495.814172,54.7197119 467.867434,54.7197119 C441.840701,54.7197119 424.773991,77.1197689 424.773991,113.386528 C424.773991,149.226619 442.480703,170.133339 470.427441,170.133339 C484.720811,170.133339 495.17417,165.22666 504.987529,156.906638 L501.147519,151.786625 C491.334161,159.253311 483.227473,163.519989 470.427441,163.519989 C449.307387,163.519989 433.734014,149.013285 432.454011,116.159868 L509.040872,116.159868 C509.254206,114.239863 509.46754,110.826521 509.46754,107.626513 L509.46754,107.626513 Z M502.214188,109.973186 L432.454011,109.973186 C433.307346,76.0530995 449.307387,61.3330621 468.294102,61.3330621 C491.760828,61.3330621 502.214188,79.2531076 502.214188,105.066507 L502.214188,109.973186 Z M594.161089,54.7197119 C576.881045,54.7197119 564.081012,64.1064025 554.480988,77.7597705 L553.627652,57.0663845 L547.44097,57.0663845 L547.44097,168 L554.694322,168 L554.694322,86.5064594 C564.934348,71.5730881 576.454377,61.1197282 593.521087,61.1197282 C609.09446,61.1197282 616.987814,70.2930849 616.987814,89.9198014 L616.987814,168 L624.241165,168 L624.241165,88.8531321 C624.241165,67.3064106 614.214473,54.7197119 594.161089,54.7197119 L594.161089,54.7197119 Z M707.441377,54.7197119 C679.921307,54.7197119 662.001261,76.0530995 662.001261,112.746526 C662.001261,148.586617 679.067971,170.133339 707.228043,170.133339 C734.748113,170.133339 752.454825,148.799951 752.454825,112.106525 C752.454825,74.9864301 735.174781,54.7197119 707.441377,54.7197119 L707.441377,54.7197119 Z M707.441377,61.3330621 C730.908103,61.3330621 744.988139,79.0397738 744.988139,112.106525 C744.988139,145.813277 730.268102,163.519989 707.228043,163.519989 C683.761317,163.519989 669.681281,145.386609 669.681281,112.746526 C669.681281,78.8264399 684.401318,61.3330621 707.441377,61.3330621 L707.441377,61.3330621 Z M897.308526,54.7197119 C882.801823,54.7197119 870.00179,64.5330702 861.041768,78.613106 C858.268427,63.4664008 848.668403,54.7197119 833.948365,54.7197119 C819.86833,54.7197119 807.281631,64.1064025 798.534942,77.5464366 L797.681606,57.0663845 L791.494924,57.0663845 L791.494924,168 L798.748276,168 L798.748276,86.5064594 C807.708299,71.5730881 819.228328,61.1197282 833.521698,61.1197282 C847.175066,61.1197282 854.641751,70.7197526 854.641751,89.9198014 L854.641751,168 L861.895103,168 L861.895103,86.5064594 C871.06846,71.5730881 882.375155,61.1197282 896.881859,61.1197282 C910.321893,61.1197282 918.001912,70.7197526 918.001912,89.9198014 L918.001912,168 L925.255264,168 L925.255264,88.8531321 C925.255264,67.7330783 915.015238,54.7197119 897.308526,54.7197119 L897.308526,54.7197119 Z M976.242061,11.4129351 C972.615385,11.4129351 970.268712,14.1862755 970.268712,17.1729498 C970.268712,20.3729579 972.615385,23.1462983 976.242061,23.1462983 C980.295404,23.1462983 982.428743,20.3729579 982.428743,17.1729498 C982.428743,14.1862755 980.295404,11.4129351 976.242061,11.4129351 L976.242061,11.4129351 Z M980.08207,57.0663845 L972.828719,57.0663845 L972.828719,168 L980.08207,168 L980.08207,57.0663845 Z M1064.77562,54.7197119 C1037.25555,54.7197119 1018.90884,77.1197689 1018.90884,113.173194 C1018.90884,149.439953 1037.46888,170.133339 1065.20229,170.133339 C1077.36232,170.133339 1087.60234,165.653327 1095.4957,158.613309 L1091.44235,153.493296 C1084.189,159.679979 1075.86898,163.519989 1064.77562,163.519989 C1042.80223,163.519989 1026.58886,146.666612 1026.58886,113.173194 C1026.58886,78.8264399 1043.01556,61.5463959 1064.98895,61.5463959 C1075.86898,61.5463959 1083.549,64.5330702 1090.37568,70.5064187 L1094.42903,65.5997396 C1085.469,57.9197201 1076.93565,54.7197119 1064.77562,54.7197119 L1064.77562,54.7197119 Z" id="Phenomic"></path>
            <path d="M1159.16662,182.666631 L1229.66648,36.5002604 L1214.99984,29.6669409 L1144.33332,175.999978 L1159.16662,182.666631 Z M1259.16642,64.8335363 L1250.49977,78.6668416 L1307.49965,112.833439 L1250.49977,147.333369 L1259.66642,160.666675 L1323.66629,120.833423 L1323.66629,104.666789 L1259.16642,64.8335363 Z" id="/&gt;"></path>
        </g>
    </g>
</svg>