<?xml version="1.0" encoding="UTF-8" standalone="no"?>
<svg width="995px" height="251px" viewBox="0 0 995 251" version="1.1" xmlns="http://www.w3.org/2000/svg" xmlns:xlink="http://www.w3.org/1999/xlink">
    <!-- Generator: Sketch 3.8.1 (29687) - http://www.bohemiancoding.com/sketch -->
    <title>phenomic-white</title>
    <desc>Created with Sketch.</desc>
    <defs>
        <linearGradient x1="0%" y1="16.2178725%" x2="100%" y2="86.7227746%" id="linearGradient-1">
            <stop stop-color="#006BF6" offset="0%"></stop>
            <stop stop-color="#10E951" offset="100%"></stop>
        </linearGradient>
        <rect id="path-2" x="0" y="0" width="2048" height="512"></rect>
        <mask id="mask-3" maskContentUnits="userSpaceOnUse" maskUnits="objectBoundingBox" x="0" y="0" width="2048" height="512" fill="white">
            <use xlink:href="#path-2"></use>
        </mask>
        <linearGradient x1="50%" y1="0%" x2="50%" y2="100%" id="linearGradient-4">
            <stop stop-color="#FFFFFF" offset="0%"></stop>
            <stop stop-color="#DEECF1" offset="100%"></stop>
        </linearGradient>
        <path d="M89.1386675,218.397156 L8.68984212,171.892309 C3.33074144,168.837701 0.0280398551,163.102519 0.0280398551,156.930965 L0.0280398551,63.9212718 C0.0280398551,57.7497172 3.33074144,52.014535 8.68984212,48.9599272 L89.1386675,2.45508076 C94.4977682,-0.599527108 101.103171,-0.599527108 106.399957,2.45508076 L186.848782,48.9599272 C192.207883,52.014535 195.510585,57.7497172 195.510585,63.9212718 L195.510585,156.868626 C195.510585,163.04018 192.207883,168.775362 186.848782,171.82997 L106.399957,218.334817 C103.782722,219.89329 100.791596,220.703696 97.8004698,220.703696 C94.8093438,220.703696 91.8182178,219.955629 89.1386675,218.397156 Z M10.9955017,53.011958 L13.3634764,57.0639889 C10.9331866,58.4977844 9.37530849,61.1160197 9.37530849,63.9212718 L9.37530849,156.868626 C9.37530849,159.673878 10.8708715,162.354452 13.3634764,163.725909 L93.8123018,210.230755 C96.2425917,211.664551 99.2960327,211.664551 101.726323,210.230755 L182.175148,163.725909 C184.605438,162.292113 186.163316,159.673878 186.163316,156.868626 L186.163316,63.9212718 C186.163316,61.1160197 184.667753,58.4354454 182.175148,57.0639889 L101.726323,10.5591425 C99.2960327,9.12534693 96.2425917,9.12534693 93.8123018,10.5591425 L13.3011613,57.0639889 L10.9955017,53.011958 L10.9955017,53.011958 Z" id="path-5"></path>
        <filter x="-50%" y="-50%" width="200%" height="200%" filterUnits="objectBoundingBox" id="filter-6">
            <feOffset dx="0" dy="2" in="SourceAlpha" result="shadowOffsetOuter1"></feOffset>
            <feGaussianBlur stdDeviation="3" in="shadowOffsetOuter1" result="shadowBlurOuter1"></feGaussianBlur>
            <feColorMatrix values="0 0 0 0 0   0 0 0 0 0   0 0 0 0 0  0 0 0 0.35 0" type="matrix" in="shadowBlurOuter1"></feColorMatrix>
        </filter>
        <filter x="-50%" y="-50%" width="200%" height="200%" filterUnits="objectBoundingBox" id="filter-7">
            <feGaussianBlur stdDeviation="2" in="SourceAlpha" result="shadowBlurInner1"></feGaussianBlur>
            <feOffset dx="0" dy="2" in="shadowBlurInner1" result="shadowOffsetInner1"></feOffset>
            <feComposite in="shadowOffsetInner1" in2="SourceAlpha" operator="arithmetic" k2="-1" k3="1" result="shadowInnerInner1"></feComposite>
            <feColorMatrix values="0 0 0 0 1   0 0 0 0 1   0 0 0 0 1  0 0 0 1 0" type="matrix" in="shadowInnerInner1"></feColorMatrix>
        </filter>
        <path d="M97.8004698,180.05871 C95.8687009,180.05871 93.8746169,179.559998 92.1297935,178.562575 L41.6545428,149.450292 C38.1648959,147.455446 35.9838665,143.652771 35.9838665,139.60074 L35.9838665,81.313835 C35.9838665,77.2618042 38.1648959,73.521468 41.6545428,71.4642831 L92.1297935,42.3519999 C95.6194404,40.357154 99.9814991,40.357154 103.471146,42.3519999 L153.946397,71.4642831 C157.436044,73.4591291 159.617073,77.2618042 159.617073,81.313835 L159.617073,139.60074 C159.617073,143.652771 157.436044,147.393107 153.946397,149.450292 L103.471146,178.562575 C101.726323,179.559998 99.7322386,180.05871 97.8004698,180.05871 L97.8004698,180.05871 Z M97.8004698,169.461707 C96.1628179,169.461707 94.4723385,169.038926 92.9931691,168.193363 L50.2029104,143.513503 C47.2445715,141.822378 45.3956097,138.59867 45.3956097,135.163572 L45.3956097,85.7510036 C45.3956097,82.3159053 47.2445715,79.1450453 50.2029104,77.4010724 L92.9931691,52.7212122 C95.951508,51.0300868 99.6494316,51.0300868 102.60777,52.7212122 L145.398029,77.4010724 C148.356368,79.0921977 150.20533,82.3159053 150.20533,85.7510036 L150.20533,135.163572 C150.20533,138.59867 148.356368,141.76953 145.398029,143.513503 L102.60777,168.193363 C101.128601,169.038926 99.4381216,169.461707 97.8004698,169.461707 L97.8004698,169.461707 Z" id="path-8"></path>
        <filter x="-50%" y="-50%" width="200%" height="200%" filterUnits="objectBoundingBox" id="filter-9">
            <feOffset dx="0" dy="2" in="SourceAlpha" result="shadowOffsetOuter1"></feOffset>
            <feGaussianBlur stdDeviation="3" in="shadowOffsetOuter1" result="shadowBlurOuter1"></feGaussianBlur>
            <feColorMatrix values="0 0 0 0 0   0 0 0 0 0   0 0 0 0 0  0 0 0 0.35 0" type="matrix" in="shadowBlurOuter1"></feColorMatrix>
        </filter>
        <filter x="-50%" y="-50%" width="200%" height="200%" filterUnits="objectBoundingBox" id="filter-10">
            <feGaussianBlur stdDeviation="2" in="SourceAlpha" result="shadowBlurInner1"></feGaussianBlur>
            <feOffset dx="0" dy="2" in="shadowBlurInner1" result="shadowOffsetInner1"></feOffset>
            <feComposite in="shadowOffsetInner1" in2="SourceAlpha" operator="arithmetic" k2="-1" k3="1" result="shadowInnerInner1"></feComposite>
            <feColorMatrix values="0 0 0 0 1   0 0 0 0 1   0 0 0 0 1  0 0 0 1 0" type="matrix" in="shadowInnerInner1"></feColorMatrix>
        </filter>
        <path d="M84.0288273,138.915012 C83.2187307,138.915012 82.4086341,138.727995 81.7231677,138.291623 C79.4798232,136.982505 78.7320417,134.114914 80.0406594,131.933051 L107.521629,84.3684429 C108.830247,82.1242412 111.696742,81.376174 113.877772,82.6852916 C116.121116,83.9944093 116.868898,86.8620003 115.56028,89.0438631 L88.0793104,136.546132 C87.2068986,138.042267 85.6490205,138.915012 84.0288273,138.915012 L84.0288273,138.915012 Z" id="path-11"></path>
        <filter x="-50%" y="-50%" width="200%" height="200%" filterUnits="objectBoundingBox" id="filter-12">
            <feOffset dx="0" dy="2" in="SourceAlpha" result="shadowOffsetOuter1"></feOffset>
            <feGaussianBlur stdDeviation="3" in="shadowOffsetOuter1" result="shadowBlurOuter1"></feGaussianBlur>
            <feColorMatrix values="0 0 0 0 0   0 0 0 0 0   0 0 0 0 0  0 0 0 0.35 0" type="matrix" in="shadowBlurOuter1"></feColorMatrix>
        </filter>
        <filter x="-50%" y="-50%" width="200%" height="200%" filterUnits="objectBoundingBox" id="filter-13">
            <feGaussianBlur stdDeviation="2" in="SourceAlpha" result="shadowBlurInner1"></feGaussianBlur>
            <feOffset dx="0" dy="2" in="shadowBlurInner1" result="shadowOffsetInner1"></feOffset>
            <feComposite in="shadowOffsetInner1" in2="SourceAlpha" operator="arithmetic" k2="-1" k3="1" result="shadowInnerInner1"></feComposite>
            <feColorMatrix values="0 0 0 0 1   0 0 0 0 1   0 0 0 0 1  0 0 0 1 0" type="matrix" in="shadowInnerInner1"></feColorMatrix>
        </filter>
        <path d="M870.852909,69.6520485 C877.11938,63.9780444 885.975991,63.1728979 894.027456,62.5652402 C903.96266,62.35256 914.148522,61.9727739 923.81028,64.7300208 C929.324774,66.2415695 934.330355,69.9862602 936.662241,75.3032653 C939.601786,81.9950961 939.761296,89.4920733 939.677743,96.6852217 C936.441965,96.6852217 933.213784,96.6928174 929.985602,96.6852217 C929.818496,89.6515835 930.243857,81.3874384 924.866086,76.0096675 C919.640229,71.3079158 912.120465,71.2623414 905.504591,70.8825554 C897.90887,70.9357254 890.062489,70.700258 882.793384,73.2144419 C876.519318,75.4247969 873.032881,81.8127988 871.901119,88.0336948 C869.895848,98.6373222 870.268039,109.5068 870.38957,120.24715 C870.807335,129.080974 870.814931,138.887051 876.450956,146.232114 C881.167899,152.164372 889.378874,152.711264 896.366938,153.03788 C904.889338,153.007498 913.852289,153.774665 921.873371,150.303421 C926.689059,148.115853 929.271604,143.019124 929.970411,137.98316 C930.600856,134.185299 930.570473,130.319077 930.570473,126.475642 C933.829037,126.490833 937.087602,126.483238 940.353762,126.490833 C940.353762,134.147321 940.148678,142.168403 936.844539,149.232424 C933.867016,155.483703 927.365078,159.258776 920.7568,160.519666 C912.211613,162.327448 903.438555,162.046406 894.764241,161.978045 C886.484904,161.431153 877.38523,160.755134 870.799739,155.103917 C864.60163,149.597019 862.482424,141.067023 861.54815,133.13709 C860.135346,120.763659 860.279665,108.253506 861.107598,95.8420966 C861.981106,86.5677205 863.652165,76.2831134 870.852909,69.6520485 Z M824.883602,23.006722 C828.126975,23.0143177 831.370348,22.9687434 834.613721,23.0447006 C834.514977,28.1718127 834.659296,33.2913291 834.530168,38.4184412 C831.309582,38.3728668 828.096592,38.395654 824.883602,38.395654 L824.883602,23.006722 Z M824.883602,63.6362369 C828.104188,63.6286412 831.317178,63.6438327 834.54536,63.6134498 C834.613721,96.0395854 834.59853,128.465721 834.552956,160.891857 C831.324774,160.869069 828.104188,160.884261 824.883602,160.876665 L824.883602,63.6362369 Z M674.609845,67.0467159 C681.347251,62.8083033 689.611396,62.4209215 697.34384,62.4133258 C705.144646,62.542453 713.71262,62.8614733 720.199367,67.7759052 C724.437779,70.8597682 725.873371,76.1463904 727.141856,80.962078 C729.329424,74.467736 733.628602,68.4519244 740.039391,65.5883374 C748.356707,62.0107525 757.65387,62.3069857 766.525673,62.5728359 C772.412357,63.0285792 778.724402,63.7653642 783.585664,67.426502 C787.269589,70.1533661 789.479944,74.4297574 790.535749,78.8124887 C792.328339,86.1423601 792.427083,93.7380817 792.419488,101.25025 C792.411892,121.128254 792.419488,140.998662 792.419488,160.876665 C789.13054,160.861474 785.856784,160.937431 782.583028,160.815899 C782.681773,140.702429 782.590624,120.588958 782.628603,100.475487 C782.461497,93.8899962 782.522263,87.1222082 780.44863,80.7949721 C779.104188,76.3666664 775.086051,73.1916547 770.688128,72.120658 C764.330509,70.6926623 757.714636,70.7078538 751.243081,71.2015757 C744.589229,71.5889575 737.50242,74.0803542 733.772921,79.9366555 C729.299041,87.1753782 729.17751,96.0167982 729.025595,104.258156 C728.942042,123.14112 729.078765,142.024084 728.957234,160.907048 C725.736648,160.861474 722.523657,160.884261 719.303071,160.876665 C719.28788,140.223898 719.333454,119.571131 719.280284,98.9183639 C718.930881,92.5379577 718.91569,85.899297 716.378719,79.9138684 C714.593724,75.5691156 710.317333,72.6979328 705.790283,71.8624034 C698.76424,70.6167051 691.525517,70.6243008 684.469092,71.5889575 C678.270983,72.3637211 671.981726,75.5615199 669.049777,81.3038854 C665.168363,88.5502039 665.137981,97.0270292 665.008853,105.03292 C665.001258,123.642438 664.993662,142.251956 665.016449,160.853878 C661.773076,160.891857 658.529703,160.891857 655.293925,160.853878 C655.309117,128.458125 655.316713,96.0623725 655.293925,63.6590241 C658.529703,63.6134498 661.76548,63.6210455 665.008853,63.6514284 C665.008853,68.900072 664.986066,74.1563114 665.016449,79.404955 C666.976145,74.4981189 670.014434,69.8495372 674.609845,67.0467159 Z" id="path-14"></path>
        <filter x="-50%" y="-50%" width="200%" height="200%" filterUnits="objectBoundingBox" id="filter-15">
            <feOffset dx="0" dy="2" in="SourceAlpha" result="shadowOffsetOuter1"></feOffset>
            <feGaussianBlur stdDeviation="3" in="shadowOffsetOuter1" result="shadowBlurOuter1"></feGaussianBlur>
            <feColorMatrix values="0 0 0 0 0   0 0 0 0 0   0 0 0 0 0  0 0 0 0.35 0" type="matrix" in="shadowBlurOuter1"></feColorMatrix>
        </filter>
        <filter x="-50%" y="-50%" width="200%" height="200%" filterUnits="objectBoundingBox" id="filter-16">
            <feGaussianBlur stdDeviation="2" in="SourceAlpha" result="shadowBlurInner1"></feGaussianBlur>
            <feOffset dx="0" dy="2" in="shadowBlurInner1" result="shadowOffsetInner1"></feOffset>
            <feComposite in="shadowOffsetInner1" in2="SourceAlpha" operator="arithmetic" k2="-1" k3="1" result="shadowInnerInner1"></feComposite>
            <feColorMatrix values="0 0 0 0 1   0 0 0 0 1   0 0 0 0 1  0 0 0 1 0" type="matrix" in="shadowInnerInner1"></feColorMatrix>
        </filter>
        <path d="M346.058039,71.2317423 C352.941493,66.3689152 361.697543,65.4363182 369.898475,65.4215151 C377.795943,65.4363182 386.01908,65.4289166 393.40584,68.5893842 C398.683154,70.9060735 402.287716,75.9465381 403.67921,81.4458996 C405.995899,90.2611615 405.581411,99.4539031 405.611018,108.48381 C405.618419,126.092129 405.588813,143.70785 405.625821,161.323571 C402.465353,161.382783 399.312287,161.353177 396.159221,161.353177 C396.137017,141.24313 396.196229,121.140484 396.129615,101.030436 C395.700324,94.5170604 396.092607,87.5299847 392.880329,81.6161356 C390.770883,77.6192914 386.374355,75.5172474 382.059243,74.9251224 C374.576263,73.8666988 366.952653,73.9037066 359.447467,74.6512645 C353.244957,75.2581927 346.709377,77.7747242 343.186233,83.1926686 C339.411436,89.1287223 338.789704,96.3970575 338.567657,103.258307 C338.471437,122.628198 338.612067,142.005491 338.493642,161.382783 C335.325773,161.338374 332.157904,161.360579 328.997436,161.353177 C328.990034,129.770706 328.990034,98.1808342 328.997436,66.5983636 C332.172707,66.5909621 335.347977,66.5909621 338.53065,66.5983636 C338.545453,71.7054423 338.523248,76.8051194 338.545453,81.9121981 C340.447654,77.9967711 342.342455,73.7852816 346.058039,71.2317423 Z M236.92939,70.3435547 C242.532374,66.6871824 249.386221,66.0728527 255.884794,65.5769479 C263.278955,65.3474995 270.724928,65.1624604 278.074681,66.2208839 C283.218767,66.8870246 288.518286,68.2859201 292.522532,71.7572533 C297.030084,75.5098459 299.265356,81.2460574 300.205355,86.8934502 C301.915116,95.8567434 301.27118,105.005076 301.500628,114.064589 C279.133104,114.316242 256.743375,114.101597 234.368449,114.175613 C234.398056,122.524576 234.398056,130.962358 236.12262,139.170692 C237.262461,144.485014 240.43033,149.680912 245.655833,151.782956 C253.634719,154.847203 262.35376,154.003425 270.724928,154.114448 C276.631376,153.810984 283.240972,153.352087 287.815138,149.147999 C292.840799,143.855881 292.722374,135.973216 292.729776,129.148975 C295.912448,129.156377 299.102522,129.12677 302.292596,129.163778 C302.211178,137.64597 302.011336,147.171782 296.1567,153.936811 C290.213244,160.672233 280.680031,161.826877 272.234847,162.35979 C263.20494,162.544829 254.049206,162.818687 245.174732,160.864674 C240.112062,159.724833 235.145613,157.245309 231.970343,153.026418 C228.817277,148.925952 227.218539,143.863283 226.389564,138.815417 C224.813031,129.259999 224.879645,119.541746 224.916653,109.890107 C225.123897,100.95642 225.323739,91.8673008 227.862475,83.2296764 C229.313182,78.0855899 232.362626,73.2449675 236.92939,70.3435547 Z M251.503068,74.4070129 C260.540377,73.3855972 269.770127,73.2745737 278.748223,74.8511067 C283.929317,75.7466959 288.577499,79.4104697 290.072615,84.5397531 C292.167257,91.5934429 291.937809,99.0690218 291.98962,106.359562 C272.782563,106.39657 253.568104,106.366963 234.353646,106.374365 C234.842149,98.5139046 234.472071,90.2759646 237.63994,82.896606 C240.075055,77.5674805 245.929691,74.9177208 251.503068,74.4070129 Z M122.101537,27.0148031 C125.254603,27 128.407669,27.0074016 131.560735,27.0074016 L131.560735,78.8035415 C131.553333,79.8545635 131.656955,80.9055855 131.81979,81.9492059 C133.670181,76.9087413 136.912065,72.1421346 141.819302,69.677414 C147.955198,66.4355293 155.008888,65.4437198 161.877538,65.4585229 C169.567763,65.3845073 177.465231,65.3474995 184.851991,67.7752122 C190.203321,69.5145796 194.370401,73.9851238 196.146776,79.26984 C198.382048,86.0052626 198.596694,93.1921806 198.737324,100.231067 C198.759528,120.600169 198.715119,140.96187 198.759528,161.330972 C195.569454,161.375382 192.386782,161.353177 189.196708,161.353177 C189.196708,141.24313 189.20411,121.133082 189.196708,101.015633 C189.078283,96.3674512 188.87104,91.6896632 188.064269,87.0932924 C187.353719,83.2296764 185.532935,79.3512572 182.209633,77.0789773 C178.878929,74.828902 174.76366,74.3996114 170.870438,74.0147301 C163.668717,73.4892191 156.370775,73.474416 149.24307,74.7770911 C143.432843,75.8503178 137.837261,79.2402338 135.172698,84.6581781 C131.812388,91.5564351 131.656955,99.4391 131.568137,106.959088 C131.545932,125.092918 131.560735,143.226748 131.560735,161.353177 C128.437275,161.360579 125.306414,161.323571 122.182954,161.397586 C122.005317,116.603325 122.168151,71.8090642 122.101537,27.0148031 Z M0.36062399,27.0074016 C16.2221741,27.0074016 32.0763227,27.0148031 47.9304713,27 C57.3230551,27.2812594 66.7896546,27.0888188 76.071215,28.7911783 C81.2967187,29.7755862 86.6480489,31.6925911 90.3192243,35.7042384 C93.7979591,39.338406 95.3004764,44.3566659 95.9962234,49.219493 C97.3803157,58.5454628 97.2100798,68.0120622 96.7437813,77.3972445 C96.1664593,83.7181796 95.3522874,90.4462006 91.4664666,95.693909 C88.1875741,100.327288 82.7696298,102.836418 77.4182995,104.190904 C70.6680738,105.797043 63.7032027,106.11531 56.7975441,106.381766 C41.3208753,106.411373 25.8368049,106.381766 10.360136,106.39657 C10.3823407,124.700636 10.3379313,143.004702 10.3897423,161.308768 C7.03683409,161.390185 3.69132747,161.375382 0.345820863,161.316169 C0.382828679,116.551514 0.353222426,71.779458 0.36062399,27.0074016 Z M10.3675376,35.7190416 C26.850819,35.7560494 43.3489036,35.5488056 59.8247835,35.9928994 C66.0865061,36.4443948 72.6738974,36.4517963 78.3953059,39.3680123 C82.2219141,41.2480094 84.8864769,45.0598144 85.7006488,49.2046899 C86.8774974,54.7928702 87.0107255,60.5438849 86.9589146,66.235687 C86.9811193,72.7638659 87.0773396,79.4178713 85.3971847,85.7832157 C84.2795487,89.8910834 81.0598686,93.2439915 77.0926307,94.7243042 C70.6680738,97.2556388 63.6291871,97.3296545 56.834552,97.6775279 C41.3282768,97.6553233 25.8220017,97.7589451 10.3231282,97.6183154 C10.4193485,76.9901585 10.3379313,56.3546 10.3675376,35.7190416 Z" id="path-17"></path>
        <filter x="-50%" y="-50%" width="200%" height="200%" filterUnits="objectBoundingBox" id="filter-18">
            <feOffset dx="0" dy="2" in="SourceAlpha" result="shadowOffsetOuter1"></feOffset>
            <feGaussianBlur stdDeviation="3" in="shadowOffsetOuter1" result="shadowBlurOuter1"></feGaussianBlur>
            <feColorMatrix values="0 0 0 0 0   0 0 0 0 0   0 0 0 0 0  0 0 0 0.35 0" type="matrix" in="shadowBlurOuter1"></feColorMatrix>
        </filter>
        <filter x="-50%" y="-50%" width="200%" height="200%" filterUnits="objectBoundingBox" id="filter-19">
            <feGaussianBlur stdDeviation="2" in="SourceAlpha" result="shadowBlurInner1"></feGaussianBlur>
            <feOffset dx="0" dy="2" in="shadowBlurInner1" result="shadowOffsetInner1"></feOffset>
            <feComposite in="shadowOffsetInner1" in2="SourceAlpha" operator="arithmetic" k2="-1" k3="1" result="shadowInnerInner1"></feComposite>
            <feColorMatrix values="0 0 0 0 1   0 0 0 0 1   0 0 0 0 1  0 0 0 1 0" type="matrix" in="shadowInnerInner1"></feColorMatrix>
        </filter>
    </defs>
    <g id="Phenomic" stroke="none" stroke-width="1" fill="none" fill-rule="evenodd">
        <g id="logo-with-text-on-background" transform="translate(-523.000000, -132.000000)">
            <use id="bg-cover-dark" stroke="#979797" mask="url(#mask-3)" stroke-width="2" fill="url(#linearGradient-1)" xlink:href="#path-2"></use>
            <g id="Phenomic-full-logo-with-path" transform="translate(552.000000, 146.000000)">
                <g id="Phenomic-Logo" transform="translate(432.459873, 0.432501)">
                    <polygon id="Shape" fill-opacity="0.02" fill="#000000" points="5.51177079 56.6899552 96.8034278 109.428695 188.40666 56.6899552 188.40666 163.289536 96.9903731 216.215293 4.32778343 162.603808"></polygon>
                    <g id="Shape">
                        <use fill="black" fill-opacity="1" filter="url(#filter-6)" xlink:href="#path-5"></use>
                        <use fill="url(#linearGradient-4)" fill-rule="evenodd" xlink:href="#path-5"></use>
                        <use fill="black" fill-opacity="1" filter="url(#filter-7)" xlink:href="#path-5"></use>
                    </g>
                    <g id="Shape">
                        <use fill="black" fill-opacity="1" filter="url(#filter-9)" xlink:href="#path-8"></use>
                        <use fill="url(#linearGradient-4)" fill-rule="evenodd" xlink:href="#path-8"></use>
                        <use fill="black" fill-opacity="1" filter="url(#filter-10)" xlink:href="#path-8"></use>
                    </g>
                    <g id="Shape">
                        <use fill="black" fill-opacity="1" filter="url(#filter-12)" xlink:href="#path-11"></use>
                        <use fill="url(#linearGradient-4)" fill-rule="evenodd" xlink:href="#path-11"></use>
                        <use fill="black" fill-opacity="1" filter="url(#filter-13)" xlink:href="#path-11"></use>
                    </g>
                </g>
                <g id="mic-copy">
                    <use fill="black" fill-opacity="1" filter="url(#filter-15)" xlink:href="#path-14"></use>
                    <use fill="url(#linearGradient-4)" fill-rule="evenodd" xlink:href="#path-14"></use>
                    <use fill="black" fill-opacity="1" filter="url(#filter-16)" xlink:href="#path-14"></use>
                </g>
                <g id="Pheno-Copy">
                    <use fill="black" fill-opacity="1" filter="url(#filter-18)" xlink:href="#path-17"></use>
                    <use fill="url(#linearGradient-4)" fill-rule="evenodd" xlink:href="#path-17"></use>
                    <use fill="black" fill-opacity="1" filter="url(#filter-19)" xlink:href="#path-17"></use>
                </g>
            </g>
        </g>
    </g>
</svg>