<?xml version="1.0" encoding="UTF-8" standalone="no"?>
<svg width="512px" height="512px" viewBox="0 0 512 512" version="1.1" xmlns="http://www.w3.org/2000/svg" xmlns:xlink="http://www.w3.org/1999/xlink">
    <!-- Generator: Sketch 3.6.1 (26313) - http://www.bohemiancoding.com/sketch -->
    <title>phenomic-logo</title>
    <desc>Created with Sketch.</desc>
    <defs>
        <linearGradient x1="17.4110007%" y1="0%" x2="84.6398827%" y2="100%" id="linearGradient-1">
            <stop stop-color="#006BF6" offset="0%"></stop>
            <stop stop-color="#10E951" offset="100%"></stop>
        </linearGradient>
    </defs>
    <g id="Phenomic" stroke="none" stroke-width="1" fill="none" fill-rule="evenodd">
        <g id="logo-on-background">
            <rect id="Rectangle-1" fill="url(#linearGradient-1)" x="0" y="0" width="512" height="512"></rect>
            <g id="logo" transform="translate(44.000000, 148.000000)">
                <g id="stroked" transform="translate(5.000000, 7.000000)" stroke-opacity="0.25" stroke="#000000" stroke-width="8">
                    <path d="M91.2098183,47 L0,102.008836 L0,124.334597 L90.5027655,179.343433 L103.465401,160.700271 L22.6256914,113.286798 L103.465401,65.6431618 L91.2098183,47 Z" id="&lt;"></path>
                    <path d="M202.04488,0 L158,0 L158,200.923567 L168.558704,200.923567 L168.558704,119.61139 L200.536494,119.61139 C244.581375,119.61139 275.654133,103.113267 275.654133,58.6272578 C275.654133,17.3819508 248.804856,0 202.04488,0 L202.04488,0 Z M201.441526,110.183892 L168.558704,110.183892 L168.558704,9.1328894 L202.04488,9.1328894 C242.167956,9.1328894 264.492074,22.0957002 264.492074,58.9218671 C264.492074,98.1049088 238.246152,110.183892 201.441526,110.183892 L201.441526,110.183892 Z" id="P"></path>
                    <path d="M323.255583,47 L311,66.1034868 L391.604025,113.286798 L311,160.930433 L323.962636,179.343433 L414.465401,124.334597 L414.465401,102.008836 L323.255583,47 Z" id="&gt;"></path>
                </g>
                <g id="overlay" transform="translate(5.000000, 7.000000)" fill="#FFFFFF">
                    <path d="M91.2098183,47 L0,102.008836 L0,124.334597 L90.5027655,179.343433 L103.465401,160.700271 L22.6256914,113.286798 L103.465401,65.6431618 L91.2098183,47 Z" id="&lt;"></path>
                    <path d="M202.04488,0 L158,0 L158,200.923567 L168.558704,200.923567 L168.558704,119.61139 L200.536494,119.61139 C244.581375,119.61139 275.654133,103.113267 275.654133,58.6272578 C275.654133,17.3819508 248.804856,0 202.04488,0 L202.04488,0 Z M201.441526,110.183892 L168.558704,110.183892 L168.558704,9.1328894 L202.04488,9.1328894 C242.167956,9.1328894 264.492074,22.0957002 264.492074,58.9218671 C264.492074,98.1049088 238.246152,110.183892 201.441526,110.183892 L201.441526,110.183892 Z" id="P"></path>
                    <path d="M323.255583,47 L311,66.1034868 L391.604025,113.286798 L311,160.930433 L323.962636,179.343433 L414.465401,124.334597 L414.465401,102.008836 L323.255583,47 Z" id="&gt;"></path>
                </g>
            </g>
        </g>
    </g>
</svg>