<?xml version="1.0" encoding="UTF-8"?>
<svg width="1257px" height="208px" viewBox="0 0 1257 208" version="1.1" xmlns="http://www.w3.org/2000/svg" xmlns:xlink="http://www.w3.org/1999/xlink">
    <!-- Generator: Sketch 49.2 (51160) - http://www.bohemiancoding.com/sketch -->
    <title>phenomic-text</title>
    <desc>Created with Sketch.</desc>
    <defs></defs>
    <g id="Phenomic" stroke="none" stroke-width="1" fill="none" fill-rule="evenodd">
        <g id="logo-+-text-on-background" transform="translate(-545.000000, -103.000000)" fill="#FFFFFF">
            <g id="Group-3" transform="translate(100.000000, 103.000000)">
                <g id="phenomic-text" transform="translate(445.000000, 0.000000)">
                    <g id="Phenomic">
                        <path d="M1152.78844,69.8437838 C1162.17329,61.3643243 1175.43719,60.1610811 1187.49529,59.252973 C1202.37453,58.9351351 1217.62917,58.3675676 1232.09889,62.4881081 C1240.35755,64.747027 1247.85405,70.3432432 1251.34634,78.2891892 C1255.74869,88.2897297 1255.98757,99.4935135 1255.86244,110.243243 C1251.01645,110.243243 1246.18184,110.254595 1241.34722,110.243243 C1241.09696,99.7318919 1241.73399,87.3816216 1233.68009,79.3448649 C1225.8537,72.3183784 1214.59189,72.2502703 1204.68377,71.6827027 C1193.30821,71.7621622 1181.55725,71.4102703 1170.67083,75.1675676 C1161.27462,78.4708108 1156.05323,88.0172973 1154.35827,97.3140541 C1151.35512,113.160541 1151.91252,129.404324 1152.09453,145.455135 C1152.72019,158.656757 1152.73157,173.311351 1161.17224,184.288108 C1168.23646,193.153514 1180.53345,193.970811 1190.99897,194.458919 C1203.76235,194.413514 1217.18552,195.56 1229.19812,190.372432 C1236.41023,187.103243 1240.27792,179.486486 1241.32447,171.960541 C1242.26864,166.284865 1242.22314,160.507027 1242.22314,154.763243 C1247.10326,154.785946 1251.98338,154.774595 1256.87487,154.785946 C1256.87487,166.228108 1256.56773,178.215135 1251.61936,188.771892 C1247.16014,198.114054 1237.42265,203.755676 1227.52591,205.64 C1214.7284,208.341622 1201.58962,207.921622 1188.59872,207.819459 C1176.19936,207.002162 1162.57143,205.991892 1152.70881,197.546486 C1143.42635,189.316757 1140.25257,176.569189 1138.85338,164.718378 C1136.73752,146.227027 1136.95366,127.531351 1138.19359,108.983243 C1139.50178,95.1232432 1142.00441,79.7535135 1152.78844,69.8437838 Z M1083.94352,0.135135135 C1088.80089,0.146486486 1093.65825,0.0783783784 1098.51562,0.191891892 C1098.36774,7.85405405 1098.58387,15.5048649 1098.39049,23.167027 C1093.56725,23.0989189 1088.75538,23.132973 1083.94352,23.132973 L1083.94352,0.135135135 Z M1083.94352,60.8535135 C1088.76676,60.8421622 1093.57862,60.8648649 1098.41324,60.8194595 C1098.51562,109.278378 1098.49287,157.737297 1098.42462,206.196216 C1093.59,206.162162 1088.76676,206.184865 1083.94352,206.173514 L1083.94352,60.8535135 Z M858.88933,65.9502703 C868.979457,59.6162162 881.356072,59.0372973 892.936398,59.0259459 C904.619104,59.2189189 917.450742,59.6956757 927.165475,67.04 C933.513041,71.6486486 935.663023,79.5491892 937.562742,86.7459459 C940.838905,77.0405405 947.277475,68.0502703 956.878452,63.7708108 C969.334697,58.4243243 983.258389,58.867027 996.54505,59.2643243 C1005.36111,59.9454054 1014.81421,61.0464865 1022.09457,66.5178378 C1027.61172,70.592973 1030.92201,76.9837838 1032.50321,83.5335135 C1035.18785,94.4875676 1035.33573,105.838919 1035.32435,117.065405 C1035.31298,146.771892 1035.32435,176.467027 1035.32435,206.173514 C1030.39873,206.150811 1025.49586,206.264324 1020.593,206.082703 C1020.74088,176.024324 1020.60437,145.965946 1020.66125,115.907568 C1020.41099,106.065946 1020.50199,95.9518919 1017.39646,86.4962162 C1015.38299,79.8783784 1009.36531,75.1335135 1002.77886,73.532973 C993.257511,71.3989189 983.349394,71.4216216 973.657412,72.1594595 C963.692416,72.7383784 953.079014,76.4616216 947.493611,85.2135135 C940.793403,96.0313514 940.611394,109.244324 940.383882,121.560541 C940.258751,149.78 940.463511,177.999459 940.281502,206.218919 C935.458262,206.150811 930.646398,206.184865 925.823158,206.173514 C925.800407,175.309189 925.868661,144.444865 925.789032,113.580541 C925.265756,104.045405 925.243005,94.1243243 921.443566,85.1794595 C918.770308,78.6864865 912.365864,74.3956757 905.586027,73.147027 C895.063629,71.2854054 884.222715,71.2967568 873.654814,72.7383784 C864.372353,73.8962162 854.953385,78.6751351 850.562416,87.2567568 C844.749502,98.0859459 844.704,110.754054 844.510615,122.718378 C844.49924,150.529189 844.487864,178.34 844.521991,206.139459 C839.664624,206.196216 834.807258,206.196216 829.961267,206.139459 C829.984018,157.725946 829.995394,109.312432 829.961267,60.8875676 C834.807258,60.8194595 839.653249,60.8308108 844.510615,60.8762162 C844.510615,68.72 844.476489,76.5751351 844.521991,84.4189189 C847.456887,77.0859459 852.007113,70.1389189 858.88933,65.9502703 Z" id="mic"></path>
                        <path d="M705.978977,60.0021622 C721.279113,58.5718919 736.829511,58.447027 752.050018,60.8194595 C761.127719,62.3178378 770.38743,65.9048649 776.291348,73.2491892 C782.718543,81.0816216 785.198416,91.2297297 786.620362,101.037297 C788.793095,117.667027 788.554208,134.501081 787.996805,151.232973 C786.916127,166.069189 785.710317,182.301622 775.790824,194.243243 C766.36048,205.276757 750.866959,206.831892 737.307285,207.728649 C723.212959,208.023784 708.868371,208.398378 695.081186,205.004324 C688.096588,203.301622 681.453258,199.748649 676.732398,194.254595 C671.317629,187.863784 668.530615,179.724865 666.881158,171.631351 C664.310281,157.396757 664.071394,142.88973 664.276154,128.473514 C664.264778,116.588649 665.00419,104.635676 667.347557,92.9664865 C669.634045,83.4881081 673.774751,73.6351351 682.033412,67.8572973 C688.93838,62.7264865 697.629312,61.0464865 705.978977,60.0021622 Z M709.368896,72.5681081 C703.157837,73.3627027 696.707891,74.6908108 691.623014,78.572973 C685.559837,82.9318919 682.636317,90.2648649 681.168869,97.3254054 C678.962009,108.688108 678.98476,120.300541 678.848253,131.833514 C678.939258,144.138378 678.802751,156.534054 680.975484,168.691351 C682.420181,176.058378 685.275448,183.822703 691.623014,188.374595 C698.778244,193.70973 708.083457,194.402162 716.69476,195.015135 C728.673231,195.060541 740.93609,195.866486 752.607421,192.495135 C758.693348,190.792432 764.176371,186.728649 767.202271,181.132432 C772.776299,170.995676 772.821801,159.031351 773.527086,147.782162 C773.709095,133.025405 774.118615,118.200541 772.344027,103.523243 C771.354353,95.372973 769.284,86.7686486 763.380081,80.707027 C758.158697,75.2810811 750.468814,73.4875676 743.256706,72.5794595 C732.006271,71.3648649 720.61933,71.3762162 709.368896,72.5681081 Z" id="Combined-Shape"></path>
                        <path d="M532.148959,67.9594595 C542.728235,60.5016216 556.185529,59.0713514 568.789656,59.0486486 C580.927385,59.0713514 593.565638,59.06 604.918452,63.907027 C613.029231,67.46 618.569131,75.1902703 620.707738,83.6243243 C624.26829,97.1437838 623.631258,111.242162 623.67676,125.090811 C623.688136,152.095676 623.642633,179.111892 623.699511,206.128108 C618.842145,206.218919 613.996154,206.173514 609.150163,206.173514 C609.116036,175.331892 609.207041,144.501622 609.104661,113.66 C608.444878,103.670811 609.047783,92.9551351 604.110787,83.8854054 C600.868751,77.7556757 594.111665,74.5318919 587.47971,73.6237838 C575.979014,72.0005405 564.262181,72.0572973 552.727357,73.2037838 C543.194633,74.1345946 533.150009,77.9940541 527.73524,86.3032432 C521.933701,95.407027 520.978154,106.554054 520.636887,117.076757 C520.489005,146.783243 520.70514,176.501081 520.523131,206.218919 C515.654389,206.150811 510.785647,206.184865 505.928281,206.173514 C505.916905,157.737297 505.916905,109.28973 505.928281,60.8535135 C510.808398,60.8421622 515.688516,60.8421622 520.580009,60.8535135 C520.60276,68.6859459 520.568633,76.507027 520.60276,84.3394595 C523.526281,78.3345946 526.438425,71.8756757 532.148959,67.9594595 Z M364.42762,66.5972973 C373.038923,60.9897297 383.572697,60.0475676 393.560443,59.287027 C404.924633,58.9351351 416.368452,58.6513514 427.664389,60.2745946 C435.570407,61.2962162 443.715312,63.4416216 449.869493,68.7654054 C456.797213,74.5205405 460.232633,83.3178378 461.67733,91.9789189 C464.305086,105.725405 463.315412,119.755676 463.668054,133.64973 C429.291095,134.035676 394.880009,133.706486 360.491674,133.82 C360.537176,146.624324 360.537176,159.564865 363.187683,172.153514 C364.93952,180.303784 369.808262,188.272432 377.839412,191.496216 C390.102271,196.195676 403.502688,194.901622 416.368452,195.071892 C425.446154,194.606486 435.604534,193.902703 442.634633,187.455135 C450.358643,179.338919 450.176633,167.24973 450.188009,156.783784 C455.079502,156.795135 459.982371,156.74973 464.88524,156.806486 C464.760109,169.815135 464.452968,184.424324 455.454896,194.799459 C446.320317,205.129189 431.668588,206.9 418.689068,207.717297 C404.810878,208.001081 390.739303,208.421081 377.1,205.424324 C369.319113,203.676216 361.686109,199.873514 356.805991,193.403243 C351.96,187.114595 349.502878,179.35027 348.228814,171.608649 C345.805819,156.954054 345.908199,142.04973 345.965077,127.247568 C346.283593,113.546486 346.590733,99.607027 350.492552,86.36 C352.722163,78.4708108 357.408896,71.047027 364.42762,66.5972973 Z M386.826109,72.8291892 C378.260308,73.6124324 369.262235,77.6762162 365.519674,85.8491892 C360.650932,97.1664865 361.21971,109.800541 360.468923,121.855676 C389.999891,121.844324 419.53086,121.88973 449.050452,121.832973 C448.970824,110.651892 449.323466,99.187027 446.104181,88.3691892 C443.806317,80.5027027 436.662462,74.8837838 428.699566,73.5102703 C414.901005,71.0924324 400.715674,71.2627027 386.826109,72.8291892 Z M187.947095,0.146486486 C192.793086,0.123783784 197.639077,0.135135135 202.485068,0.135135135 L202.485068,79.5718919 C202.473692,81.1837838 202.63295,82.7956757 202.883213,84.3962162 C205.727104,76.6659459 210.709602,69.3556757 218.251602,65.5756757 C227.681946,60.6037838 238.52286,59.0827027 249.079385,59.1054054 C260.898597,58.9918919 273.036326,58.9351351 284.38914,62.6583784 C292.613674,65.3259459 299.018118,72.1821622 301.748253,80.287027 C305.183674,90.6167568 305.513566,101.638919 305.729701,112.434054 C305.763828,143.672973 305.695575,174.900541 305.763828,206.139459 C300.860959,206.207568 295.969466,206.173514 291.066597,206.173514 C291.066597,175.331892 291.077973,144.49027 291.066597,113.637297 C290.884588,106.508649 290.566072,99.3345946 289.326136,92.2854054 C288.234081,86.36 285.435692,80.4118919 280.328063,76.927027 C275.209059,73.4762162 268.884244,72.8178378 262.900697,72.2275676 C251.832271,71.4216216 240.615964,71.3989189 229.661294,73.3967568 C220.731475,75.0427027 212.131548,80.2416216 208.036344,88.5508108 C202.871837,99.1302703 202.63295,111.219459 202.496443,122.752432 C202.462317,150.563243 202.485068,178.374054 202.485068,206.173514 C197.684579,206.184865 192.872715,206.128108 188.072226,206.241622 C187.799213,137.543243 188.049475,68.8448649 187.947095,0.146486486 Z M0.841791855,0.135135135 C25.219629,0.135135135 49.5860905,0.146486486 73.952552,0.123783784 C88.3881448,0.555135135 102.937493,0.26 117.202452,2.87081081 C125.233602,4.38054054 133.458136,7.32054054 139.100416,13.472973 C144.446932,19.0464865 146.756172,26.7427027 147.825475,34.2005405 C149.952706,48.5032432 149.691068,63.0216216 148.974407,77.4151351 C148.087113,87.1091892 146.835801,97.4275676 140.863629,105.475676 C135.824253,112.581622 127.497339,116.42973 119.272805,118.507027 C108.89829,120.97027 98.1938824,121.458378 87.5804796,121.867027 C63.7941719,121.912432 39.9964887,121.867027 16.210181,121.88973 C16.2443077,149.961622 16.1760543,178.033514 16.2556833,206.105405 C11.102552,206.23027 5.96079638,206.207568 0.819040724,206.116757 C0.875918552,137.463784 0.83041629,68.7994595 0.841791855,0.135135135 Z M16.2215566,13.4956757 C16.1760543,45.1432432 16.3011855,76.7908108 16.1533032,108.427027 C39.9737376,108.642703 63.8055475,108.483784 87.6373575,108.517838 C98.0801267,107.984324 108.89829,107.870811 118.772281,103.988649 C124.869584,101.718378 129.817955,96.5762162 131.535665,90.2762162 C134.117919,80.5140541 133.970036,70.3091892 133.93591,60.2972973 C134.015538,51.5681081 133.810778,42.7481081 132.002063,34.1778378 C130.750751,27.8210811 126.655548,21.9751351 120.77438,19.0918919 C111.981068,14.6194595 101.856814,14.6081081 92.233086,13.9156757 C66.9110769,13.2345946 41.5549412,13.5524324 16.2215566,13.4956757 Z" id="Phen"></path>
                    </g>
                </g>
            </g>
        </g>
    </g>
</svg>