<?xml version="1.0" encoding="UTF-8" standalone="no"?>
<svg width="391px" height="210px" viewBox="0 0 391 210" version="1.1" xmlns="http://www.w3.org/2000/svg" xmlns:xlink="http://www.w3.org/1999/xlink">
    <!-- Generator: Sketch 3.6.1 (26313) - http://www.bohemiancoding.com/sketch -->
    <title>phenomic-logo-color</title>
    <desc>Created with Sketch.</desc>
    <defs>
        <linearGradient x1="50%" y1="-12.2523981%" x2="53.2484382%" y2="115.6224%" id="linearGradient-1">
            <stop stop-color="#006BF6" offset="0%"></stop>
            <stop stop-color="#10E951" offset="100%"></stop>
        </linearGradient>
    </defs>
    <g id="Phenomic" stroke="none" stroke-width="1" fill="none" fill-rule="evenodd">
        <g id="logo-on-white" transform="translate(-17.000000, -3.000000)">
            <g id="stroked" transform="translate(17.000000, 3.000000)" fill="#FFFFFF">
                <path d="M86.1034621,49 L0,106.205481 L0,129.422768 L85.4359934,186.628249 L97.6729195,167.240618 L21.3589983,117.933801 L97.6729195,68.3876317 L86.1034621,49 Z" id="&lt;"></path>
                <path d="M190.57904,0 L149,0 L149,208.946966 L158.967578,208.946966 L158.967578,124.387783 L189.1551,124.387783 C230.73414,124.387783 260.067299,107.230848 260.067299,60.9683963 C260.067299,18.0760572 234.721172,0 190.57904,0 L190.57904,0 Z M190.009464,114.58382 L158.967578,114.58382 L158.967578,9.49758938 L190.57904,9.49758938 C228.455837,9.49758938 249.530145,22.9780388 249.530145,61.2747702 C249.530145,102.022492 224.753594,114.58382 190.009464,114.58382 L190.009464,114.58382 Z" id="P"></path>
                <path d="M304.569457,49 L293,68.8663386 L369.091432,117.933801 L293,167.479971 L305.236926,186.628249 L390.672919,129.422768 L390.672919,106.205481 L304.569457,49 Z" id="&gt;"></path>
            </g>
            <g id="overlay" transform="translate(17.000000, 4.000000)" fill="url(#linearGradient-1)">
                <path d="M86.1034621,49 L0,106.205481 L0,129.422768 L85.4359934,186.628249 L97.6729195,167.240618 L21.3589983,117.933801 L97.6729195,68.3876317 L86.1034621,49 Z" id="&lt;"></path>
                <path d="M190.57904,0 L149,0 L149,208.946966 L158.967578,208.946966 L158.967578,124.387783 L189.1551,124.387783 C230.73414,124.387783 260.067299,107.230848 260.067299,60.9683963 C260.067299,18.0760572 234.721172,0 190.57904,0 L190.57904,0 Z M190.009464,114.58382 L158.967578,114.58382 L158.967578,9.49758938 L190.57904,9.49758938 C228.455837,9.49758938 249.530145,22.9780388 249.530145,61.2747702 C249.530145,102.022492 224.753594,114.58382 190.009464,114.58382 L190.009464,114.58382 Z" id="P"></path>
                <path d="M304.569457,49 L293,68.8663386 L369.091432,117.933801 L293,167.479971 L305.236926,186.628249 L390.672919,129.422768 L390.672919,106.205481 L304.569457,49 Z" id="&gt;"></path>
            </g>
        </g>
    </g>
</svg>