<?xml version="1.0" encoding="UTF-8" standalone="no"?>
<svg width="414px" height="204px" viewBox="0 0 414 204" version="1.1" xmlns="http://www.w3.org/2000/svg" xmlns:xlink="http://www.w3.org/1999/xlink" xmlns:sketch="http://www.bohemiancoding.com/sketch/ns">
    <!-- Generator: Sketch 3.4.4 (17249) - http://www.bohemiancoding.com/sketch -->
    <title>statinamic-logo-color</title>
    <desc>Created with Sketch.</desc>
    <defs>
        <linearGradient x1="41.5873845%" y1="-29.5307995%" x2="84.6747364%" y2="134.345701%" id="linearGradient-1">
            <stop stop-color="#5295F0" offset="0%"></stop>
            <stop stop-color="#42A837" offset="100%"></stop>
        </linearGradient>
        <linearGradient x1="21.5577983%" y1="0%" x2="78.2173245%" y2="107.709584%" id="linearGradient-2">
            <stop stop-color="#5295F0" offset="0%"></stop>
            <stop stop-color="#42A837" offset="100%"></stop>
        </linearGradient>
        <linearGradient x1="19.4636141%" y1="-31.0066543%" x2="74.302062%" y2="132.949112%" id="linearGradient-3">
            <stop stop-color="#5295F0" offset="0%"></stop>
            <stop stop-color="#42A837" offset="100%"></stop>
        </linearGradient>
    </defs>
    <g id="Logo-(paths)" stroke="none" stroke-width="1" fill="none" fill-rule="evenodd" sketch:type="MSPage">
        <g id="Group-Copy" sketch:type="MSLayerGroup" transform="translate(-5.000000, -6.000000)" stroke="#000000">
            <path d="M91.7240225,42.4267516 L6.21888796,95.5667713 L6.21888796,120.277974 L91.2866561,173.19931 L107.031847,148.488108 L35.9598043,107.813031 L107.031847,66.2632213 L91.7240225,42.4267516 Z" id="&lt;" stroke-opacity="0.899767889" fill="url(#linearGradient-1)" sketch:type="MSShapeGroup"></path>
            <path d="M213.433121,7.56420422 C181.33121,7.56420422 160.407643,27.0546501 160.407643,52.5642042 C160.407643,78.6470068 174.165605,90.6852233 213.719745,103.010064 C250.121019,114.475032 264.738854,125.080128 264.738854,153.742548 C264.738854,183.264841 243.242038,202.182039 211.140127,202.182039 C186.490446,202.182039 171.299363,193.583313 157.254777,180.685223 L152.955414,184.984586 C168.433121,199.029172 185.630573,208.487771 211.426752,208.487771 C246.681529,208.487771 271.044586,186.131083 271.044586,153.455924 C271.044586,121.640637 254.133758,109.029172 216.012739,97.27758 C179.898089,86.0992361 167,76.3540131 167,52.5642042 C167,29.9208921 185.057325,13.5833125 213.433121,13.5833125 C233.783439,13.5833125 247.254777,19.6024208 260.726115,32.2138858 L265.025478,27.3412743 C251.267516,15.3030577 237.22293,7.56420422 213.433121,7.56420422 L213.433121,7.56420422 Z" id="Statinamic" stroke-opacity="0.24963202" fill="url(#linearGradient-2)" sketch:type="MSShapeGroup"></path>
            <path d="M332.275977,42.4267516 L316.968153,67.3566374 L387.821512,107.813031 L316.968153,149.581524 L332.494661,173.19931 L417.781112,120.277974 L417.781112,95.3480881 L332.275977,42.4267516 Z" id="/&gt;" stroke-opacity="0.899767889" fill="url(#linearGradient-3)" sketch:type="MSShapeGroup"></path>
        </g>
    </g>
</svg>