<?xml version="1.0" encoding="UTF-8" standalone="no"?>
<svg width="1652px" height="237px" viewBox="0 0 1652 237" version="1.1" xmlns="http://www.w3.org/2000/svg" xmlns:xlink="http://www.w3.org/1999/xlink" xmlns:sketch="http://www.bohemiancoding.com/sketch/ns">
    <!-- Generator: Sketch 3.4.2 (15855) - http://www.bohemiancoding.com/sketch -->
    <title>statinamic</title>
    <desc>Created with Sketch.</desc>
    <defs></defs>
    <g id="Page-1" stroke="none" stroke-width="1" fill="none" fill-rule="evenodd" sketch:type="MSPage">
        <g id="statinamic" sketch:type="MSLayerGroup">
            <path d="M199.414062,139.679688 C200.507818,147.570352 202.656234,153.46873 205.859375,157.375 C211.718779,164.484411 221.757741,168.039062 235.976562,168.039062 C244.49223,168.039062 251.406223,167.101572 256.71875,165.226562 C266.796925,161.632795 271.835938,154.953174 271.835938,145.1875 C271.835938,139.484346 269.335962,135.070328 264.335938,131.945312 C259.335913,128.898422 251.484429,126.203137 240.78125,123.859375 L222.5,119.757812 C204.53116,115.695292 192.109409,111.281274 185.234375,106.515625 C173.593692,98.5468352 167.773438,86.0860223 167.773438,69.1328125 C167.773438,53.6639852 173.398381,40.8125512 184.648438,30.578125 C195.898494,20.3436988 212.421766,15.2265625 234.21875,15.2265625 C252.421966,15.2265625 267.949154,20.050733 280.800781,29.6992188 C293.652408,39.3477045 300.390622,53.3514707 301.015625,71.7109375 L266.328125,71.7109375 C265.703122,61.3202605 261.171917,53.9375219 252.734375,49.5625 C247.109347,46.6718605 240.117229,45.2265625 231.757812,45.2265625 C222.460891,45.2265625 215.03909,47.1015438 209.492188,50.8515625 C203.945285,54.6015812 201.171875,59.8359039 201.171875,66.5546875 C201.171875,72.7265934 203.906223,77.3359223 209.375,80.3828125 C212.890643,82.4140727 220.390568,84.7968613 231.875,87.53125 L261.640625,94.6796875 C274.687565,97.8047031 284.531217,101.984349 291.171875,107.21875 C301.484427,115.343791 306.640625,127.101486 306.640625,142.492188 C306.640625,158.273516 300.605529,171.378854 288.535156,181.808594 C276.464783,192.238333 259.414173,197.453125 237.382812,197.453125 C214.8827,197.453125 197.187564,192.316458 184.296875,182.042969 C171.406186,171.76948 164.960938,157.648527 164.960938,139.679688 L199.414062,139.679688 Z M317.539062,90.2265625 L317.539062,66.4375 L335.351562,66.4375 L335.351562,30.8125 L368.398438,30.8125 L368.398438,66.4375 L389.140625,66.4375 L389.140625,90.2265625 L368.398438,90.2265625 L368.398438,157.726562 C368.398438,162.960964 369.062493,166.22265 370.390625,167.511719 C371.718757,168.800788 375.781216,169.445312 382.578125,169.445312 C383.593755,169.445312 384.667963,169.425781 385.800781,169.386719 C386.933599,169.347656 388.04687,169.289063 389.140625,169.210938 L389.140625,194.171875 L373.320312,194.757812 C357.538984,195.30469 346.757841,192.570343 340.976562,186.554688 C337.226544,182.726543 335.351562,176.828165 335.351562,168.859375 L335.351562,90.2265625 L317.539062,90.2265625 Z M481.015625,130.890625 C478.906239,132.218757 476.777354,133.292965 474.628906,134.113281 C472.480458,134.933598 469.531269,135.695309 465.78125,136.398438 L458.28125,137.804688 C451.249965,139.054694 446.210953,140.578116 443.164062,142.375 C438.007787,145.42189 435.429688,150.148405 435.429688,156.554688 C435.429688,162.257841 437.011703,166.378894 440.175781,168.917969 C443.33986,171.457044 447.187477,172.726562 451.71875,172.726562 C458.906286,172.726562 465.527313,170.617209 471.582031,166.398438 C477.636749,162.179666 480.781249,154.484431 481.015625,143.3125 L481.015625,130.890625 Z M460.742188,115.304688 C466.914093,114.523434 471.328112,113.546881 473.984375,112.375 C478.750024,110.34374 481.132812,107.179709 481.132812,102.882812 C481.132812,97.6484113 479.316424,94.0351662 475.683594,92.0429688 C472.050763,90.0507713 466.718785,89.0546875 459.6875,89.0546875 C451.796836,89.0546875 446.210954,91.007793 442.929688,94.9140625 C440.585926,97.804702 439.023441,101.710913 438.242188,106.632812 L406.015625,106.632812 C406.718754,95.4608816 409.843722,86.2812859 415.390625,79.09375 C424.218794,67.8436937 439.374893,62.21875 460.859375,62.21875 C474.84382,62.21875 487.265571,64.9921598 498.125,70.5390625 C508.984429,76.0859652 514.414062,86.5546105 514.414062,101.945312 L514.414062,160.539062 C514.414062,164.601583 514.492187,169.523409 514.648438,175.304688 C514.882814,179.679709 515.54687,182.64843 516.640625,184.210938 C517.73438,185.773445 519.374989,187.062495 521.5625,188.078125 L521.5625,193 L485.234375,193 C484.218745,190.421862 483.515627,188.000011 483.125,185.734375 C482.734373,183.468739 482.421876,180.890639 482.1875,178 C477.578102,183.000025 472.265655,187.257795 466.25,190.773438 C459.062464,194.914083 450.937545,196.984375 441.875,196.984375 C430.312442,196.984375 420.761756,193.683627 413.222656,187.082031 C405.683556,180.480436 401.914062,171.125061 401.914062,159.015625 C401.914062,143.312421 407.968689,131.945348 420.078125,124.914062 C426.718783,121.085918 436.484311,118.351571 449.375,116.710938 L460.742188,115.304688 Z M530.9375,90.2265625 L530.9375,66.4375 L548.75,66.4375 L548.75,30.8125 L581.796875,30.8125 L581.796875,66.4375 L602.539062,66.4375 L602.539062,90.2265625 L581.796875,90.2265625 L581.796875,157.726562 C581.796875,162.960964 582.460931,166.22265 583.789062,167.511719 C585.117194,168.800788 589.179654,169.445312 595.976562,169.445312 C596.992193,169.445312 598.066401,169.425781 599.199219,169.386719 C600.332037,169.347656 601.445307,169.289063 602.539062,169.210938 L602.539062,194.171875 L586.71875,194.757812 C570.937421,195.30469 560.156279,192.570343 554.375,186.554688 C550.624981,182.726543 548.75,176.828165 548.75,168.859375 L548.75,90.2265625 L530.9375,90.2265625 Z M658.320312,50.03125 L624.453125,50.03125 L624.453125,19.2109375 L658.320312,19.2109375 L658.320312,50.03125 Z M624.453125,65.265625 L658.320312,65.265625 L658.320312,193 L624.453125,193 L624.453125,65.265625 Z M793.847656,72.5898438 C802.246136,79.5039408 806.445312,90.9686699 806.445312,106.984375 L806.445312,193 L772.226562,193 L772.226562,115.304688 C772.226562,108.585904 771.328134,103.429705 769.53125,99.8359375 C766.249984,93.2734047 760.000046,89.9921875 750.78125,89.9921875 C739.453068,89.9921875 731.679709,94.796827 727.460938,104.40625 C725.273427,109.4844 724.179688,115.968711 724.179688,123.859375 L724.179688,193 L690.898438,193 L690.898438,65.5 L723.125,65.5 L723.125,84.1328125 C727.421896,77.5702797 731.484356,72.8437645 735.3125,69.953125 C742.187534,64.7968492 750.898385,62.21875 761.445312,62.21875 C774.648504,62.21875 785.449177,65.6757467 793.847656,72.5898438 L793.847656,72.5898438 Z M907.695312,130.890625 C905.585927,132.218757 903.457042,133.292965 901.308594,134.113281 C899.160146,134.933598 896.210956,135.695309 892.460938,136.398438 L884.960938,137.804688 C877.929652,139.054694 872.89064,140.578116 869.84375,142.375 C864.687474,145.42189 862.109375,150.148405 862.109375,156.554688 C862.109375,162.257841 863.69139,166.378894 866.855469,168.917969 C870.019547,171.457044 873.867165,172.726562 878.398438,172.726562 C885.585973,172.726562 892.207001,170.617209 898.261719,166.398438 C904.316437,162.179666 907.460936,154.484431 907.695312,143.3125 L907.695312,130.890625 Z M887.421875,115.304688 C893.593781,114.523434 898.007799,113.546881 900.664062,112.375 C905.429711,110.34374 907.8125,107.179709 907.8125,102.882812 C907.8125,97.6484113 905.996112,94.0351662 902.363281,92.0429688 C898.730451,90.0507713 893.398473,89.0546875 886.367188,89.0546875 C878.476523,89.0546875 872.890641,91.007793 869.609375,94.9140625 C867.265613,97.804702 865.703129,101.710913 864.921875,106.632812 L832.695312,106.632812 C833.398441,95.4608816 836.52341,86.2812859 842.070312,79.09375 C850.898482,67.8436937 866.05458,62.21875 887.539062,62.21875 C901.523507,62.21875 913.945258,64.9921598 924.804688,70.5390625 C935.664117,76.0859652 941.09375,86.5546105 941.09375,101.945312 L941.09375,160.539062 C941.09375,164.601583 941.171874,169.523409 941.328125,175.304688 C941.562501,179.679709 942.226557,182.64843 943.320312,184.210938 C944.414068,185.773445 946.054677,187.062495 948.242188,188.078125 L948.242188,193 L911.914062,193 C910.898432,190.421862 910.195314,188.000011 909.804688,185.734375 C909.414061,183.468739 909.101564,180.890639 908.867188,178 C904.257789,183.000025 898.945343,187.257795 892.929688,190.773438 C885.742152,194.914083 877.617233,196.984375 868.554688,196.984375 C856.99213,196.984375 847.441444,193.683627 839.902344,187.082031 C832.363244,180.480436 828.59375,171.125061 828.59375,159.015625 C828.59375,143.312421 834.648377,131.945348 846.757812,124.914062 C853.398471,121.085918 863.163998,118.351571 876.054688,116.710938 L887.421875,115.304688 Z M1130.11719,65.734375 C1135.58596,67.9218859 1140.54685,71.7499727 1145,77.21875 C1148.59377,81.6718973 1151.01562,87.1405926 1152.26562,93.625 C1153.04688,97.9218965 1153.4375,104.210896 1153.4375,112.492188 L1153.20312,193 L1118.98438,193 L1118.98438,111.671875 C1118.98438,106.828101 1118.20313,102.843766 1116.64062,99.71875 C1113.67186,93.7812203 1108.20316,90.8125 1100.23438,90.8125 C1091.01558,90.8125 1084.64846,94.6405867 1081.13281,102.296875 C1079.33593,106.359395 1078.4375,111.242159 1078.4375,116.945312 L1078.4375,193 L1044.80469,193 L1044.80469,116.945312 C1044.80469,109.36715 1044.02345,103.859392 1042.46094,100.421875 C1039.64842,94.2499691 1034.14067,91.1640625 1025.9375,91.1640625 C1016.4062,91.1640625 1010.00002,94.2499691 1006.71875,100.421875 C1004.92187,103.937518 1004.02344,109.17184 1004.02344,116.125 L1004.02344,193 L970.15625,193 L970.15625,65.5 L1002.61719,65.5 L1002.61719,84.1328125 C1006.75783,77.4921543 1010.66404,72.7656391 1014.33594,69.953125 C1020.82034,64.9531 1029.2187,62.453125 1039.53125,62.453125 C1049.29692,62.453125 1057.18747,64.601541 1063.20312,68.8984375 C1068.0469,72.8828324 1071.71874,77.9999687 1074.21875,84.25 C1078.59377,76.7499625 1084.02341,71.2422051 1090.50781,67.7265625 C1097.38285,64.2109199 1105.03902,62.453125 1113.47656,62.453125 C1119.10159,62.453125 1124.64841,63.5468641 1130.11719,65.734375 L1130.11719,65.734375 Z M1218.47656,50.03125 L1184.60938,50.03125 L1184.60938,19.2109375 L1218.47656,19.2109375 L1218.47656,50.03125 Z M1184.60938,65.265625 L1218.47656,65.265625 L1218.47656,193 L1184.60938,193 L1184.60938,65.265625 Z M1327.10938,111.085938 C1326.48437,106.320289 1324.88283,102.023457 1322.30469,98.1953125 C1318.55467,93.0390367 1312.73441,90.4609375 1304.84375,90.4609375 C1293.59369,90.4609375 1285.89846,96.0468191 1281.75781,107.21875 C1279.5703,113.15628 1278.47656,121.046826 1278.47656,130.890625 C1278.47656,140.265672 1279.5703,147.804659 1281.75781,153.507812 C1285.74221,164.132866 1293.24213,169.445312 1304.25781,169.445312 C1312.07035,169.445312 1317.61717,167.335959 1320.89844,163.117188 C1324.1797,158.898416 1326.17187,153.429721 1326.875,146.710938 L1360.97656,146.710938 C1360.19531,156.867238 1356.52347,166.476517 1349.96094,175.539062 C1339.49214,190.148511 1323.98448,197.453125 1303.4375,197.453125 C1282.89052,197.453125 1267.77349,191.359436 1258.08594,179.171875 C1248.39839,166.984314 1243.55469,151.16416 1243.55469,131.710938 C1243.55469,109.757703 1248.9062,92.6875609 1259.60938,80.5 C1270.31255,68.3124391 1285.07803,62.21875 1303.90625,62.21875 C1319.92196,62.21875 1333.02729,65.8124641 1343.22266,73 C1353.41802,80.1875359 1359.45312,92.8827215 1361.32812,111.085938 L1327.10938,111.085938 Z" id="Statinamic" fill="#371272" sketch:type="MSShapeGroup"></path>
            <path d="M1.13686838e-13,104.805 L116.97,39.069 L116.97,79.936 L48.86,117.949 L116.969,156.358 L116.969,197.12 L1.13686838e-13,131.385 L1.13686838e-13,104.805 L1.13686838e-13,104.805 L1.13686838e-13,104.805 Z" id="Statinamic-path" fill="#7340C4" sketch:type="MSShapeGroup"></path>
            <path d="M1651.969,134.386 L1535,200.121 L1535,159.359 L1603.109,120.95 L1535,82.936 L1535,42.069 L1651.969,107.806 L1651.969,134.386 L1651.969,134.386 L1651.969,134.386 Z" id="Statinamic-path" fill="#7340C4" sketch:type="MSShapeGroup"></path>
            <path d="M1471.826,0.069 L1511.5,0.069 L1421.452,236.88 L1382,236.88 L1471.826,0.069 L1471.826,0.069 L1471.826,0.069 Z" id="Statinamic-path" fill="#7340C4" sketch:type="MSShapeGroup"></path>
        </g>
    </g>
</svg>