<?xml version="1.0" encoding="UTF-8" standalone="no"?>
<svg width="1342px" height="174px" viewBox="0 0 1342 174" version="1.1" xmlns="http://www.w3.org/2000/svg" xmlns:xlink="http://www.w3.org/1999/xlink" xmlns:sketch="http://www.bohemiancoding.com/sketch/ns">
    <!-- Generator: Sketch 3.5.2 (25235) - http://www.bohemiancoding.com/sketch -->
    <title>statinamic-text-color</title>
    <desc>Created with Sketch.</desc>
    <defs>
        <linearGradient x1="50%" y1="-12.2523981%" x2="53.2484382%" y2="115.6224%" id="linearGradient-1">
            <stop stop-color="#006BF6" offset="0%"></stop>
            <stop stop-color="#10E951" offset="100%"></stop>
        </linearGradient>
    </defs>
    <g id="Phenomic" stroke="none" stroke-width="1" fill="none" fill-rule="evenodd" sketch:type="MSPage">
        <g id="logo-with-text-on-white" sketch:type="MSLayerGroup" transform="translate(-12.000000, -7.000000)" stroke="#000000" fill="url(#linearGradient-1)">
            <path d="M77.8331776,48.8335404 L12.666643,89.3334583 L12.666643,108.166753 L77.499845,148.500005 L89.4998206,129.66671 L35.3332638,98.6667727 L89.4998206,67.0001702 L77.8331776,48.8335404 Z" id="&lt;" stroke-opacity="0.898012908" sketch:type="MSShapeGroup"></path>
            <path d="M193.533477,15.5862918 C169.640083,15.5862918 154.06671,30.0929953 154.06671,49.0797103 C154.06671,68.493093 164.306736,77.4531158 193.746811,86.6264724 C220.840213,95.1598275 231.720241,103.053181 231.720241,124.386568 C231.720241,146.359958 215.7202,160.439993 191.826806,160.439993 C173.480093,160.439993 162.173397,154.039977 151.720037,144.439953 L148.520029,147.639961 C160.040059,158.093321 172.840091,165.133339 192.04014,165.133339 C218.280207,165.133339 236.413586,148.493296 236.413586,124.173235 C236.413586,100.493174 223.826887,91.1064838 195.453482,82.3597949 C168.573414,74.0397738 158.973389,66.786422 158.973389,49.0797103 C158.973389,32.2263341 172.413423,20.0663032 193.533477,20.0663032 C208.680182,20.0663032 218.706874,24.5463146 228.733567,33.9330051 L231.933575,30.3063292 C221.693549,21.3463064 211.240189,15.5862918 193.533477,15.5862918 L193.533477,15.5862918 Z M318.547128,154.106647 C313.213781,157.306655 307.240433,159.653327 299.560413,159.653327 C286.547047,159.653327 279.933697,151.759974 279.933697,136.826603 L279.933697,55.5463959 L309.800439,55.5463959 L310.653775,51.2797184 L279.933697,51.2797184 L279.933697,22.9063129 L275.240352,23.3329807 L275.240352,51.2797184 L256.893638,51.2797184 L256.893638,55.5463959 L275.240352,55.5463959 L275.240352,137.039937 C275.240352,154.959982 284.413708,164.133339 299.133746,164.133339 C308.093768,164.133339 314.920452,161.359998 320.680467,157.733322 L318.547128,154.106647 Z M407.934022,138.533274 L407.934022,82.6397982 C407.934022,60.8797428 398.333998,49.1463797 374.867272,49.1463797 C364.200578,49.1463797 354.173886,51.7063862 342.86719,56.3997314 L344.360527,60.4530751 C355.240555,55.9730637 365.053913,53.4130572 374.867272,53.4130572 C396.200659,53.4130572 403.240677,63.8664171 403.240677,83.0664659 L403.240677,96.2931662 L378.06728,96.2931662 C351.827213,96.2931662 334.547169,108.666531 334.547169,131.279922 C334.547169,150.906638 346.920534,164.133339 367.827254,164.133339 C384.467296,164.133339 395.987325,156.666653 403.880679,142.586617 C404.094013,155.813318 407.934022,161.359998 416.680711,164.133339 L417.960715,160.719997 C410.707363,158.15999 407.934022,153.253311 407.934022,138.533274 L407.934022,138.533274 Z M367.827254,159.653327 C350.333876,159.653327 339.667182,148.7733 339.667182,131.279922 C339.667182,111.013204 354.600553,100.559844 378.920615,100.559844 L403.240677,100.559844 L403.240677,136.826603 C395.773991,151.119972 385.107298,159.653327 367.827254,159.653327 L367.827254,159.653327 Z M500.307591,154.106647 C494.974244,157.306655 489.000895,159.653327 481.320876,159.653327 C468.307509,159.653327 461.694159,151.759974 461.694159,136.826603 L461.694159,55.5463959 L491.560902,55.5463959 L492.414237,51.2797184 L461.694159,51.2797184 L461.694159,22.9063129 L457.000814,23.3329807 L457.000814,51.2797184 L438.6541,51.2797184 L438.6541,55.5463959 L457.000814,55.5463959 L457.000814,137.039937 C457.000814,154.959982 466.17417,164.133339 480.894208,164.133339 C489.854231,164.133339 496.680915,161.359998 502.440929,157.733322 L500.307591,154.106647 Z M529.747665,7.54627387 C527.187659,7.54627387 525.480988,9.67961263 525.480988,11.8129514 C525.480988,13.9462901 527.187659,15.866295 529.747665,15.866295 C532.73434,15.866295 534.227677,13.9462901 534.227677,11.8129514 C534.227677,9.67961263 532.73434,7.54627387 529.747665,7.54627387 L529.747665,7.54627387 Z M532.094338,51.2797184 L527.400993,51.2797184 L527.400993,162 L532.094338,162 L532.094338,51.2797184 Z M627.667914,49.1463797 C609.961203,49.1463797 596.947836,58.959738 586.921144,73.8931093 L586.494476,51.2797184 L582.441133,51.2797184 L582.441133,162 L587.134478,162 L587.134478,80.0797917 C597.587838,64.079751 609.747869,53.4130572 627.667914,53.4130572 C644.521291,53.4130572 652.627978,63.6530832 652.627978,83.7064676 L652.627978,162 L657.321323,162 L657.321323,83.2797998 C657.321323,61.5197445 647.934633,49.1463797 627.667914,49.1463797 L627.667914,49.1463797 Z M768.681606,138.533274 L768.681606,82.6397982 C768.681606,60.8797428 759.081582,49.1463797 735.614856,49.1463797 C724.948162,49.1463797 714.92147,51.7063862 703.614774,56.3997314 L705.108111,60.4530751 C715.988139,55.9730637 725.801497,53.4130572 735.614856,53.4130572 C756.948243,53.4130572 763.988261,63.8664171 763.988261,83.0664659 L763.988261,96.2931662 L738.814864,96.2931662 C712.574797,96.2931662 695.294753,108.666531 695.294753,131.279922 C695.294753,150.906638 707.668118,164.133339 728.574838,164.133339 C745.21488,164.133339 756.734909,156.666653 764.628263,142.586617 C764.841597,155.813318 768.681606,161.359998 777.428295,164.133339 L778.708299,160.719997 C771.454947,158.15999 768.681606,153.253311 768.681606,138.533274 L768.681606,138.533274 Z M728.574838,159.653327 C711.08146,159.653327 700.414766,148.7733 700.414766,131.279922 C700.414766,111.013204 715.348137,100.559844 739.668199,100.559844 L763.988261,100.559844 L763.988261,136.826603 C756.521576,151.119972 745.854882,159.653327 728.574838,159.653327 L728.574838,159.653327 Z M923.135333,49.1463797 C908.201961,49.1463797 895.615263,59.1730718 886.65524,74.319777 C884.308567,58.5330702 875.135211,49.1463797 859.775171,49.1463797 C844.8418,49.1463797 832.468435,58.959738 823.508413,73.6797754 L823.081745,51.2797184 L819.028401,51.2797184 L819.028401,162 L823.721746,162 L823.721746,80.0797917 C832.895103,64.079751 844.628466,53.4130572 859.561838,53.4130572 C874.708543,53.4130572 882.388562,64.079751 882.388562,83.2797998 L882.388562,162 L887.081908,162 L887.081908,80.0797917 C896.255264,64.079751 907.988627,53.4130572 923.135333,53.4130572 C938.068704,53.4130572 945.962057,64.079751 945.962057,83.7064676 L945.962057,162 L950.655403,162 L950.655403,83.2797998 C950.655403,61.9464122 941.055378,49.1463797 923.135333,49.1463797 L923.135333,49.1463797 Z M1002.2822,7.54627387 C999.722194,7.54627387 998.015523,9.67961263 998.015523,11.8129514 C998.015523,13.9462901 999.722194,15.866295 1002.2822,15.866295 C1005.26887,15.866295 1006.76221,13.9462901 1006.76221,11.8129514 C1006.76221,9.67961263 1005.26887,7.54627387 1002.2822,7.54627387 L1002.2822,7.54627387 Z M1004.62887,51.2797184 L999.935528,51.2797184 L999.935528,162 L1004.62887,162 L1004.62887,51.2797184 Z M1090.17576,49.1463797 C1063.08236,49.1463797 1045.37564,71.1197689 1045.37564,107.173194 C1045.37564,143.439953 1063.72236,164.133339 1090.38909,164.133339 C1102.76246,164.133339 1112.36248,159.439993 1120.0425,152.613309 L1117.26916,149.413301 C1110.22914,155.599984 1101.69579,159.653327 1090.17576,159.653327 C1067.1357,159.653327 1050.28232,141.733282 1050.28232,107.173194 C1050.28232,72.3997721 1066.92236,53.4130572 1090.38909,53.4130572 C1101.26912,53.4130572 1109.16247,56.8263992 1116.20249,63.0130816 L1118.97583,59.8130735 C1110.65581,52.3463878 1102.12245,49.1463797 1090.17576,49.1463797 L1090.17576,49.1463797 Z" id="Phenomic" stroke-opacity="0.251924819" sketch:type="MSShapeGroup"></path>
            <path d="M1190.33328,179.666629 L1260.16647,34.33359 L1239.83318,24.8336093 L1169.83332,170.166648 L1190.33328,179.666629 Z M1288.33308,58.8335404 L1276.66644,77.8335019 L1330.66633,108.666773 L1276.66644,140.500042 L1288.49975,158.500005 L1353.49962,118.166753 L1353.49962,99.166792 L1288.33308,58.8335404 Z" id="/&gt;" stroke-opacity="0.898012908" sketch:type="MSShapeGroup"></path>
        </g>
    </g>
</svg>
