<?xml version="1.0" standalone="no"?>
<!DOCTYPE svg PUBLIC "-//W3C//DTD SVG 20010904//EN"
 "http://www.w3.org/TR/2001/REC-SVG-20010904/DTD/svg10.dtd">
<svg version="1.0" xmlns="http://www.w3.org/2000/svg"
 width="1236.000000pt" height="1236.000000pt" viewBox="0 0 1236.000000 1236.000000"
 preserveAspectRatio="xMidYMid meet">
<metadata>
Created by potrace 1.11, written by Peter Selinger 2001-2013
</metadata>
<g transform="translate(0.000000,1236.000000) scale(0.100000,-0.100000)"
fill="#000000" stroke="none">
<path d="M5965 12325 c-139 -32 -189 -56 -530 -254 -165 -95 -316 -182 -335
-193 -88 -50 -132 -76 -390 -225 -333 -193 -706 -408 -1355 -783 -269 -156
-688 -398 -930 -538 -242 -140 -458 -265 -480 -277 -22 -13 -80 -46 -130 -75
-49 -29 -108 -63 -130 -75 -22 -13 -134 -77 -249 -144 -115 -67 -210 -121
-212 -121 -11 0 -159 -107 -203 -146 -111 -100 -226 -285 -270 -434 -41 -138
-40 -42 -40 -2865 0 -2896 -2 -2754 50 -2914 43 -131 120 -260 218 -364 58
-62 148 -129 266 -199 104 -62 661 -383 735 -425 34 -20 356 -206 600 -348 69
-40 141 -81 160 -92 42 -24 757 -437 1165 -673 160 -92 306 -177 325 -188 19
-10 175 -100 345 -199 547 -318 959 -555 1005 -581 25 -13 50 -28 55 -32 6 -4
37 -22 70 -40 234 -126 488 -156 737 -85 102 29 159 58 488 249 135 78 427
247 650 375 223 129 417 242 432 252 15 11 29 19 32 19 3 0 56 30 118 66 62
37 127 75 145 85 17 10 134 77 260 150 125 72 334 192 463 267 129 74 273 157
320 185 47 27 101 59 120 70 41 23 306 176 335 194 11 7 26 15 34 19 8 4 80
45 160 92 80 46 164 95 186 107 512 294 1039 604 1079 634 202 156 336 386
369 634 10 72 12 677 11 2757 0 1466 -4 2683 -8 2705 -11 69 -15 86 -31 141
-9 30 -16 56 -16 59 -1 13 -74 154 -103 199 -58 88 -153 188 -241 251 -51 37
-510 306 -792 466 -48 27 -286 165 -648 374 -468 271 -848 490 -895 517 -25
14 -184 106 -355 205 -273 159 -1621 938 -1700 983 -16 9 -86 49 -153 88 -190
109 -338 151 -532 150 -73 0 -136 -7 -205 -23z m362 -523 c26 -10 237 -128
468 -262 231 -133 578 -334 770 -445 193 -112 366 -212 385 -223 19 -11 337
-194 705 -407 1269 -733 1700 -983 1735 -1003 196 -111 504 -291 537 -314 86
-58 164 -169 179 -253 2 -17 7 -38 10 -48 3 -9 5 -1209 5 -2665 0 -2894 4
-2697 -57 -2807 -16 -27 -53 -74 -82 -103 -47 -45 -82 -69 -185 -127 -131 -74
-372 -214 -407 -235 -25 -16 -68 -41 -95 -57 -48 -27 -224 -128 -323 -185 -26
-15 -62 -35 -79 -45 -18 -10 -144 -83 -280 -162 -137 -79 -329 -191 -428 -248
-99 -57 -187 -108 -195 -113 -8 -6 -26 -16 -40 -22 -14 -7 -48 -27 -77 -45
-29 -18 -54 -33 -57 -33 -3 0 -34 -17 -68 -38 -35 -21 -83 -50 -108 -64 -25
-14 -112 -64 -193 -112 -82 -47 -152 -86 -158 -86 -5 0 -9 -3 -9 -7 0 -5 -10
-13 -23 -19 -12 -5 -129 -72 -260 -148 -131 -75 -255 -146 -275 -158 -20 -11
-50 -29 -67 -39 -16 -10 -52 -31 -80 -46 -27 -15 -58 -32 -67 -38 -52 -31
-399 -232 -433 -250 -22 -12 -87 -50 -143 -83 -57 -34 -105 -62 -107 -62 -1 0
-44 -25 -94 -55 -51 -30 -94 -55 -96 -55 -2 0 -40 -22 -85 -50 -45 -27 -83
-50 -86 -50 -2 0 -22 -11 -44 -25 -71 -45 -171 -72 -253 -69 -96 3 -148 21
-275 95 -57 33 -117 68 -135 78 -36 20 -203 117 -227 131 -8 5 -71 41 -140 81
-286 165 -366 211 -380 219 -8 5 -95 55 -194 112 -98 57 -197 114 -220 127
-142 81 -182 105 -187 113 -3 6 -8 8 -10 7 -2 -2 -31 12 -64 31 -33 19 -72 42
-86 50 -64 36 -485 282 -499 290 -8 5 -55 32 -105 60 -49 28 -97 55 -105 60
-20 13 -258 150 -290 167 -14 8 -41 23 -60 34 -19 12 -87 51 -150 87 -63 37
-117 70 -118 74 -2 4 -8 8 -13 8 -7 0 -233 127 -357 201 -15 9 -43 25 -62 36
-33 19 -77 44 -328 189 -53 31 -117 68 -142 82 -25 13 -52 30 -60 36 -8 7 -28
18 -45 26 -16 8 -54 29 -83 47 -29 18 -55 33 -57 33 -3 0 -34 17 -68 39 -34
21 -114 68 -179 105 -173 100 -233 166 -275 303 -16 54 -17 152 -18 1298 0
846 3 1242 10 1247 6 5 6 8 0 8 -7 0 -10 474 -10 1418 1 1337 2 1420 19 1470
37 108 96 187 187 249 24 16 150 91 279 165 129 75 251 145 270 156 19 11 87
50 150 86 63 37 133 77 155 90 22 12 335 193 695 401 360 207 696 401 745 430
90 53 829 480 895 518 19 11 108 62 198 113 89 52 237 137 330 190 92 53 219
127 282 164 498 291 588 339 650 347 19 3 37 7 40 10 10 11 151 -7 197 -25z"/>
<path d="M6070 10064 c-84 -16 -162 -45 -234 -89 -32 -19 -60 -35 -61 -35 -1
0 -85 -48 -186 -106 -443 -256 -565 -326 -579 -335 -20 -12 -305 -176 -350
-201 -47 -27 -449 -259 -755 -436 -137 -80 -268 -155 -290 -167 -22 -13 -139
-80 -260 -150 -121 -70 -240 -139 -265 -153 -174 -98 -276 -215 -337 -387
l-28 -80 -1 -1712 c-1 -1033 2 -1733 8 -1765 28 -159 112 -300 236 -398 23
-18 46 -33 92 -60 19 -11 49 -29 65 -39 28 -17 53 -31 138 -79 179 -103 253
-147 259 -156 4 -6 8 -8 8 -4 0 4 64 -31 143 -76 78 -46 162 -94 187 -108 38
-21 385 -222 525 -304 22 -13 49 -28 60 -34 11 -5 38 -21 60 -34 22 -14 59
-35 83 -47 23 -13 42 -26 42 -31 0 -4 3 -7 8 -6 7 3 203 -107 284 -158 21 -13
39 -24 42 -24 2 0 66 -37 142 -81 77 -45 164 -95 194 -112 45 -25 133 -76 290
-167 359 -208 409 -230 555 -237 176 -9 245 17 625 236 107 62 213 123 235
136 142 81 342 196 355 205 8 6 25 14 37 19 11 6 24 15 28 21 3 5 11 8 16 5 5
-4 9 -2 9 3 0 4 19 18 43 31 23 12 56 30 72 40 28 17 216 125 278 160 16 9 36
21 46 26 15 9 267 155 301 175 8 5 40 23 70 41 30 17 71 41 90 52 19 10 101
57 181 103 80 46 150 84 156 84 6 0 13 4 15 8 2 5 55 38 118 74 63 36 161 93
218 127 57 34 105 61 107 61 2 0 55 30 117 67 239 143 350 304 374 543 3 36 5
74 4 85 -1 19 -2 74 -1 140 1 17 1 125 0 240 0 116 0 224 0 240 0 17 0 53 0
80 0 28 0 64 0 80 1 17 1 125 0 240 0 116 0 224 0 240 0 17 0 53 0 80 0 28 0
64 0 80 1 17 1 125 0 240 0 116 0 224 0 240 0 17 0 53 0 80 0 28 0 64 0 80 1
17 1 125 0 240 0 116 0 224 0 240 0 17 0 53 0 80 0 28 0 64 0 80 1 17 1 131 1
255 0 124 0 230 1 235 1 15 -11 125 -16 154 -28 153 -137 313 -275 404 -42 27
-1149 669 -1388 804 -23 13 -214 123 -425 245 -210 121 -398 230 -417 240 -19
11 -125 72 -235 136 -110 63 -213 123 -230 132 -16 9 -70 40 -120 69 -160 92
-314 124 -465 95z m247 -600 c75 -23 121 -47 453 -239 179 -103 345 -199 370
-212 25 -14 70 -40 100 -58 54 -32 742 -429 810 -468 77 -43 628 -361 673
-388 26 -16 49 -29 52 -29 18 0 152 -99 191 -143 44 -48 123 -177 108 -177 -4
0 -2 -6 4 -13 31 -36 33 -151 30 -1592 l-3 -1450 -23 -64 c-52 -145 -153 -254
-312 -338 -30 -16 -74 -41 -97 -56 -24 -15 -44 -27 -47 -27 -3 0 -93 -52 -156
-90 -71 -43 -174 -100 -181 -100 -5 0 -9 -4 -9 -10 0 -5 -5 -10 -11 -10 -6 0
-49 -23 -97 -51 -48 -29 -107 -63 -132 -77 -25 -14 -109 -63 -187 -109 -79
-45 -145 -83 -148 -83 -3 0 -18 -9 -33 -19 -15 -10 -166 -99 -337 -197 -170
-98 -394 -226 -497 -286 -104 -59 -190 -108 -192 -108 -3 0 -25 -13 -49 -30
-25 -16 -47 -30 -50 -30 -2 0 -31 -16 -63 -35 -176 -106 -359 -118 -536 -36
-64 29 -503 281 -525 300 -7 6 -19 11 -28 11 -8 0 -15 4 -15 9 0 5 -6 11 -13
13 -10 2 -284 158 -367 208 -56 34 -153 90 -155 90 -1 0 -70 39 -151 87 -236
137 -248 144 -266 150 -10 3 -18 9 -18 14 0 5 -4 9 -9 9 -5 0 -64 32 -132 71
-68 40 -144 83 -169 97 -25 13 -52 31 -61 38 -8 8 -18 14 -22 14 -12 0 -252
142 -259 153 -4 7 -8 9 -8 5 0 -4 -28 9 -62 28 -141 81 -203 119 -206 126 -2
5 -8 8 -14 8 -27 0 -135 133 -171 210 -49 107 -48 71 -45 1635 2 1190 5 1466
16 1495 8 19 16 42 20 50 3 8 6 17 7 20 9 29 30 58 38 53 6 -3 7 -1 4 4 -9 15
41 81 102 134 29 25 106 77 173 115 66 38 139 80 162 93 365 210 455 261 531
306 79 46 691 399 785 452 19 11 211 122 425 245 462 267 444 257 520 279 71
20 219 22 282 3z"/>
<path d="M6845 7749 c-70 -31 -113 -86 -228 -289 -31 -56 -386 -670 -560 -970
-88 -151 -168 -290 -179 -308 -10 -18 -37 -66 -59 -105 -23 -40 -50 -88 -61
-107 -27 -46 -157 -271 -227 -390 -30 -52 -64 -111 -74 -130 -11 -19 -29 -51
-41 -70 -11 -19 -30 -51 -41 -71 -11 -20 -64 -113 -118 -206 -82 -143 -99
-179 -104 -225 -11 -111 49 -214 154 -264 50 -23 65 -26 120 -21 101 10 172
60 229 162 13 23 24 42 129 225 43 74 95 164 117 199 21 34 38 65 38 67 0 1
38 67 84 146 46 79 93 159 103 178 11 19 44 75 72 123 28 49 51 91 51 93 0 2
12 23 27 47 22 34 262 448 335 577 56 99 73 125 80 128 4 2 8 8 8 14 0 6 42
83 93 172 52 89 105 181 119 206 14 25 82 142 151 261 132 227 152 275 143
347 -21 172 -205 280 -361 211z"/>
</g>
</svg>
