<svg width="1355px" height="528px" viewBox="0 0 1355 528" version="1.1" xmlns="http://www.w3.org/2000/svg" xmlns:xlink="http://www.w3.org/1999/xlink">
  <g id="Page-1" stroke="none" stroke-width="1" fill="none" fill-rule="evenodd">
    <g id="babel" fill-rule="nonzero">
      <path d="M929.3,46.8 L929,43.9 L924.3,44.3 L924.6,47.2 L929.3,46.8 Z M960.9,122.8 L961,124.4 L964.3,124.1 C964.2,123.1 964.6,121.5 965.3,119.5 L965,116.6 C963.6,116.7 962.2,118.8 960.9,122.8 Z M837.6,218.5 C837.4,215.8 829,205.3 812.4,186.8 C812.1,183.4 817.8,178.3 829.5,171.6 L862.9,142.5 C870.4,133 874.8,117.6 876.1,96.2 L875.7,91.3 C874.4,76.5 863.7,64.6 843.4,55.5 C831.4,47.4 809.8,42.9 778.6,42.1 C752.8,44.3 719.1,53.5 677.6,69.8 C666.2,78 653.2,86.2 638.6,94.4 L638.8,96.9 C639.7,96.8 641.1,96.3 642.7,95.2 C644.4,95 645.4,95.8 645.5,97.4 L648,96.1 L649.2,96 L649.3,97.1 C649.4,98.4 640.4,105.5 622.2,118.2 L623.6,120.8 L622.4,120.9 L619.4,119.8 C619.5,120.7 618.2,121.3 615.7,121.5 L615.8,122.6 L618.7,126.2 C617.8,126.3 616.4,125.9 614.5,125.2 C610.3,125.6 606.2,127.8 602.1,132 L603.8,124.6 C609.9,98.3 614.1,75 616.3,54.8 L616,53.5 C611.8,50.8 607.7,47 603.9,42.2 C604,39.1 604,37.3 603.9,36.9 L603.6,35.8 L602.4,36.1 C589.2,55.9 563.8,89.7 526.1,137.5 C497.4,171.5 482.6,190.4 481.7,194.2 C470,206.3 464.4,213.6 465,216.1 C461.9,218.1 460.6,220.1 461.1,222.3 C460.2,222.5 459.6,222.2 459.4,221.3 C454.4,229.4 447,234.6 437.1,236.9 L426.7,239.3 C425.3,239.6 424.6,240.6 424.7,242.3 L425,243.6 L428.9,242.7 L429.2,243.8 L420.4,247.2 L404.8,250.8 L396.6,251.3 C395.4,252.5 403.1,251.2 400.1,251.9 L389.9,254.3 C383.7,255.7 380.3,255.2 379.7,252.7 L378.5,253 C378.7,254.1 378.8,254.9 378.6,255.6 L378,253.1 L369.8,255 C369.2,251.2 358.1,237.4 336.6,213.6 C336.2,209 343.8,202.3 359.3,193.6 L403.1,155.1 C412.9,142.5 418.7,122.3 420.6,94.5 L420,88 C418.3,68.4 404.1,52.6 377.4,40.4 C361.6,29.7 333.2,24 292.2,23.1 C258.2,26 213.8,38.1 159.2,59.2 C144.2,70.1 127.1,80.9 107.9,91.6 L108.2,95 C109.5,94.9 111.2,94.2 113.3,93 C115.5,92.8 116.7,93.8 116.9,95.8 L120.3,93.9 L122,93.8 L122.1,95.4 C122.2,97 110.3,106.3 86.2,123.3 L88.1,126.3 L86.4,126.4 L82.7,125.1 C82.8,126.1 81.1,126.8 77.6,127.1 L77.8,128.9 L81.8,133.3 C80.5,133.4 78.7,133 76.4,132.2 C68.6,132.9 61,138.5 53.5,149.1 L55.4,152.1 C61.9,146.1 65.7,143.1 66.8,143 L67.2,147.9 C66.1,148 64.4,148.7 62.1,149.9 L66.2,156.1 C74.1,147.6 82.8,140.3 92.3,134.2 C97,135.4 99.5,136.9 99.6,138.5 L103.2,138.2 C129,119.1 154.5,105.3 179.8,96.8 L180.1,100.2 C175.4,107.2 172.2,110.8 170.5,111 C170.7,113.4 171.5,115.5 173,117.3 C173.4,121.6 161.9,150.6 138.6,204.2 C85.7,328.8 41.3,421 5.2,480.6 C5.3,481.8 6,483.4 7.3,485.4 C16.2,483.3 21.8,481.1 24.2,479 L26.1,478.8 L26.4,482.2 L29.7,481.9 L33.1,480 C33.2,481 34.3,481.5 36.6,481.3 L36.9,484.7 C37.2,488 35.3,493 31.3,499.9 C27.7,504 23.8,512.6 19.7,525.7 L19.8,527.3 L23.1,527 C37.5,510.9 48.4,495.1 55.9,479.7 C97.9,467.4 129.9,455.3 152.1,443.4 C174.4,441.5 191.4,435.6 203,425.9 L202.8,424.1 L194.4,426.6 L192.5,426.8 L192.3,425 C208.7,422.5 220,418.9 226.3,413.9 C258.2,389.3 282.3,371.9 298.6,361.6 C332.1,337 353.9,313 363.8,289.7 C365.6,289.3 367.4,288.9 369.4,288.4 C374.1,288.2 376.7,288.1 377.4,287.9 C377.2,287 377.6,286.5 378.5,286.3 C386,285.5 382.4,286.8 387.2,285.7 L399.8,282.8 C399,283 398.7,283.4 398.9,284.2 L400.8,283 C400.4,283 400.1,282.9 399.8,282.8 L401.9,282.3 L400.9,282.9 C402.3,283.1 403.8,283 405.5,282.6 L406.4,286.3 L349.1,377.4 L336.4,393.3 L330.2,414.1 L331.4,413.8 L337.6,411.2 L335.6,419.3 L336.2,421.7 L337.9,423.8 C337.1,424 336.8,424.5 337,425.4 L337.3,426.7 L339.9,426.1 C343.7,422.8 345.3,419.8 344.7,417.1 C348.8,417.8 351.5,418.1 352.9,417.7 L353.2,419 C350.7,419.6 349.4,421.6 349.2,425 L349.5,426.3 L350.9,426 C371.7,403.3 422.7,325.6 463.6,272.9 C462.3,267.2 483.6,259.3 527.6,249.1 L529,248.8 C530.6,255.7 527.2,272.4 518.8,298.9 C513.4,314.9 510.8,323.7 511.2,325.1 C504.2,346.4 500.9,357.9 501.3,359.7 L485.7,410.8 C475.6,437 467.9,464.5 462.5,493.5 C463.4,493.3 464.8,493.4 466.8,493.9 L469,492 C469.2,492.9 469.8,493.2 470.7,493 L469.8,489.3 L476.6,489.1 C478.6,488.6 480.3,486.1 481.7,481.5 C481.4,474.6 482.8,470.9 485.9,470.1 C490.1,453.7 492.7,445.5 493.6,445.2 C497.5,428.9 500.4,419.6 502.3,417.3 C508.2,396.1 512.5,385.2 515.3,384.5 L515.9,387.1 L511.6,398.2 C504.1,431.5 496.5,457.8 488.8,477.1 L491,486.7 L492.4,486.4 C511,446.4 537.8,367.2 572.7,248.8 C573.7,238.4 578.7,230.3 587.6,224.6 L585.6,222.5 L585.3,221.4 C589.3,220.5 592.1,218.9 593.7,216.7 C593.5,215.8 590,214.5 583.2,212.7 L600.6,138.1 C604.4,134.7 606.6,132.9 607.3,132.9 L607.6,136.7 C606.7,136.8 605.3,137.3 603.7,138.4 L607,143.1 C613,136.6 619.5,131 626.6,126.3 C630.2,127.3 632,128.5 632.2,129.7 L634.8,129.5 C654.6,115 674,104.6 693.1,98.3 L693.3,100.8 C689.8,106.1 687.4,108.8 686.1,108.9 C686.3,110.7 686.8,112.3 687.7,113.7 C688,117 679.4,139 661.8,179.8 C621.6,274.3 587.9,344.2 560.5,389.6 C560.6,390.5 561.2,391.7 562.3,393.3 C569,391.7 573.3,390 575,388.4 L576.2,388.3 L576.4,390.8 L579.2,390.6 L581.7,389.3 C581.8,390 582.7,390.3 584.4,390.2 L584.6,392.9 C584.8,395.3 583.4,399.1 580.3,404.3 C577.4,407.4 574.4,413.9 571.2,423.8 L571.3,425.1 L573.9,424.9 C584.8,412.7 593.1,400.7 598.8,388.9 C630.7,379.5 655,370.4 671.8,361.4 C688.9,359.9 701.8,355.5 710.6,348.1 L710.5,346.8 L704,348.7 L702.6,348.8 L702.5,347.5 C714.9,345.7 723.6,342.9 728.3,339.2 C752.5,320.6 770.8,307.3 783.2,299.5 C821.8,271.4 839.8,244.4 837.6,218.5 Z M831,220.2 L831.9,230.3 C830.7,232.8 829.4,234.1 828.2,234.2 L826.7,217 C829.5,218 830.9,219 831,220.2 Z M73.8,138.8 L72.1,138.9 L71.8,135.8 L78.7,135.2 L78.8,136.8 C77.7,136.9 76,137.5 73.8,138.8 Z M40.1,475.9 C36.1,474.1 32.5,473.4 29.4,473.7 L29,468.8 C28.8,466.9 29.9,465.6 32.3,465.1 C34.5,464.9 35.8,466.5 36,469.7 C41.8,462.6 45,459 45.6,458.9 L49.3,460.4 C48.1,470.4 45,475.5 40.1,475.9 Z M400.2,99.2 C398.5,99.4 395.1,94.1 390.2,83.6 L389.9,80.5 C393.1,80.2 396.4,85.4 399.9,96.1 L400.2,99.2 Z M395.4,61.9 L394,65.2 L345.1,44.8 C377.7,45.9 394.5,51.6 395.4,61.9 Z M188.9,239.2 L182,239.8 L181.7,236.7 L188.6,236.1 L188.9,239.2 Z M183.3,132.7 L185,132.6 L185.4,137.5 C183.8,137.6 181.7,140 179.1,144.6 L178.8,141.2 C181.9,137.5 183.5,134.7 183.3,132.7 Z M168.8,166.9 L169.4,173.4 L167.7,173.5 L167.1,167 L168.8,166.9 Z M161.2,179.1 L164.5,178.8 C164.2,184.2 162.7,187.1 160,187.3 L158.3,187.4 C160.4,183.8 161.4,181 161.2,179.1 Z M155.5,196.1 L157.4,195.9 L157.5,197.5 L154.4,202.7 L151.1,203 L151,201.4 C154.3,201.1 155.8,199.4 155.5,196.1 Z M149.9,211.4 L148.9,219.6 L147.2,219.7 L146.5,211.6 L149.9,211.4 Z M93.8,370.9 C91.6,382.1 89.2,387.8 86.7,388 L86.6,386.4 C86,380.9 88.4,375.7 93.8,370.9 Z M83.5,393.2 L83.6,394.8 C83.8,397 82.8,398.3 80.6,398.4 L80.5,396.8 C80.3,394.9 81.3,393.7 83.5,393.2 Z M80.5,439.5 L85.7,439 L85.9,440.8 C84.6,440.9 82.9,441.6 80.8,442.8 L77.5,443.1 C77.3,441.4 78.4,440.1 80.5,439.5 Z M228.5,393.8 C199.3,408.2 182.1,418 177,423.1 C145.4,434.1 129.7,440.9 130,443.6 C101.9,454.7 83.4,462.9 74.5,468 C72.4,468.2 69.4,467.4 65.4,465.6 C64.9,459.9 67.5,455.3 73,451.6 C77.9,451.2 82.6,451.9 87.1,453.8 C92.3,451.1 101.4,448.1 114.3,444.9 L114,441.5 L103.6,442.4 C104.9,440.6 114.9,435.9 133.7,428.3 L138.9,427.8 L139,429.4 C130.1,430.2 125.2,432.8 124.1,437.5 C124.3,439.6 125.5,440.5 127.7,440.3 C134.4,436.1 137.7,433.6 137.6,432.9 C150.3,430.5 185.4,412.1 242.9,377.8 L243.2,380.9 C243.3,382.4 238.4,386.6 228.5,393.8 Z M140.3,422.8 C148.7,422.1 155.9,418.7 161.9,412.8 C164.3,412.6 165.6,413.5 165.7,415.6 C161.6,416 153.7,419.4 142.2,426 L140.5,426.1 L140.3,422.8 Z M282.6,313.5 L238.5,348.4 C205.7,369.9 188.1,380.7 185.6,380.9 C133.4,409.6 100.9,424.5 88.3,425.6 L86.4,425.8 C88,419.9 111.2,372.4 156.2,283 C176,281.3 207.2,272.1 249.7,255.3 L260.1,254.4 C281.6,252.5 297.7,256.7 308.3,266.7 L308.9,273.2 C300.9,296.2 292.1,309.6 282.6,313.5 Z M196.4,265 L203.5,264.4 L203.6,266 L196.5,266.6 L196.4,265 Z M296.1,248.1 L301.3,247.6 C306.1,249.9 308.6,251.9 308.8,253.7 L308.9,255.3 C304.3,255.7 300,253.3 296.1,248.1 Z M310.2,167.8 C305.6,173.3 293,182.7 272.4,195.9 C265.6,196.5 240.3,206.3 196.5,225.5 C194.3,224.5 192,224.1 189.5,224.3 L189.2,221.2 C188.7,214.9 191.5,207 197.7,197.4 C201.1,179.4 204.8,169.1 208.9,166.6 L245.4,84.5 C245,79.4 252.8,75.5 268.8,72.8 L274,72.3 L274.4,77 C290.1,74.6 299.9,73.2 303.7,72.9 C332.7,70.4 347.8,76.3 349,90.4 L352.3,90.1 L351.6,81.8 L355.2,81.5 C363.7,86.2 368.3,91.9 368.9,98.6 C369.3,103.2 366.8,108.9 361.5,115.7 C359.3,115.9 358,114.3 357.8,111.1 L354.2,111.4 L353.4,121.4 C338.7,143.4 328,154.7 321.4,155.3 C315.4,163.6 311.7,167.7 310.2,167.8 Z M332.6,225.3 C329.6,223.3 327.2,222.4 325.4,222.5 L325,217.6 L328.3,217.3 L335.6,221.6 C335.9,223.9 334.9,225.1 332.6,225.3 Z M355.8,252.8 C359,254.1 360.9,255.5 361.3,256.8 L359.7,257.2 L359.8,257.3 C359.5,257.3 359.1,257.4 358.8,257.5 L356.4,259.4 L355.8,252.8 Z M358,266.6 L357.7,265.3 L361.9,264.3 L362.2,265.6 L358,266.6 Z M368.1,277.9 C372.4,277.2 374.5,276.9 382.5,275.1 L382.8,276.4 L367.6,279.9 C367.8,279.2 368,278.5 368.1,277.9 Z M382.9,284.2 C376.5,284.8 377.9,284 367.7,286.3 L367.4,285 L380.1,280.9 L386.2,279.5 L386.8,281.9 C384.1,282.5 386.1,282.5 382.9,284.2 Z M396.4,281 C394.9,281.4 393.7,280.7 393,279 L396.9,278.1 C398.6,277.7 399.7,278.4 400.1,280.1 L396.4,281 Z M433,241.6 L432.7,240.3 L439,238.8 L439.6,241.2 L433,241.6 Z M472.1,481.4 C472.5,479.6 472.6,478.3 472.4,477.4 L473.8,477.1 C475.5,476.7 476.5,477.3 476.9,478.9 L477.2,480.2 L472.1,481.4 Z M499.5,251.9 L496.7,251.4 C492.2,253.2 488.4,254.5 485.3,255.2 L482.7,255.8 C481.2,256.2 480,255.6 479.4,254 L497.7,249.8 L503.7,247 L505.7,249.3 C502.8,249.9 500.7,250.8 499.5,251.9 Z M513.6,247.4 L513.3,246.1 C514.2,245.9 515.4,245.2 516.7,243.9 L529.7,240.9 L530,242.2 C523.1,243.9 517.6,245.6 513.6,247.4 Z M515.6,221.1 C514.7,221.3 513.5,222.1 512,223.3 C511.8,222.4 510,222.4 506.6,223.2 C506,220.7 515.6,217.2 535.5,212.6 L538.3,212 L538.9,214.4 C524.9,218.5 517.1,220.8 515.6,221.1 Z M550.6,183.3 C549.2,199.2 543.6,208.2 533.7,210.5 L533.4,209.2 L524.6,212.6 L520.7,213.5 C518.7,214 516.9,213.9 515.3,213.4 L514.5,209.9 C514.2,208.6 526.9,191 552.7,157.2 L555.7,157.7 C556.8,162.3 555.1,170.8 550.6,183.3 Z M612.5,130.3 L611.3,130.4 L611.1,127.9 L616.3,127.4 L616.4,128.7 C615.5,128.9 614.2,129.4 612.5,130.3 Z M587,386.4 C584,385 581.3,384.4 579,384.6 L578.7,380.8 C578.6,379.5 579.4,378.6 581.1,378.1 C582.8,377.9 583.8,379.1 584,381.7 C588.3,376.2 590.7,373.4 591.2,373.4 L593.9,374.5 C592.9,382.1 590.6,386.1 587,386.4 Z M860.4,100.4 C859.1,100.5 856.6,96.5 852.7,88.4 L852.5,85.9 C855,85.7 857.6,89.6 860.2,97.6 L860.4,100.4 Z M856.8,71.8 L855.6,74.4 L818.6,58.9 C843.3,59.7 856.1,64 856.8,71.8 Z M699.9,206.5 L694.7,207 L694.5,204.5 L699.7,204.1 L699.9,206.5 Z M695.6,125.6 L697,125.5 L697.3,129.3 C696,129.4 694.4,131.2 692.5,134.7 L692.3,132.2 C694.6,129.3 695.7,127.1 695.6,125.6 Z M684.7,151.6 L685.1,156.5 L683.7,156.6 L683.3,151.7 L684.7,151.6 Z M678.8,160.9 L681.4,160.7 C681.1,164.9 680,167.1 678.1,167.3 L676.7,167.4 C678.2,164.6 678.9,162.4 678.8,160.9 Z M674.6,173.7 L675.8,173.6 L675.9,174.9 L673.6,178.9 L671,179.1 L670.9,177.8 C673.6,177.6 674.8,176.2 674.6,173.7 Z M670.4,185.3 L669.5,191.7 L668.3,191.8 L667.8,185.5 L670.4,185.3 Z M627.7,306.6 C626,315 624.2,319.3 622.3,319.5 L622.2,318.4 C621.9,314.2 623.7,310.2 627.7,306.6 Z M619.8,323.5 L619.9,324.6 C620.1,326.4 619.3,327.4 617.5,327.5 L617.4,326.2 C617.3,324.9 618.1,324 619.8,323.5 Z M617.6,358.7 L621.6,358.4 L621.7,359.7 C620.8,359.8 619.4,360.3 617.8,361.2 L615.2,361.4 C615.1,360 615.9,359.1 617.6,358.7 Z M729.9,324 C707.9,334.9 694.8,342.3 690.7,346.1 C666.7,354.5 654.8,359.7 655,361.8 C633.7,370.3 619.7,376.4 613.1,380.3 C611.5,380.4 609.2,379.8 606.2,378.4 C605.8,374.1 607.8,370.6 612,368 C615.8,367.7 619.4,368.2 622.7,369.6 C626.7,367.6 633.6,365.4 643.4,362.9 L643.2,360.4 L635,361 C636,359.6 643.7,356 658,350.2 L662,349.9 L662.1,351 C655.3,351.6 651.5,353.6 650.7,357.2 C650.8,358.8 651.8,359.6 653.5,359.4 C658.5,356.1 660.9,354.2 660.9,353.6 C670.5,351.9 697.1,337.9 740.8,311.7 L741,314.2 C741.1,315.3 737.4,318.5 729.9,324 Z M662.9,346 C669.4,345.4 674.9,342.9 679.5,338.5 C681.2,338.3 682.2,339.1 682.3,340.7 C679.3,341 673.4,343.5 664.5,348.3 L663.1,348.4 L662.9,346 Z M771.1,262.9 L737.8,289.7 C712.9,306 699.4,314.2 697.3,314.4 C657.7,336.2 633.1,347.5 623.4,348.3 L622,348.4 C623.2,343.9 640.9,307.8 675.1,240 C690,238.7 713.6,231.6 746,218.8 L754.1,218.1 C770.4,216.7 782.6,219.9 790.6,227.6 L791,232.5 C784.9,249.7 778.3,259.8 771.1,262.9 Z M705.7,226.1 L710.9,225.6 L711,226.9 L705.8,227.4 L705.7,226.1 Z M781.4,213.2 L785.4,212.9 C789.1,214.7 791,216.3 791.1,217.6 L791.2,218.7 C787.7,219 784.4,217.2 781.4,213.2 Z M791.9,152.3 C788.4,156.5 778.9,163.7 763.4,173.7 C758.2,174.2 739,181.6 705.8,196 C704.2,195.4 702.4,195.2 700.5,195.3 L700.3,192.8 C699.9,188 702,182 706.6,174.7 C709.2,160.9 712.1,153.2 715.1,151.4 L743,89 C742.7,85.3 748.6,82.3 760.6,80 L764.6,79.7 L764.9,83.5 C776.7,81.6 784.1,80.5 787.1,80.2 C809.1,78.3 820.6,82.7 821.5,93.5 L824.1,93.3 L823.6,87.3 L826.2,87.1 C832.6,90.6 836,94.8 836.4,99.8 C836.7,103.4 834.9,107.8 831.1,112.9 C829.4,113.1 828.4,111.9 828.2,109.3 L825.6,109.5 L824.8,117 C813.7,133.9 805.6,142.6 800.5,143 C796,149.1 793.2,152.2 791.9,152.3 Z M803.6,193.9 L803.3,190.1 L805.9,189.9 L811.5,193.3 C811.6,194.9 810.8,195.8 809.1,196 C806.7,194.5 804.9,193.8 803.6,193.9 Z M338.1,436.8 L335.5,437.4 L333.3,439.3 C333.7,440.9 334.7,441.5 336.4,441.1 C338.1,440.7 338.8,439.7 338.4,438.1 L338.1,436.8 Z M328.2,417.1 L328.5,418.4 C330.2,418 330.9,417 330.5,415.4 L330.2,414.1 C328.6,414.5 327.9,415.5 328.2,417.1 Z M398.6,249.6 L401.6,248.9 L401,246.3 L398,247 L398.6,249.6 Z M1306,325.8 C1275.6,332.6 1271.8,331.4 1265.4,331.9 L1265.6,334.4 L1268.4,334.2 L1269.9,334.1 L1269.5,333.8 L1272.8,332.5 C1302.9,329.2 1306.4,330.4 1306.1,327 L1306,325.8 Z M1142.3,347.5 L1142.5,350 L1142.9,350 L1142.7,347.5 L1142.3,347.5 Z M1123.5,281.6 L1120.8,280.7 C1118.6,286.6 1117.5,290.1 1117.6,291.1 L1117.7,292.2 C1119.8,292.1 1121.7,288.5 1123.5,281.6 Z M1312.2,325.3 L1312.4,327.8 L1316.8,328.6 L1316.6,326.1 L1312.2,325.3 Z M1105.3,350.6 L1098.5,349.8 L1097.3,352.4 L1097.4,353.7 L1137.9,350.3 L1137.7,347.8 L1105.3,350.6 Z M1086.9,261.9 L1086.8,260.6 L1085.4,260.7 L1082.9,262.3 L1084.3,264.7 C1086.2,264.5 1087.1,263.6 1086.9,261.9 Z M1331.4,306.9 L1333.3,306.7 C1334.4,306.6 1334.9,305.7 1334.8,304.1 L1333.7,301.7 C1326.8,302.3 1323.6,302.6 1318,305.7 L1317.9,304.4 L1309.6,305.2 C1309.4,302.7 1308.7,301.4 1307.6,301.5 L1303.3,301.9 C1298.3,302.3 1295.9,302.1 1293.4,304 C1293.3,303.1 1293,302.7 1292.5,302.7 L1287.7,303.1 L1284.9,304.7 C1284.8,303.8 1284.5,303.4 1284,303.4 L1282.3,304.9 L1282.2,303.6 L1275.5,303.1 L1273.9,303.2 L1274.1,305.7 L1277.5,306.6 L1280.7,306.4 C1281.8,307.1 1283,307.3 1284.4,307.2 L1287.2,305.8 L1287.3,306.9 C1271.6,310.8 1271.7,310.1 1260.9,311.9 C1259.7,311.1 1258.8,310.7 1258.2,310.8 L1258,311 C1256.8,310.9 1256.1,310.1 1256,308.8 L1261.6,308.1 C1262,308.1 1262.3,308.5 1265.4,309.1 C1269.9,306.9 1270.1,306 1272.5,305.8 L1272.3,303.3 C1256.9,306.3 1263.1,304.3 1243.8,306 L1242.9,306.1 L1242.7,303.6 C1267.5,300.6 1259.2,302.3 1267.7,299.9 C1267.8,300.8 1268.1,301.2 1268.6,301.2 C1269.6,300.2 1270.7,299.7 1272,299.5 L1273.7,299.4 C1282.4,298.7 1285.3,300.4 1302.5,295.6 L1302.6,296.7 L1305.4,295.3 L1308,295.1 C1307.8,292.6 1311.6,292.2 1312.9,292.1 L1312.7,289.4 C1282.5,295.5 1274.6,293.8 1266.2,296.2 L1266.1,295.1 C1258.2,296.5 1257.9,295.9 1255.9,296 C1255.3,296.1 1254.4,296.6 1253.4,297.6 C1253.3,296.7 1253,296.3 1252.4,296.3 C1252.1,296.3 1252,296.4 1251.9,296.4 L1226.3,300.6 C1226.2,299.9 1225.9,299.5 1225.3,299.6 C1212,302.4 1215.6,302.9 1197.8,304.5 C1197,304.6 1195.9,305 1194.5,305.9 C1194.4,305.2 1194,304.8 1193.1,304.9 L1182.2,305.8 L1174.9,307.6 C1174.8,306.9 1174.4,306.5 1173.5,306.6 C1169.4,307.7 1165.8,308.4 1162.9,308.6 L1162.7,308.6 C1160.9,308.8 1163.6,308.1 1162.2,307.5 L1160,308.8 C1156.8,309.1 1158.5,308.6 1147.5,308.7 C1128.2,311.1 1130.3,311.4 1128.2,311.5 L1121,311 C1121.1,311.7 1120.7,312.2 1119.9,312.2 C1111.7,311.1 1107.5,309.8 1107.4,308.3 C1108.5,300.5 1110.4,296.5 1113.1,296.3 L1114.5,296.2 L1113.3,298.8 L1114.7,298.7 C1117.3,297.3 1118.5,296 1118.4,294.8 L1118.2,292.1 L1115.6,292.3 L1115.4,289.8 C1115.2,287.9 1115.5,286.2 1116.2,284.8 L1122.1,275.3 L1122.3,277.8 L1125.1,277.6 L1124.9,275.1 L1123.3,272.8 C1125.4,271 1127,270 1128.3,269.9 L1128.2,268.6 L1124.4,268.9 L1124.1,265.1 C1131.7,249.3 1135.3,240.1 1135.1,237.5 L1137.8,238.6 C1139.5,238.5 1140.3,237.5 1140.2,235.7 L1137.6,235.9 L1137.5,234.8 C1137.3,232.9 1137.7,231.1 1138.5,229.5 C1142.6,225.2 1144.5,220.9 1144.1,216.4 C1144.9,216.3 1145.3,216.7 1145.4,217.6 C1148.9,215.6 1151.6,210.3 1153.6,201.5 C1159.8,190.3 1168.6,167.9 1180.1,134.4 C1202.1,75.2 1201.2,68.9 1204.3,54.9 L1201.7,55.1 C1201.9,56.9 1201.5,58.6 1200.7,60.2 C1198.9,59.5 1197.5,59.1 1196.5,59.2 L1196.4,58.1 C1196,53 1198.1,46.9 1202.9,39.7 L1204.1,39.6 L1206.3,48.2 L1208.9,48 C1208.8,47.4 1209.5,44 1210.9,37.7 C1210.8,36.4 1209.8,35.6 1207.8,35.5 L1205.3,37.1 C1205.1,35.3 1205.2,30.6 1205.5,23.1 L1204.2,23.2 C1202,21 1200.9,19.2 1200.8,17.7 L1186.5,19.1 C1186.4,18.1 1185.9,16.6 1184.9,14.7 C1184.8,13.4 1188,12.1 1194.6,10.8 L1197.5,11.9 L1200.2,10.3 C1200.3,11.2 1200.8,11.6 1201.8,11.5 L1204.5,9.9 C1204.6,10.8 1205.1,11.2 1206.1,11.1 L1207.4,11 L1207.2,8.1 C1205.2,8.3 1199.9,8.3 1191.5,8 L1188.8,9.8 L1188.7,8.2 C1121.6,13.7 1083.5,16.8 1074.4,17.7 C1073.2,17.8 1068.5,17.7 1060.2,17.5 C1060.3,18.6 1059.3,19.2 1057.3,19.4 L1054.4,18.1 L1044.6,20.6 C1042.3,20.8 1038.4,20.7 1033,20.1 C1031.5,21.3 1029.7,22 1027.5,22.2 C1026.3,22.3 1041.8,21.4 1056.2,20.4 C1054.7,21.6 1052.4,22.3 1049.2,22.6 C1047,22.8 1045.1,22.5 1043.5,21.6 C1041.3,22.6 1034.2,24.2 1022.3,26.6 L1019.4,25.5 L972.6,32.7 C970.8,31.8 968.7,31.5 966.3,31.7 C963.8,31.9 959.6,32.8 953.8,34.4 L931.2,43.8 L932.9,46.6 C934,46.5 935.6,45.9 937.5,44.8 L945.5,45.5 L944.5,53 C937.1,56.3 932.8,61.2 931.6,67.4 C920.5,72.3 915,75.8 915,77.9 L915.1,79.2 L916.8,79.1 L919.8,77.5 L923.3,81.7 L923.8,87.5 C924,89.3 905.3,128.6 867.9,205.4 C835.5,279.4 818.5,319.9 816.9,327.2 C805.8,330.3 799.4,334.8 797.5,340.8 C797.7,342.7 801,344 807.4,344.5 L807.7,347.4 L804.8,352.2 L805.3,358 C805.6,361 813.7,363.3 829.6,364.9 C829.5,363.9 830,363.3 831.1,363.2 C831.4,366.8 830.4,373.8 828.1,384.2 L829.8,384.1 C836.4,375.1 839.5,368.9 839.2,365.5 L840.6,365.4 C842.2,365.3 843.9,367.1 845.9,371 C843.9,371.8 836.9,387.7 824.9,418.8 L826.6,421.6 L828.3,421.5 C843,384.3 852.2,363.7 856,359.8 C875.3,358.1 908.7,354.7 956.1,349.6 L959.1,347.8 C959.2,348.8 959.8,349.3 960.9,349.2 L964,348.9 L967,347.1 C967.1,348.1 967.7,348.6 968.8,348.5 L1004.7,345.4 C1014.2,344.6 1018.7,341.7 1018.3,336.8 C1018.2,335.5 1023.8,334 1035.1,332.4 C1036.2,332.3 1037.8,332.6 1040,333.3 C1039.9,332.4 1045.6,331.5 1057,330.5 C1057.3,324.5 1059.2,321.3 1062.6,321 L1062.3,318.1 C1059.1,318.4 1055.5,319.2 1051.3,320.6 C1043.8,320.2 1039,319.6 1037,318.9 C1035,320 1033.5,320.6 1032.4,320.7 L1007.4,321.5 L1004.4,323.1 C1004.3,322.2 1003.7,321.8 1002.6,321.9 L1001.2,322 L998,323.6 C997.9,322.7 995.3,322 990.1,321.3 L986.9,323.2 L980.7,323.7 L980.6,322.1 C1012.8,318.6 1028.7,314.2 1028.3,309 C1030.4,308.8 1031.5,309.8 1031.7,311.9 L1041.1,309.5 L1040.8,306.6 L963.7,308.7 C963.8,309.7 963.3,310.3 962.2,310.4 L952.8,309.6 C950.4,309.8 948.4,310.5 946.8,311.7 L943.3,310.4 C933.6,311.2 926.4,312.4 921.6,313.9 C915,313.4 907.7,313.5 899.6,314.2 L882.3,315.7 L874.3,314.8 C873.9,309.7 883.8,284.6 904.2,239.6 C910.1,224.4 915.5,214.9 920.7,211.3 C921.8,211.2 923.4,211.6 925.6,212.5 L937.9,208.3 L944.2,209.3 C954.8,208.4 967.1,205.4 981.2,200.2 C984.7,199.9 987.3,200.1 989.2,200.9 L998.6,198.7 L1026.6,196.3 C1038.5,195.3 1051.4,192.7 1065.4,188.4 L1065.1,185.5 C1059.9,186 1057.2,185.1 1057,183 C1056.7,179.1 1052.9,177.5 1045.6,178.1 L1045.3,175.2 L1053,173 L1073.2,171.3 L1072.9,168.4 C1072.1,168.5 1068,168.4 1060.4,168.1 L1060.1,165 L1067.9,164.3 C1070,164.1 1070.9,163.1 1070.7,161.1 C1060.2,161.4 1054.9,160.9 1054.8,159.5 C981.6,163.1 944.9,163.8 944.7,161.5 C943.6,161.6 942.1,162.3 940.1,163.5 L938.2,160.5 C957.6,119.3 969,98.5 972.3,98.2 C972.4,99.8 971.6,102.4 969.8,105.9 L969.9,107.2 L973,106.9 C980.7,88.5 987.2,79 992.6,78.6 C1015.6,76.6 989.4,75.1 1038.6,67.4 C1040.6,68.3 1042,68.7 1043,68.6 C1062.3,64.7 1089.2,60.6 1123.7,56.4 L1123.5,53.5 L1105.1,55.2 L1104.9,52.3 C1107.1,52.1 1108.9,51.4 1110.4,50.2 L1110.5,51.8 C1111.5,51.7 1112.9,51 1114.7,49.8 C1117.9,49.5 1120.3,49.8 1122,50.7 C1128.4,49 1133.6,48 1137.4,47.6 L1148.9,46.5 C1151.7,44.7 1153,43.1 1152.9,41.6 L1152.8,40.3 C1149.9,40.6 1146.6,40.4 1142.7,39.7 C1142.6,38.1 1143.4,37 1145.3,36.5 L1166.7,34.5 L1176.5,32 C1176.6,33.1 1177.1,33.5 1177.9,33.5 C1178.9,33.4 1180.3,32.7 1182.1,31.5 C1182.6,31.6 1183.2,31.6 1183.7,31.7 C1182.4,34.4 1180.9,38.3 1179.4,43.4 L1176.6,43.6 C1176.4,41.7 1175.9,40 1175,38.5 L1173.6,38.6 C1147.6,111 1136,144.7 1112,200.3 C1107.6,214.5 1103.9,222.4 1100.7,224.1 C1100.8,225.7 1101.8,226.5 1103.5,226.3 C1104.1,233.3 1102.5,240.2 1098.6,247 C1087.5,279 1080.1,296.5 1076.3,299.7 L1078.8,314.8 C1078.9,316.4 1078.1,317.3 1076.4,317.5 L1073.8,317.7 C1073.4,313.5 1071.9,311.5 1069.2,311.8 L1067.8,311.9 C1064.4,317.2 1061.8,323.3 1060.1,330.4 L1062.7,330.2 C1066.2,327.9 1067.8,325.2 1067.5,322.1 L1072.7,321.6 L1075.7,322.7 C1073.3,326.5 1072.2,329.5 1072.4,331.8 L1073.8,334.2 L1070.4,342.2 L1070.5,343.5 C1073.5,343.2 1076.8,344.2 1080.3,346.3 C1082.7,346.1 1085.3,345 1088.2,343.1 C1091.2,342.8 1102.4,342.7 1121.7,342.7 L1131.4,339.4 C1143.2,339.3 1145.1,339.6 1155.3,338.7 L1159.5,338.3 L1161.7,336.8 L1161.8,338.1 C1172.5,337.2 1173.2,337.9 1181.6,338.9 L1181.7,340.2 L1175.8,340.7 L1176,343.2 C1177.8,343 1179.4,342.5 1180.7,341.4 C1182.2,341.3 1183.1,342.1 1183.2,343.9 C1180.8,344.1 1178.1,344.7 1175.1,345.7 L1172.5,344.8 C1168.4,345.9 1169.3,346.2 1166.5,346.4 L1162.4,345.6 C1162.5,346.3 1162.1,346.8 1161.4,346.8 C1161.5,348.4 1162.4,349.2 1163.9,349.1 L1168.1,348.7 L1190,346.8 L1198.3,345 C1198.4,345.7 1198.7,346.1 1199.4,346 L1203.4,344.5 L1210.9,343.9 C1216.7,343.4 1216.6,343 1229.2,341 C1229.1,340.2 1229.4,339.9 1230,339.8 L1230.1,340.9 C1250.6,337.4 1251.9,337.2 1255.2,336.1 L1255.5,336.7 C1260.6,335.5 1257.7,335.8 1259.1,334.8 C1259.2,335.7 1259.5,336.1 1260,336.1 L1263.6,335.8 L1263.4,333.1 L1256.1,333 L1256,332.8 C1255.7,332.9 1255.5,332.9 1255.2,333 L1254.2,333 L1254.2,333.2 C1249.3,334.2 1249.2,333.5 1246,333.8 L1227.7,334.8 L1227.6,333.5 L1237.8,332.1 L1241.5,331.8 L1243.6,330.3 L1243.7,331.6 C1258.1,330.4 1263.2,334 1329.8,319.8 C1333.4,319.5 1333.1,316.5 1335.4,310.3 C1334.2,310.4 1333,310.1 1331.9,309.5 C1326.4,311.6 1323.5,310.6 1312.9,312.3 C1312,312.4 1311.3,311.6 1311,310 L1310.9,308.9 L1321.1,309.2 C1323,309 1326.7,308.7 1332.2,305.6 C1332.2,306.5 1330.2,307 1331.4,306.9 Z M839,314.8 L834.3,315.2 C834.1,313.3 836.6,306.1 841.8,293.8 L844.9,293.5 C845,296.4 843.1,303.5 839,314.8 Z M844.7,292 L844.6,290.7 C844.5,289.1 845.5,288 847.7,287.5 L847.8,288.8 C847.9,290.7 846.9,291.8 844.7,292 Z M907.2,340.3 L907.3,341.6 L899.5,342.3 L899.4,341 L907.2,340.3 Z M897.8,339.5 C897.9,341.1 895.5,342.9 890.3,344.7 L880.7,344 L877.6,344.3 L877.3,341.4 L897.8,339.5 Z M961,48.6 L956.3,49 L956.2,47.4 C956.1,45.8 957,44.7 959,44.2 L960.7,44.1 L963.9,45.4 C964,47.3 963.1,48.4 961,48.6 Z M1032.5,34.6 L1034,34.5 L1034.2,37.4 L1029.9,37.8 C1029.8,36.2 1030.6,35.1 1032.5,34.6 Z M1014.5,40.9 L1007.4,40.1 L1007.3,38.8 C1016.6,38 1019.7,37 1025.4,35.4 C1025.5,36.5 1026.5,36.9 1028.3,36.7 L1028.5,39.6 L1025.7,39.9 C1023.5,40.1 1021.6,39.8 1020,38.9 C1018.3,40 1016.5,40.7 1014.5,40.9 Z M1023.4,66.8 L1023.3,65.5 L1034.8,64.4 L1034.9,65.7 L1023.4,66.8 Z M1035.7,56.8 L1035.6,55.2 L1041.2,54.7 L1041.3,56.3 L1035.7,56.8 Z M1037,37.2 L1035.5,37.3 L1036.8,34.2 L1049.6,33 L1049.7,34.6 C1046.4,34.9 1042.1,35.8 1037,37.2 Z M1043.5,64.8 L1043.3,61.9 L1048.9,61.4 C1050.8,61.2 1051.8,62.1 1051.9,64.1 L1043.5,64.8 Z M1077.4,18.6 L1070.2,20.6 L1068.9,20.7 C1065.5,21 1061.1,20.9 1055.9,20.4 C1065.2,19.8 1074.1,19.1 1077.4,18.6 Z M1069.7,50.6 L1069.8,51.9 L1059.9,52.8 L1059.8,51.5 L1069.7,50.6 Z M1085.9,58.3 C1085.8,57.1 1083.9,56.3 1080,55.9 L1070.1,58.7 L1062.5,59 C1060.8,57.8 1059.9,57 1059.8,56.4 L1068.6,56.9 L1088.4,53.7 L1098.5,54.1 L1098.6,55.7 C1093.6,56.2 1089.4,57.1 1085.9,58.3 Z M1187.8,32 C1189,32.1 1189.8,32.1 1190.1,32.1 C1193.6,28.7 1197.5,26 1202,24.1 C1198.4,39.9 1192.8,51.6 1185.1,59.2 L1179.5,55.8 C1184.2,43.9 1187,36 1187.8,32 Z M1170.6,61.5 L1172,61.4 C1170.1,65 1168.4,66.9 1167,67 L1166.7,63.2 C1167.6,63.2 1168.9,62.6 1170.6,61.5 Z M1159.5,88 C1162.2,77.2 1164.8,71.1 1167.2,69.5 L1167.3,70.8 C1165.9,80.8 1163.7,86.1 1160.8,86.5 L1161.3,92.8 C1158.9,96.2 1157.8,98.8 1157.9,100.8 L1156.5,100.9 L1155.7,92.2 C1157.3,92 1158.6,90.6 1159.5,88 Z M1155.2,102.4 C1155.3,103.9 1154.3,107.4 1152.3,112.8 L1150.9,112.9 L1150.6,109.1 C1152.5,104.7 1154.1,102.5 1155.2,102.4 Z M1074.5,336.6 L1074.4,335.5 L1077,335.3 L1077.3,339.1 C1075.9,339.2 1074.9,338.4 1074.5,336.6 Z M1189.8,339.6 C1189.7,338.7 1189.3,338.3 1188.4,338.4 L1181.9,339 L1181.8,337.7 L1182.4,337.7 L1197.8,336.4 L1197.9,337.7 C1193.4,337.9 1190.7,338.6 1189.8,339.6 Z M1182.1,336.4 C1182.7,336.7 1182.4,337 1182.1,337.2 C1181.8,337.1 1181.4,336.8 1182.1,336.4 Z M1182.9,318.4 L1174.3,319.1 L1174.2,317.8 L1182,317.1 L1188.8,315.4 C1188.9,316.2 1189.3,316.5 1190.2,316.4 C1198.3,315 1197.5,314.6 1201.4,314.3 C1202.7,314.2 1203.5,315 1203.6,316.6 L1182.9,318.4 Z M1213,315.8 C1208.2,315.3 1207.9,314.9 1204.5,315.2 L1204.4,314.1 L1212.1,313.4 L1212.2,314.5 C1211.4,314.6 1214.3,314.8 1213,315.8 Z M1213.6,314.4 L1213.5,313.3 L1217.7,312.9 L1217.8,314 L1213.6,314.4 Z M1222.9,313.6 L1222.8,312.5 C1223.5,312.4 1224.5,311.9 1225.8,310.9 C1227.9,310.7 1229,312.1 1229.2,313.7 L1222.9,313.6 Z M1234.8,312.1 L1234.7,310.8 L1239.8,310.4 L1239.9,311.7 L1234.8,312.1 Z M1241.9,311.5 C1241.8,310 1242.4,309.1 1243.7,308.9 L1245.4,311.1 C1245.3,310.4 1245.6,310 1246.2,309.9 L1247.5,312.3 L1241.9,311.5 Z M1166.4,344.1 L1166.2,341.6 L1165.4,341.7 L1165.6,344.2 L1166.4,344.1 Z M1342.1,298.6 C1342.9,298.1 1343.3,297.6 1341.4,297.3 C1340.5,298.3 1342.4,298.6 1340.4,298.7 L1340.5,299.6 C1340.7,299.4 1341.2,299.1 1341.6,298.8 L1340.5,299.7 L1340.5,299.8 L1338.4,302.5 L1342.6,301 L1343.1,301 L1342.9,298.5 L1342.1,298.6 Z M1349.4,304.3 L1348.6,304.4 L1348.8,306.9 L1354.7,306.4 C1354.6,304.8 1350.7,304.3 1349.4,304.3 Z M1340.3,299.9 L1340.4,299.8 L1340.4,299.7 C1340.4,299.7 1340.3,299.8 1340.3,299.9 Z" id="Shape" fill="#000000"></path>
        <path d="M956.4,114.8 L956.5,116.4 L959.8,116.1 C959.7,115.1 960.1,113.5 960.8,111.5 L960.5,108.6 C959.1,108.7 957.7,110.8 956.4,114.8 Z M924.8,38.8 L924.5,35.9 L919.8,36.3 L920.1,39.2 L924.8,38.8 Z M833.1,210.5 C832.9,207.8 824.5,197.3 807.9,178.8 C807.6,175.4 813.3,170.3 825,163.6 L858.4,134.5 C865.9,125 870.3,109.6 871.6,88.2 L871.2,83.3 C869.9,68.5 859.2,56.6 838.9,47.5 C826.9,39.4 805.3,34.9 774.1,34.1 C748.3,36.3 714.6,45.5 673.1,61.8 C661.7,70 648.7,78.2 634.1,86.4 L634.3,88.9 C635.2,88.8 636.6,88.3 638.2,87.2 C639.9,87 640.9,87.8 641,89.4 L643.5,88.1 L644.7,88 L644.8,89.1 C644.9,90.4 635.9,97.5 617.7,110.2 L619.1,112.8 L617.9,112.9 L614.9,111.8 C615,112.7 613.7,113.3 611.2,113.5 L611.3,114.6 L614.2,118.2 C613.3,118.3 611.9,117.9 610,117.2 C605.8,117.6 601.7,119.8 597.6,124 L599.3,116.6 C605.4,90.3 609.6,67 611.8,46.8 L611.5,45.5 C607.3,42.8 603.2,39 599.4,34.2 C599.5,31.1 599.5,29.3 599.4,28.9 L599.1,27.8 L597.9,28.1 C584.7,47.9 559.3,81.7 521.6,129.5 C492.9,163.5 478.1,182.4 477.2,186.2 C465.5,198.3 459.9,205.6 460.5,208.1 C457.4,210.1 456.1,212.1 456.6,214.3 C455.7,214.5 455.1,214.2 454.9,213.3 C449.9,221.4 442.5,226.6 432.6,228.9 L422.2,231.3 C420.8,231.6 420.1,232.6 420.2,234.3 L420.5,235.6 L424.4,234.7 L424.7,235.8 L415.9,239.2 L400.3,242.8 L392.1,243.3 C390.9,244.5 398.6,243.2 395.6,243.9 L385.4,246.3 C379.2,247.7 375.8,247.2 375.2,244.7 L374,245 C374.2,246.1 374.3,246.9 374.1,247.6 L373.5,245.1 L365.3,247 C364.7,243.2 353.6,229.4 332.1,205.6 C331.7,201 339.3,194.3 354.8,185.6 L398.6,147.1 C408.4,134.5 414.2,114.3 416.1,86.5 L415.5,80 C413.8,60.4 399.6,44.6 372.9,32.4 C357.1,21.7 328.7,16 287.7,15.1 C253.7,18 209.3,30.1 154.7,51.2 C139.7,62.1 122.6,72.9 103.4,83.6 L103.7,87 C105,86.9 106.7,86.2 108.8,85 C111,84.8 112.2,85.8 112.4,87.8 L115.8,85.9 L117.5,85.8 L117.6,87.4 C117.7,89 105.8,98.3 81.7,115.3 L83.6,118.3 L81.9,118.4 L78.2,117.1 C78.3,118.1 76.6,118.8 73.1,119.1 L73.3,120.9 L77.3,125.3 C76,125.4 74.2,125 71.9,124.2 C64.1,124.9 56.5,130.5 49,141.1 L50.9,144.1 C57.4,138.1 61.2,135.1 62.3,135 L62.7,139.9 C61.6,140 59.9,140.7 57.6,141.9 L61.7,148.1 C69.6,139.6 78.3,132.3 87.8,126.2 C92.5,127.4 95,128.9 95.1,130.5 L98.7,130.2 C124.5,111.1 150,97.3 175.3,88.8 L175.6,92.2 C170.9,99.2 167.7,102.8 166,103 C166.2,105.4 167,107.5 168.5,109.3 C168.9,113.6 157.4,142.6 134.1,196.2 C81.2,320.8 36.8,413 0.7,472.6 C0.8,473.8 1.5,475.4 2.8,477.4 C11.7,475.3 17.3,473.1 19.7,471 L21.6,470.8 L21.9,474.2 L25.2,473.9 L28.6,472 C28.7,473 29.8,473.5 32.1,473.3 L32.4,476.7 C32.7,480 30.8,485 26.8,491.9 C23.2,496 19.3,504.6 15.2,517.7 L15.3,519.3 L18.6,519 C33,502.9 43.9,487.1 51.4,471.7 C93.4,459.4 125.4,447.3 147.6,435.4 C169.9,433.5 186.9,427.6 198.5,417.9 L198.3,416.1 L189.9,418.6 L188,418.8 L187.8,417 C204.2,414.5 215.5,410.9 221.8,405.9 C253.7,381.3 277.8,363.9 294.1,353.6 C327.6,329 349.4,305 359.3,281.7 C361.1,281.3 362.9,280.9 364.9,280.4 C369.6,280.2 372.2,280.1 372.9,279.9 C372.7,279 373.1,278.5 374,278.3 C381.5,277.5 377.9,278.8 382.7,277.7 L395.3,274.8 L397.4,274.3 L396.4,274.9 C397.8,275.1 399.3,275 401,274.6 L401.9,278.3 L344.6,369.4 L331.9,385.3 L325.7,406.1 L326.9,405.8 L333.1,403.2 L331.1,411.3 L331.7,413.7 L333.4,415.8 C332.6,416 332.3,416.5 332.5,417.4 L332.8,418.7 L335.4,418.1 C339.2,414.8 340.8,411.8 340.2,409.1 C344.3,409.8 347,410.1 348.4,409.7 L348.7,411 C346.2,411.6 344.9,413.6 344.7,417 L345,418.3 L346.4,418 C367.2,395.3 418.2,317.6 459.1,264.9 C457.8,259.2 479.1,251.3 523.1,241.1 L524.5,240.8 C526.1,247.7 522.7,264.4 514.3,290.9 C508.9,306.9 506.3,315.7 506.7,317.1 C499.7,338.4 496.4,349.9 496.8,351.7 L481.2,402.8 C471.1,429 463.4,456.5 458,485.5 C458.9,485.3 460.3,485.4 462.3,485.9 L464.5,484 C464.7,484.9 465.3,485.2 466.2,485 L465.3,481.3 L472.1,481.1 C474.1,480.6 475.8,478.1 477.2,473.5 C476.9,466.6 478.3,462.9 481.4,462.1 C485.6,445.7 488.2,437.5 489.1,437.2 C493,420.9 495.9,411.6 497.8,409.3 C503.7,388.1 508,377.2 510.8,376.5 L511.4,379.1 L507.1,390.2 C499.6,423.5 492,449.8 484.3,469.1 L486.5,478.7 L487.9,478.4 C506.5,438.4 533.3,359.2 568.2,240.8 C569.2,230.4 574.2,222.3 583.1,216.6 L581.1,214.5 L580.8,213.4 C584.8,212.5 587.6,210.9 589.2,208.7 C589,207.8 585.5,206.5 578.7,204.7 L596.1,130.1 C599.9,126.7 602.1,124.9 602.8,124.9 L603.1,128.7 C602.2,128.8 600.8,129.3 599.2,130.4 L602.5,135.1 C608.5,128.6 615,123 622.1,118.3 C625.7,119.3 627.5,120.5 627.7,121.7 L630.3,121.5 C650.1,107 669.5,96.6 688.6,90.3 L688.8,92.8 C685.3,98.1 682.9,100.8 681.6,100.9 C681.8,102.7 682.3,104.3 683.2,105.7 C683.5,109 674.9,131 657.3,171.8 C617.1,266.3 583.4,336.2 556,381.6 C556.1,382.5 556.7,383.7 557.8,385.3 C564.5,383.7 568.8,382 570.5,380.4 L571.7,380.3 L571.9,382.8 L574.7,382.6 L577.2,381.3 C577.3,382 578.2,382.3 579.9,382.2 L580.1,384.9 C580.3,387.3 578.9,391.1 575.8,396.3 C572.9,399.4 569.9,405.9 566.7,415.8 L566.8,417.1 L569.4,416.9 C580.3,404.7 588.6,392.7 594.3,380.9 C626.2,371.5 650.5,362.4 667.3,353.4 C684.4,351.9 697.3,347.5 706.1,340.1 L706,338.8 L699.5,340.7 L698.1,340.8 L698,339.5 C710.4,337.7 719.1,334.9 723.8,331.2 C748,312.6 766.3,299.3 778.7,291.5 C817.3,263.4 835.3,236.4 833.1,210.5 Z M826.5,212.2 L827.4,222.3 C826.2,224.8 824.9,226.1 823.7,226.2 L822.2,209 C825,210 826.4,211 826.5,212.2 Z M69.3,130.8 L67.6,130.9 L67.3,127.8 L74.2,127.2 L74.3,128.8 C73.2,128.9 71.5,129.5 69.3,130.8 Z M35.6,467.9 C31.6,466.1 28,465.4 24.9,465.7 L24.5,460.8 C24.3,458.9 25.4,457.6 27.8,457.1 C30,456.9 31.3,458.5 31.5,461.7 C37.3,454.6 40.5,451 41.1,450.9 L44.8,452.4 C43.6,462.4 40.5,467.5 35.6,467.9 Z M395.7,91.2 C394,91.4 390.6,86.1 385.7,75.6 L385.4,72.5 C388.6,72.2 391.9,77.4 395.4,88.1 L395.7,91.2 Z M390.9,53.9 L389.5,57.2 L340.6,36.8 C373.2,37.9 390,43.6 390.9,53.9 Z M184.4,231.2 L177.5,231.8 L177.2,228.7 L184.1,228.1 L184.4,231.2 Z M178.8,124.7 L180.5,124.6 L180.9,129.5 C179.3,129.6 177.2,132 174.6,136.6 L174.3,133.2 C177.4,129.5 179,126.7 178.8,124.7 Z M164.3,158.9 L164.9,165.4 L163.2,165.5 L162.6,159 L164.3,158.9 Z M156.7,171.1 L160,170.8 C159.7,176.2 158.2,179.1 155.5,179.3 L153.8,179.4 C155.9,175.8 156.9,173 156.7,171.1 Z M151,188.1 L152.9,187.9 L153,189.5 L149.9,194.7 L146.6,195 L146.5,193.4 C149.8,193.1 151.3,191.4 151,188.1 Z M145.4,203.4 L144.4,211.6 L142.7,211.7 L142,203.6 L145.4,203.4 Z M89.3,362.9 C87.1,374.1 84.7,379.8 82.2,380 L82.1,378.4 C81.5,372.9 83.9,367.7 89.3,362.9 Z M79,385.2 L79.1,386.8 C79.3,389 78.3,390.3 76.1,390.4 L76,388.8 C75.8,386.9 76.8,385.7 79,385.2 Z M76,431.5 L81.2,431 L81.4,432.8 C80.1,432.9 78.4,433.6 76.3,434.8 L73,435.1 C72.8,433.4 73.9,432.1 76,431.5 Z M224,385.8 C194.8,400.2 177.6,410 172.5,415.1 C140.9,426.1 125.2,432.9 125.5,435.6 C97.4,446.7 78.9,454.9 70,460 C67.9,460.2 64.9,459.4 60.9,457.6 C60.4,451.9 63,447.3 68.5,443.6 C73.4,443.2 78.1,443.9 82.6,445.8 C87.8,443.1 96.9,440.1 109.8,436.9 L109.5,433.5 L99.1,434.4 C100.4,432.6 110.4,427.9 129.2,420.3 L134.4,419.8 L134.5,421.4 C125.6,422.2 120.7,424.8 119.6,429.5 C119.8,431.6 121,432.5 123.2,432.3 C129.9,428.1 133.2,425.6 133.1,424.9 C145.8,422.5 180.9,404.1 238.4,369.8 L238.7,372.9 C238.8,374.4 233.9,378.6 224,385.8 Z M135.8,414.8 C144.2,414.1 151.4,410.7 157.4,404.8 C159.8,404.6 161.1,405.5 161.2,407.6 C157.1,408 149.2,411.4 137.7,418 L136,418.1 L135.8,414.8 Z M278.1,305.5 L234,340.5 C201.2,362 183.6,372.8 181,373 C128.8,401.7 96.3,416.6 83.7,417.7 L81.8,417.9 C83.4,412 106.6,364.5 151.6,275.1 C171.4,273.4 202.6,264.2 245.1,247.4 L255.5,246.5 C277,244.6 293.1,248.8 303.7,258.8 L304.3,265.3 C296.4,288.2 287.6,301.6 278.1,305.5 Z M191.9,257 L199,256.4 L199.1,258 L192,258.6 L191.9,257 Z M291.6,240.1 L296.8,239.6 C301.6,241.9 304.1,243.9 304.3,245.7 L304.4,247.3 C299.8,247.7 295.5,245.3 291.6,240.1 Z M305.7,159.8 C301.1,165.3 288.5,174.7 267.9,187.9 C261.1,188.5 235.8,198.3 192,217.5 C189.8,216.5 187.5,216.1 185,216.3 L184.7,213.2 C184.2,206.9 187,199 193.2,189.4 C196.6,171.4 200.3,161.1 204.4,158.6 L240.9,76.5 C240.5,71.4 248.3,67.5 264.3,64.8 L269.5,64.3 L269.9,69 C285.6,66.6 295.4,65.2 299.2,64.9 C328.2,62.4 343.3,68.3 344.5,82.4 L347.8,82.1 L347.1,73.8 L350.7,73.5 C359.2,78.2 363.8,83.9 364.4,90.6 C364.8,95.2 362.3,100.9 357,107.7 C354.8,107.9 353.5,106.3 353.3,103.1 L349.7,103.4 L348.9,113.4 C334.2,135.4 323.5,146.7 316.9,147.3 C310.9,155.6 307.2,159.7 305.7,159.8 Z M328.1,217.3 C325.1,215.3 322.7,214.4 320.9,214.5 L320.5,209.6 L323.8,209.3 L331.1,213.6 C331.4,215.9 330.4,217.1 328.1,217.3 Z M351.3,244.8 C354.5,246.1 356.4,247.5 356.8,248.8 L355.2,249.2 L355.3,249.3 C355,249.3 354.6,249.4 354.3,249.5 L351.9,251.4 L351.3,244.8 Z M353.5,258.6 L353.2,257.3 L357.4,256.3 L357.7,257.6 L353.5,258.6 Z M363.6,269.9 C367.9,269.2 370,268.9 378,267.1 L378.3,268.4 L363.1,271.9 C363.3,271.2 363.5,270.5 363.6,269.9 Z M378.4,276.2 C372,276.8 373.4,276 363.2,278.3 L362.9,277 L375.7,272.9 L381.8,271.5 L382.4,273.9 C379.6,274.5 381.6,274.5 378.4,276.2 Z M391.9,273 C390.4,273.4 389.2,272.7 388.5,271 L392.4,270.1 C394.1,269.7 395.2,270.4 395.6,272.1 L391.9,273 Z M428.5,233.6 L428.2,232.3 L434.5,230.8 L435.1,233.2 L428.5,233.6 Z M467.6,473.4 C468,471.6 468.1,470.3 467.9,469.4 L469.3,469.1 C471,468.7 472,469.3 472.4,470.9 L472.7,472.2 L467.6,473.4 Z M495,243.9 L492.2,243.4 C487.7,245.2 483.9,246.5 480.8,247.2 L478.2,247.8 C476.7,248.2 475.5,247.6 474.9,246 L493.2,241.8 L499.2,239 L501.2,241.3 C498.3,241.9 496.2,242.8 495,243.9 Z M509.1,239.4 L508.8,238.1 C509.7,237.9 510.9,237.2 512.2,235.9 L525.2,232.9 L525.5,234.2 C518.6,235.9 513.1,237.6 509.1,239.4 Z M511.1,213.1 C510.2,213.3 509,214.1 507.5,215.3 C507.3,214.4 505.5,214.4 502.1,215.2 C501.5,212.7 511.1,209.2 531,204.6 L533.8,204 L534.4,206.4 C520.4,210.5 512.6,212.8 511.1,213.1 Z M546.1,175.3 C544.7,191.2 539.1,200.2 529.2,202.5 L528.9,201.2 L520.1,204.6 L516.2,205.5 C514.2,206 512.4,205.9 510.8,205.4 L510,201.9 C509.7,200.6 522.4,183 548.2,149.2 L551.2,149.7 C552.3,154.3 550.6,162.8 546.1,175.3 Z M608,122.3 L606.8,122.4 L606.6,119.9 L611.8,119.4 L611.9,120.7 C611,120.9 609.7,121.4 608,122.3 Z M582.5,378.4 C579.5,377 576.8,376.4 574.5,376.6 L574.2,372.8 C574.1,371.5 574.9,370.6 576.6,370.1 C578.3,369.9 579.3,371.1 579.5,373.7 C583.8,368.2 586.2,365.4 586.7,365.4 L589.4,366.5 C588.4,374.1 586.1,378.1 582.5,378.4 Z M855.9,92.4 C854.6,92.5 852.1,88.5 848.2,80.4 L848,77.9 C850.5,77.7 853.1,81.6 855.7,89.6 L855.9,92.4 Z M852.3,63.8 L851.1,66.4 L814.1,50.9 C838.8,51.7 851.6,56 852.3,63.8 Z M695.4,198.5 L690.2,199 L690,196.5 L695.2,196 L695.4,198.5 Z M691.1,117.6 L692.5,117.5 L692.8,121.3 C691.5,121.4 689.9,123.2 688,126.7 L687.8,124.2 C690.1,121.3 691.2,119.1 691.1,117.6 Z M680.2,143.6 L680.6,148.5 L679.2,148.6 L678.8,143.7 L680.2,143.6 Z M674.3,152.9 L676.9,152.7 C676.6,156.9 675.5,159.1 673.6,159.3 L672.2,159.4 C673.7,156.6 674.4,154.4 674.3,152.9 Z M670.1,165.7 L671.3,165.6 L671.4,166.9 L669.1,170.9 L666.5,171.1 L666.4,169.8 C669.1,169.6 670.3,168.2 670.1,165.7 Z M665.9,177.3 L665,183.7 L663.8,183.8 L663.3,177.5 L665.9,177.3 Z M623.2,298.6 C621.5,307 619.7,311.3 617.8,311.5 L617.7,310.4 C617.4,306.2 619.2,302.2 623.2,298.6 Z M615.3,315.5 L615.4,316.6 C615.6,318.4 614.8,319.4 613,319.5 L612.9,318.2 C612.8,316.9 613.6,316 615.3,315.5 Z M613.1,350.7 L617.1,350.4 L617.2,351.7 C616.3,351.8 614.9,352.3 613.3,353.2 L610.7,353.4 C610.6,352 611.4,351.1 613.1,350.7 Z M725.4,316 C703.4,326.9 690.3,334.3 686.2,338.1 C662.2,346.5 650.3,351.7 650.5,353.8 C629.2,362.3 615.2,368.4 608.6,372.3 C607,372.4 604.7,371.8 601.7,370.4 C601.3,366.1 603.3,362.6 607.5,360 C611.3,359.7 614.9,360.2 618.2,361.6 C622.2,359.6 629.1,357.4 638.9,354.9 L638.7,352.4 L630.6,353.1 C631.6,351.7 639.3,348.1 653.6,342.3 L657.6,342 L657.7,343.1 C650.9,343.7 647.1,345.7 646.3,349.3 C646.4,350.9 647.4,351.7 649.1,351.5 C654.1,348.2 656.5,346.3 656.5,345.7 C666.1,344 692.7,330 736.4,303.8 L736.6,306.3 C736.6,307.3 732.9,310.5 725.4,316 Z M658.4,338 C664.9,337.4 670.4,334.9 675,330.5 C676.7,330.4 677.7,331.1 677.8,332.7 C674.8,333 668.9,335.5 660,340.3 L658.6,340.4 L658.4,338 Z M766.6,254.9 L733.3,281.7 C708.4,298 694.9,306.2 692.8,306.4 C653.2,328.2 628.6,339.5 618.9,340.3 L617.5,340.4 C618.7,335.9 636.4,299.8 670.6,232 C685.5,230.7 709.1,223.6 741.5,210.8 L749.6,210.1 C765.9,208.7 778.1,211.9 786.1,219.6 L786.5,224.5 C780.4,241.7 773.8,251.8 766.6,254.9 Z M701.2,218.1 L706.4,217.6 L706.5,218.9 L701.3,219.4 L701.2,218.1 Z M776.9,205.2 L780.9,204.9 C784.6,206.7 786.5,208.3 786.6,209.6 L786.7,210.7 C783.2,211 779.9,209.2 776.9,205.2 Z M787.4,144.3 C783.9,148.5 774.4,155.7 758.9,165.7 C753.7,166.2 734.5,173.6 701.3,188 C699.7,187.4 697.9,187.2 696,187.3 L695.8,184.8 C695.4,180 697.5,174 702.1,166.7 C704.7,152.9 707.6,145.2 710.6,143.4 L738.5,81 C738.2,77.3 744.1,74.3 756.1,72 L760.1,71.7 L760.4,75.5 C772.2,73.6 779.6,72.5 782.6,72.2 C804.6,70.3 816.1,74.7 817,85.5 L819.6,85.3 L819.1,79.3 L821.7,79.1 C828.1,82.6 831.5,86.8 831.9,91.8 C832.2,95.4 830.4,99.8 826.6,104.9 C824.9,105.1 823.9,103.9 823.7,101.3 L821.1,101.5 L820.3,109 C809.2,125.9 801.1,134.6 796,135 C791.5,141.1 788.7,144.2 787.4,144.3 Z M799.1,185.9 L798.8,182.1 L801.4,181.9 L807,185.3 C807.1,186.9 806.3,187.8 804.6,188 C802.2,186.5 800.4,185.8 799.1,185.9 Z M333.6,428.8 L331,429.4 L328.8,431.3 C329.2,432.9 330.2,433.5 331.9,433.1 C333.6,432.7 334.3,431.7 333.9,430.1 L333.6,428.8 Z M323.7,409.1 L324,410.4 C325.7,410 326.4,409 326,407.4 L325.7,406.1 C324.1,406.5 323.4,407.5 323.7,409.1 Z M394.5,276.1 L396.4,274.9 C396,274.9 395.7,274.8 395.4,274.7 C394.7,274.9 394.4,275.4 394.5,276.1 Z M394.1,241.6 L397.1,240.9 L396.5,238.3 L393.5,239 L394.1,241.6 Z M1100.8,342.6 L1094,341.8 L1092.8,344.4 L1092.9,345.7 L1133.4,342.3 L1133.2,339.8 L1100.8,342.6 Z M1137.8,339.5 L1138,342 L1138.4,342 L1138.2,339.5 L1137.8,339.5 Z M1307.7,317.3 L1307.9,319.8 L1312.3,320.6 L1312.1,318.1 L1307.7,317.3 Z M1301.5,317.8 C1271.1,324.6 1267.3,323.4 1260.9,323.9 L1261.1,326.4 L1263.9,326.2 L1265.4,326.1 L1265,325.8 L1268.3,324.5 C1298.4,321.2 1301.9,322.4 1301.6,319 L1301.5,317.8 Z M1119,273.6 L1116.3,272.7 C1114.1,278.6 1113,282.1 1113.1,283.1 L1113.2,284.2 C1115.3,284.1 1117.2,280.5 1119,273.6 Z M1082.4,253.9 L1082.3,252.6 L1080.9,252.7 L1078.4,254.3 L1079.8,256.7 C1081.7,256.5 1082.6,255.6 1082.4,253.9 Z M1161.9,336.1 L1161.7,333.6 L1160.9,333.7 L1161.1,336.2 L1161.9,336.1 Z M1326.9,298.9 L1328.8,298.7 C1329.9,298.6 1330.4,297.7 1330.3,296.1 L1329.2,293.7 C1322.3,294.3 1319.1,294.6 1313.5,297.7 L1313.4,296.4 L1305.1,297.2 C1304.9,294.7 1304.2,293.4 1303.1,293.5 L1298.8,293.9 C1293.8,294.3 1291.4,294.1 1288.9,296 C1288.8,295.1 1288.5,294.7 1288,294.7 L1283.2,295.1 L1280.4,296.7 C1280.3,295.8 1280,295.4 1279.5,295.4 L1277.8,296.9 L1277.7,295.6 L1271,295.1 L1269.4,295.2 L1269.6,297.7 L1273,298.6 L1276.2,298.4 C1277.3,299.1 1278.5,299.3 1279.9,299.2 L1282.7,297.8 L1282.8,298.9 C1267.1,302.8 1267.2,302.1 1256.4,303.9 C1255.2,303.1 1254.3,302.7 1253.7,302.8 L1253.5,303 C1252.3,302.9 1251.6,302.1 1251.5,300.8 L1257.1,300.1 C1257.5,300.1 1257.8,300.5 1260.9,301.1 C1265.4,298.9 1265.6,298 1268,297.8 L1267.8,295.3 C1252.4,298.3 1258.6,296.3 1239.3,298 L1238.4,298.1 L1238.2,295.6 C1263,292.6 1254.7,294.3 1263.2,291.9 C1263.3,292.8 1263.6,293.2 1264.1,293.2 C1265.1,292.2 1266.2,291.7 1267.5,291.5 L1269.2,291.4 C1277.9,290.7 1280.8,292.4 1298,287.6 L1298.1,288.7 L1300.9,287.3 L1303.5,287.1 C1303.3,284.6 1307.1,284.2 1308.4,284.1 L1308.2,281.4 C1278,287.5 1270.1,285.8 1261.7,288.2 L1261.6,287.1 C1253.7,288.5 1253.4,287.9 1251.4,288 C1250.8,288.1 1249.9,288.6 1248.9,289.6 C1248.8,288.7 1248.5,288.3 1247.9,288.3 C1247.6,288.3 1247.5,288.4 1247.4,288.4 L1221.8,292.6 C1221.7,291.9 1221.4,291.5 1220.8,291.6 C1207.5,294.4 1211.1,294.9 1193.3,296.5 C1192.5,296.6 1191.4,297 1190,297.9 C1189.9,297.2 1189.5,296.8 1188.6,296.9 L1177.7,297.8 L1170.4,299.6 C1170.3,298.9 1169.9,298.5 1169,298.6 C1164.9,299.7 1161.3,300.4 1158.4,300.6 L1158.2,300.6 C1156.4,300.8 1159.1,300.1 1157.7,299.5 L1155.5,300.8 C1152.3,301.1 1154,300.6 1143,300.7 C1123.7,303.1 1125.8,303.4 1123.7,303.5 L1116.5,303 C1116.6,303.7 1116.2,304.2 1115.4,304.2 C1107.2,303.1 1103,301.8 1102.9,300.3 C1104,292.5 1105.9,288.5 1108.6,288.3 L1110,288.2 L1108.8,290.8 L1110.2,290.7 C1112.8,289.3 1114,288 1113.9,286.8 L1113.7,284.1 L1111.1,284.3 L1110.9,281.8 C1110.7,279.9 1111,278.2 1111.7,276.8 L1117.6,267.3 L1117.8,269.8 L1120.6,269.6 L1120.4,267.1 L1118.8,264.8 C1120.9,263 1122.5,262 1123.8,261.9 L1123.7,260.6 L1119.9,260.9 L1119.6,257.1 C1127.2,241.3 1130.8,232.1 1130.6,229.5 L1133.3,230.6 C1135,230.5 1135.8,229.5 1135.7,227.7 L1133.1,227.9 L1133,226.8 C1132.8,224.9 1133.2,223.1 1134,221.5 C1138.1,217.2 1140,212.9 1139.6,208.4 C1140.4,208.3 1140.8,208.7 1140.9,209.6 C1144.4,207.6 1147.1,202.3 1149.1,193.5 C1155.3,182.3 1164.1,159.9 1175.6,126.4 C1197.6,67.2 1196.7,60.9 1199.8,46.9 L1197.2,47.1 C1197.4,48.9 1197,50.6 1196.2,52.2 C1194.4,51.5 1193,51.1 1192,51.2 L1191.9,50.1 C1191.5,45 1193.6,38.9 1198.4,31.7 L1199.6,31.6 L1201.8,40.2 L1204.4,40 C1204.3,39.4 1205,36 1206.4,29.7 C1206.3,28.4 1205.3,27.6 1203.3,27.5 L1200.8,29.1 C1200.6,27.3 1200.7,22.6 1201,15.1 L1199.7,15.2 C1197.5,13 1196.4,11.2 1196.3,9.7 L1182,11.1 C1181.9,10.1 1181.4,8.6 1180.4,6.7 C1180.3,5.4 1183.5,4.1 1190.1,2.8 L1193,3.9 L1195.7,2.3 C1195.8,3.2 1196.3,3.6 1197.3,3.5 L1200,1.9 C1200.1,2.8 1200.6,3.2 1201.6,3.1 L1202.9,3 L1202.7,0.1 C1200.7,0.3 1195.4,0.3 1187,0 L1184.3,1.8 L1184.2,0.2 C1117.1,5.7 1079,8.8 1069.9,9.7 C1068.7,9.8 1064,9.7 1055.7,9.5 C1055.8,10.6 1054.8,11.2 1052.8,11.4 L1049.9,10.1 L1040.1,12.6 C1037.8,12.8 1033.9,12.7 1028.5,12.1 C1027,13.3 1025.2,14 1023,14.2 C1021.8,14.3 1037.3,13.4 1051.7,12.4 C1050.2,13.6 1047.9,14.3 1044.7,14.6 C1042.5,14.8 1040.6,14.5 1039,13.6 C1036.8,14.6 1029.7,16.2 1017.8,18.6 L1014.9,17.5 L968.1,24.7 C966.3,23.8 964.2,23.5 961.8,23.7 C959.3,23.9 955.1,24.8 949.3,26.4 L926.7,35.8 L928.4,38.6 C929.5,38.5 931.1,37.9 933,36.8 L941,37.5 L940,45 C932.6,48.3 928.3,53.2 927.1,59.4 C916,64.3 910.5,67.8 910.5,69.9 L910.6,71.2 L912.3,71.1 L915.3,69.5 L918.8,73.7 L919.3,79.5 C919.5,81.3 900.8,120.6 863.4,197.4 C831,271.4 814,311.9 812.4,319.2 C801.3,322.3 794.9,326.8 793,332.8 C793.2,334.7 796.5,336 802.9,336.5 L803.2,339.4 L800.3,344.2 L800.8,350 C801.1,353 809.2,355.3 825.1,356.9 C825,355.9 825.5,355.3 826.6,355.2 C826.9,358.8 825.9,365.8 823.6,376.2 L825.3,376.1 C831.9,367.1 835,360.9 834.7,357.5 L836.1,357.4 C837.7,357.3 839.4,359.1 841.4,363 C839.4,363.8 832.4,379.7 820.4,410.8 L822.1,413.6 L823.8,413.5 C838.5,376.3 847.7,355.7 851.5,351.8 C870.8,350.1 904.2,346.7 951.6,341.6 L954.6,339.8 C954.7,340.8 955.3,341.3 956.4,341.2 L959.5,340.9 L962.5,339.1 C962.6,340.1 963.2,340.6 964.3,340.5 L1000.2,337.4 C1009.7,336.6 1014.2,333.7 1013.8,328.8 C1013.7,327.5 1019.3,326 1030.6,324.4 C1031.7,324.3 1033.3,324.6 1035.5,325.3 C1035.4,324.4 1041.1,323.5 1052.5,322.5 C1052.8,316.5 1054.7,313.3 1058.1,313 L1057.8,310.1 C1054.6,310.4 1051,311.2 1046.8,312.6 C1039.3,312.2 1034.5,311.6 1032.5,310.9 C1030.5,312 1029,312.6 1027.9,312.7 L1002.9,313.5 L999.9,315.1 C999.8,314.2 999.2,313.8 998.1,313.9 L996.7,314 L993.5,315.6 C993.4,314.7 990.8,314 985.6,313.3 L982.4,315.2 L976.2,315.7 L976.1,314.1 C1008.3,310.6 1024.2,306.2 1023.8,301 C1025.9,300.8 1027,301.8 1027.2,303.9 L1036.6,301.5 L1036.3,298.6 L959.2,300.7 C959.3,301.7 958.8,302.3 957.7,302.4 L948.3,301.6 C945.9,301.8 943.9,302.5 942.3,303.7 L938.8,302.4 C929.1,303.2 921.9,304.4 917.1,305.9 C910.5,305.4 903.2,305.5 895.1,306.2 L877.8,307.7 L869.8,306.8 C869.4,301.7 879.3,276.6 899.7,231.6 C905.6,216.4 911,206.9 916.2,203.3 C917.3,203.2 918.9,203.6 921.1,204.5 L933.4,200.3 L939.7,201.3 C950.3,200.4 962.6,197.4 976.7,192.2 C980.2,191.9 982.8,192.1 984.7,192.9 L994.1,190.7 L1022.1,188.3 C1034,187.3 1046.9,184.7 1060.9,180.4 L1060.6,177.5 C1055.4,178 1052.7,177.1 1052.5,175 C1052.2,171.1 1048.4,169.5 1041.1,170.1 L1040.8,167.2 L1048.5,165 L1068.7,163.3 L1068.4,160.4 C1067.6,160.5 1063.5,160.4 1055.9,160.1 L1055.6,157 L1063.4,156.3 C1065.5,156.1 1066.4,155.1 1066.2,153.1 C1055.7,153.4 1050.4,152.9 1050.3,151.5 C977.1,155.1 940.4,155.8 940.2,153.5 C939.1,153.6 937.6,154.3 935.6,155.5 L933.7,152.5 C953.1,111.3 964.5,90.5 967.8,90.2 C967.9,91.8 967.1,94.4 965.4,97.9 L965.5,99.2 L968.6,98.9 C976.3,80.5 982.8,71 988.2,70.6 C1011.2,68.6 985,67.1 1034.2,59.4 C1036.2,60.3 1037.6,60.7 1038.6,60.6 C1057.9,56.7 1084.8,52.6 1119.3,48.4 L1119.1,45.5 L1100.7,47.2 L1100.5,44.3 C1102.7,44.1 1104.5,43.4 1106,42.2 L1106.1,43.8 C1107.1,43.7 1108.5,43 1110.3,41.8 C1113.5,41.5 1115.9,41.8 1117.6,42.7 C1124,41 1129.2,40 1133,39.6 L1144.5,38.5 C1147.3,36.7 1148.6,35.1 1148.5,33.6 L1148.4,32.3 C1145.5,32.6 1142.2,32.4 1138.3,31.7 C1138.2,30.1 1139,29 1140.9,28.5 L1162.3,26.5 L1172.1,24 C1172.2,25.1 1172.7,25.5 1173.5,25.5 C1174.5,25.4 1175.9,24.7 1177.7,23.5 C1178.2,23.6 1178.8,23.6 1179.3,23.7 C1178,26.4 1176.5,30.3 1175,35.4 L1172.2,35.6 C1172,33.7 1171.5,32 1170.6,30.5 L1169.2,30.6 C1143.2,103 1131.6,136.7 1107.6,192.3 C1103.2,206.5 1099.5,214.4 1096.3,216.1 C1096.4,217.7 1097.4,218.5 1099.1,218.3 C1099.7,225.3 1098.1,232.2 1094.2,239 C1083.1,271 1075.7,288.5 1071.9,291.7 L1074.4,306.8 C1074.5,308.4 1073.7,309.3 1072,309.5 L1069.4,309.7 C1069,305.5 1067.5,303.5 1064.8,303.8 L1063.4,303.9 C1060,309.2 1057.4,315.3 1055.7,322.4 L1058.3,322.2 C1061.8,319.9 1063.4,317.2 1063.1,314.1 L1068.3,313.6 L1071.3,314.7 C1068.9,318.5 1067.8,321.5 1068,323.8 L1069.4,326.2 L1066,334.2 L1066.1,335.5 C1069.1,335.2 1072.4,336.2 1075.9,338.3 C1078.3,338.1 1080.9,337 1083.8,335.1 C1086.8,334.8 1098,334.7 1117.3,334.7 L1127,331.4 C1138.8,331.3 1140.7,331.6 1150.9,330.7 L1155.1,330.3 L1157.3,328.8 L1157.4,330.1 C1168.1,329.2 1168.8,329.9 1177.2,330.9 L1177.3,332.2 L1171.4,332.7 L1171.6,335.2 C1173.4,335 1175,334.5 1176.3,333.4 C1177.8,333.3 1178.7,334.1 1178.8,335.9 C1176.4,336.1 1173.7,336.7 1170.7,337.7 L1168.1,336.8 C1164,337.9 1164.9,338.2 1162.1,338.4 L1158,337.6 C1158.1,338.3 1157.7,338.8 1157,338.8 C1157.1,340.4 1158,341.2 1159.5,341.1 L1163.7,340.7 L1185.6,338.8 L1193.9,337 C1194,337.7 1194.3,338.1 1195,338 L1199,336.5 L1206.5,335.9 C1212.3,335.4 1212.2,335 1224.8,333 C1224.7,332.2 1225,331.9 1225.6,331.8 L1225.7,332.9 C1246.2,329.4 1247.5,329.2 1250.8,328.1 L1251.1,328.7 C1256.2,327.5 1253.3,327.8 1254.7,326.8 C1254.8,327.7 1255.1,328.1 1255.6,328.1 L1259.2,327.8 L1259,325.1 L1251.7,325 L1251.6,324.8 C1251.3,324.9 1251.1,324.9 1250.8,325 L1249.8,325 L1249.8,325.2 C1244.9,326.2 1244.8,325.5 1241.6,325.8 L1223.3,326.8 L1223.2,325.5 L1233.4,324.1 L1237.1,323.8 L1239.2,322.3 L1239.3,323.6 C1253.7,322.4 1258.8,326 1325.4,311.8 C1329,311.5 1328.7,308.5 1331,302.3 C1329.8,302.4 1328.6,302.1 1327.5,301.5 C1322,303.6 1319.1,302.6 1308.5,304.3 C1307.6,304.4 1306.9,303.6 1306.6,302 L1306.5,300.9 L1316.7,301.2 C1318.6,301 1322.3,300.7 1327.8,297.6 C1327.8,298.5 1325.7,299 1326.9,298.9 Z M834.5,306.8 L829.8,307.2 C829.6,305.3 832.1,298.1 837.3,285.8 L840.4,285.5 C840.5,288.4 838.6,295.5 834.5,306.8 Z M840.2,284 L840.1,282.7 C840,281.1 841,280 843.2,279.5 L843.3,280.8 C843.4,282.7 842.4,283.8 840.2,284 Z M902.7,332.3 L902.8,333.6 L895,334.3 L894.9,333 L902.7,332.3 Z M893.3,331.5 C893.4,333.1 891,334.9 885.8,336.7 L876.2,336 L873.1,336.3 L872.8,333.4 L893.3,331.5 Z M956.5,40.6 L951.8,41 L951.7,39.4 C951.6,37.8 952.5,36.7 954.5,36.2 L956.2,36.1 L959.4,37.4 C959.5,39.3 958.6,40.4 956.5,40.6 Z M1028,26.6 L1029.5,26.5 L1029.7,29.4 L1025.4,29.8 C1025.3,28.2 1026.1,27.1 1028,26.6 Z M1010,32.9 L1002.9,32.1 L1002.8,30.8 C1012.1,30 1015.2,29 1020.9,27.4 C1021,28.5 1022,28.9 1023.8,28.7 L1024,31.6 L1021.2,31.9 C1019,32.1 1017.1,31.8 1015.5,30.9 C1013.8,32 1012,32.7 1010,32.9 Z M1018.9,58.8 L1018.8,57.5 L1030.3,56.4 L1030.4,57.7 L1018.9,58.8 Z M1031.2,48.8 L1031.1,47.2 L1036.7,46.7 L1036.8,48.3 L1031.2,48.8 Z M1032.5,29.2 L1031,29.3 L1032.3,26.2 L1045.1,25 L1045.2,26.6 C1041.9,26.9 1037.6,27.8 1032.5,29.2 Z M1039,56.8 L1038.8,53.9 L1044.4,53.4 C1046.3,53.2 1047.3,54.1 1047.4,56.1 L1039,56.8 Z M1072.9,10.6 L1065.7,12.6 L1064.4,12.7 C1061,13 1056.6,12.9 1051.4,12.4 C1060.7,11.8 1069.6,11.1 1072.9,10.6 Z M1065.2,42.6 L1065.3,43.9 L1055.4,44.8 L1055.3,43.5 L1065.2,42.6 Z M1081.4,50.3 C1081.3,49.1 1079.4,48.3 1075.5,47.9 L1065.6,50.7 L1058,51 C1056.3,49.8 1055.4,49 1055.3,48.4 L1064.1,48.9 L1083.9,45.7 L1094,46.1 L1094.1,47.7 C1089.1,48.2 1084.9,49.1 1081.4,50.3 Z M1183.3,24 C1184.5,24.1 1185.3,24.1 1185.6,24.1 C1189.1,20.7 1193,18 1197.5,16.1 C1193.9,31.9 1188.3,43.6 1180.6,51.2 L1175,47.8 C1179.7,35.9 1182.5,28 1183.3,24 Z M1166.1,53.5 L1167.5,53.4 C1165.6,57 1163.9,58.9 1162.5,59 L1162.2,55.2 C1163.1,55.2 1164.4,54.6 1166.1,53.5 Z M1155,80 C1157.7,69.2 1160.3,63.1 1162.7,61.5 L1162.8,62.8 C1161.4,72.8 1159.2,78.1 1156.3,78.5 L1156.8,84.8 C1154.4,88.2 1153.3,90.8 1153.4,92.8 L1152,92.9 L1151.2,84.2 C1152.8,84 1154.1,82.6 1155,80 Z M1150.7,94.4 C1150.8,95.9 1149.8,99.4 1147.8,104.8 L1146.4,104.9 L1146.1,101.1 C1148,96.7 1149.6,94.5 1150.7,94.4 Z M1070,328.6 L1069.9,327.5 L1072.5,327.3 L1072.8,331.1 C1071.4,331.2 1070.4,330.4 1070,328.6 Z M1185.3,331.6 C1185.2,330.7 1184.8,330.3 1183.9,330.4 L1177.4,331 L1177.3,329.7 L1177.9,329.7 L1193.3,328.4 L1193.4,329.7 C1188.9,329.9 1186.2,330.6 1185.3,331.6 Z M1177.6,328.4 C1178.2,328.7 1177.9,329 1177.6,329.2 C1177.3,329.1 1176.9,328.8 1177.6,328.4 Z M1178.4,310.4 L1169.8,311.1 L1169.7,309.8 L1177.5,309.1 L1184.3,307.4 C1184.4,308.2 1184.8,308.5 1185.7,308.4 C1193.8,307 1193,306.6 1196.9,306.3 C1198.2,306.2 1199,307 1199.1,308.6 L1178.4,310.4 Z M1208.5,307.8 C1203.7,307.3 1203.4,306.9 1200,307.2 L1199.9,306.1 L1207.6,305.4 L1207.7,306.5 C1206.9,306.6 1209.8,306.8 1208.5,307.8 Z M1209.1,306.4 L1209,305.3 L1213.2,304.9 L1213.3,306 L1209.1,306.4 Z M1218.4,305.6 L1218.3,304.5 C1219,304.4 1220,303.9 1221.3,302.9 C1223.4,302.7 1224.5,304.1 1224.7,305.7 L1218.4,305.6 Z M1230.3,304.1 L1230.2,302.8 L1235.3,302.4 L1235.4,303.7 L1230.3,304.1 Z M1237.4,303.5 C1237.3,302 1237.9,301.1 1239.2,300.9 L1240.9,303.1 C1240.8,302.4 1241.1,302 1241.7,301.9 L1243,304.3 L1237.4,303.5 Z M1335.8,291.9 L1335.9,291.8 L1335.9,291.7 C1335.9,291.7 1335.8,291.8 1335.8,291.9 Z M1337.6,290.6 C1338.4,290.1 1338.8,289.6 1336.9,289.3 C1336,290.3 1337.9,290.6 1335.9,290.7 L1336,291.6 C1336.2,291.4 1336.7,291.1 1337.1,290.8 L1336,291.7 L1336,291.8 L1333.9,294.5 L1338.1,293 L1338.6,293 L1338.4,290.5 L1337.6,290.6 Z M1344.9,296.3 L1344.1,296.4 L1344.3,298.9 L1350.2,298.4 C1350.1,296.8 1346.2,296.3 1344.9,296.3 Z" id="Shape" fill="#F9DC3E"></path>
    </g>
  </g>
</svg>
