<svg xmlns="http://www.w3.org/2000/svg" width="24" height="24" viewBox="0 0 24 24"><path d="M4.342 12.166l-4.342-4.343 1.358-1.358s1.092.735 1.982-.156c.969-.969.68-2.413 2.828-4.03 1.276-.961 2.769-1.279 4.187-1.279 2.793 0 5.3 1.234 5.3 1.234-4.531.453-6.236 2.25-4.363 4.123l1.096 1.095-3.535 3.535-1.072-1.071c-.564-.564-1.417-1.197-2.048-.567-.699.698-.033 1.458-.033 1.458l-1.358 1.359zm8.753-4.007l-3.535 3.535 10.173 10.574c.488.488 1.128.732 1.767.732 1.39 0 2.5-1.128 2.5-2.5 0-.663-.264-1.299-.732-1.768l-10.173-10.573zm-3.441 6.518l-4.634 4.484c-.229.229-.503.407-.79.558l-.58.302-1.025 2.146.833.833 2.101-1.07.301-.58c.151-.286.347-.545.574-.774l4.607-4.457-1.387-1.442zm6.148-6.589l3.914-3.867c.169-.17.443-.168.611 0 .169.17.169.442.001.611l-3.926 3.879.872.907 3.943-3.896c.168-.169.441-.168.611.001.168.168.169.441 0 .609l-3.956 3.909 1.018 1.058 4.236-4.187c.583-.582.874-1.346.874-2.11 0-.768-.293-1.537-.88-2.125-.585-.585-1.35-.877-2.114-.877-.766 0-1.53.293-2.114.877l-4.154 4.105 1.064 1.106z"/></svg>