<?xml version="1.0" encoding="utf-8"?>
<!-- Generator: Adobe Illustrator 16.0.4, SVG Export Plug-In . SVG Version: 6.00 Build 0)  -->
<!DOCTYPE svg PUBLIC "-//W3C//DTD SVG 1.1//EN" "http://www.w3.org/Graphics/SVG/1.1/DTD/svg11.dtd">
<svg version="1.1" id="Layer_1" xmlns="http://www.w3.org/2000/svg" xmlns:xlink="http://www.w3.org/1999/xlink" x="0px" y="0px"
	 width="512px" height="512px" viewBox="0 0 512 512" enable-background="new 0 0 512 512" xml:space="preserve">
<path id="github-2-icon" d="M510.674,249.368l0.455-4.729c-28.357-2.751-56.559-2.996-83.957-0.904
	c4.404-14.053,6.725-29.927,6.558-47.978c-0.362-38.35-13.148-68.217-33.245-93.006c3.859-23.348,0.952-46.693-6.33-70.05
	c-28.716,2.351-54.559,11.756-77.571,28.096c-43.007-8.724-86.009-9.279-129.016,0c-26.842-18.115-53.201-27.001-79.151-28.096
	c-7.691,25.717-8.878,51.066-2.374,75.99c-22.64,24.023-31.294,53.186-30.869,85.479c0.242,18.487,3.091,34.937,8.345,49.48
	c-26.994-1.98-54.742-1.716-82.647,0.989l0.455,4.729c28.419-2.759,56.673-2.986,84.117-0.84c1.008,2.445,2.022,4.879,3.179,7.203
	c-29.735-0.784-56.498,1.798-81.56,7.963l1.132,4.611c25.436-6.253,52.686-8.771,83.111-7.745
	c20.121,35.747,58.853,56.751,115.257,63.415c-13.104,10.645-20.149,23.199-21.964,37.404c0,0-5.929,0-29.874,0
	c-40.12,0-51.058-51.154-92.613-46.108c40.315,19.992,32.265,83.898,96.774,83.898c21.681,0,26.288,0,27.099,0v58.574
	c0.291,9.466-3.83,15.797-10.488,20.185c23.103,2.333,40.466-9.203,40.466-23.352s0-70.528,0-77.427
	c0-6.899,7.225-7.432,7.225-7.432v90.399c0.303,8.998-4.067,14.109-8.708,18.998c20.354,0.81,39.498-3.257,40.365-20.578
	c0,0,0-82.167,0-86.517s7.129-4.458,7.129,0c0,4.456,0,82.458,0,82.458c0.209,14.614,12.831,26.463,39.572,24.638
	c-7.152-5.759-9.349-11.58-9.349-20.002c0-8.421,0-89.396,0-89.396s7.369-0.377,7.369,7.432c0,7.811,0,62.335,0,75.401
	c0,16.781,20.146,23.704,43.135,23.055c-7.531-5.646-12.628-12.374-12.66-21.372v-90.679c-0.779-13.328-6.196-25.893-16.821-37.598
	c51.559-7.917,88.722-28.499,107.226-65.388c30.525-1.049,57.856,1.466,83.359,7.735l1.132-4.61
	c-25.257-6.21-52.24-8.788-82.256-7.945c1.039-2.342,2.068-4.693,2.959-7.165C453.37,246.358,481.938,246.576,510.674,249.368z
	 M80.134,322.907c-1.267,0-2.295-0.729-2.295-1.627c0-0.901,1.028-1.629,2.295-1.629c1.268,0,2.296,0.728,2.296,1.629
	C82.431,322.179,81.402,322.907,80.134,322.907z M87.358,327.836c-1.408,0-2.551-0.81-2.551-1.809s1.143-1.811,2.551-1.811
	c1.409,0,2.55,0.812,2.55,1.811S88.767,327.836,87.358,327.836z M94.687,334.237c-1.651,0-2.991-0.948-2.991-2.12
	s1.34-2.123,2.991-2.123s2.992,0.951,2.992,2.123S96.337,334.237,94.687,334.237z M101.808,341.925c-1.932,0-3.499-1.11-3.499-2.48
	s1.567-2.483,3.499-2.483s3.499,1.113,3.499,2.483S103.74,341.925,101.808,341.925z M109.651,350.613
	c-2.146,0-3.888-1.233-3.888-2.758c0-1.523,1.742-2.76,3.888-2.76s3.888,1.236,3.888,2.76
	C113.539,349.38,111.797,350.613,109.651,350.613z M118.734,359.436c-2.385,0-4.319-1.372-4.319-3.065
	c0-1.692,1.935-3.066,4.319-3.066c2.384,0,4.318,1.374,4.318,3.066C123.053,358.063,121.118,359.436,118.734,359.436z
	 M131.015,367.824c-2.65,0-4.799-1.524-4.799-3.404c0-1.881,2.148-3.407,4.799-3.407c2.651,0,4.799,1.526,4.799,3.407
	C135.814,366.3,133.666,367.824,131.015,367.824z M146.239,372.313c-2.65,0-4.799-1.523-4.799-3.404s2.149-3.407,4.799-3.407
	s4.799,1.526,4.799,3.407S148.889,372.313,146.239,372.313z M162.287,372.83c-2.65,0-4.799-1.525-4.799-3.404
	c0-1.882,2.148-3.407,4.799-3.407s4.799,1.525,4.799,3.407C167.086,371.305,164.938,372.83,162.287,372.83z M178.13,373.14
	c-2.65,0-4.799-1.525-4.799-3.404c0-1.882,2.149-3.407,4.799-3.407s4.799,1.525,4.799,3.407
	C182.929,371.614,180.78,373.14,178.13,373.14z"/>
</svg>
